<svg width="35" height="35" viewBox="0 0 35 35" fill="none" xmlns="http://www.w3.org/2000/svg">
<path d="M34.75 17.5C34.75 27.027 27.027 34.75 17.5 34.75C7.973 34.75 0.25 27.026 0.25 17.5C0.25 7.974 7.973 0.25 17.5 0.25C27.027 0.25 34.75 7.974 34.75 17.5Z" fill="#005B2F"/>
<path d="M5.79288 8.755L1.62988 23.596C4.08088 29.973 10.2589 34.499 17.5009 34.499C24.7279 34.499 30.8969 29.987 33.3559 23.63L29.1079 8.427L5.79288 8.755Z" fill="#014220"/>
<path d="M34.501 17.5C34.501 26.89 26.889 34.5 17.501 34.5C8.11098 34.5 0.500977 26.89 0.500977 17.5C0.500977 8.111 8.11198 0.5 17.501 0.5C26.889 0.5 34.501 8.111 34.501 17.5ZM33.021 17.5C33.021 8.941 26.058 1.979 17.5 1.979C8.94098 1.979 1.97898 8.94 1.97898 17.5C1.97898 26.06 8.94198 33.022 17.501 33.022C26.059 33.021 33.021 26.06 33.021 17.5Z" fill="#00773D"/>
<path d="M19.5479 34.3651C19.9159 34.3201 20.2809 34.2641 20.6419 34.1981C20.8069 34.1681 20.9709 34.1361 21.1339 34.1001C21.5299 34.0141 21.9209 33.9131 22.3069 33.7991C22.4089 33.7691 22.5139 33.7451 22.6149 33.7141C23.0889 33.5641 23.5529 33.3921 24.0079 33.2041C24.1459 33.1451 24.2799 33.0811 24.4169 33.0181C24.7359 32.8761 25.0529 32.7241 25.3619 32.5631C25.5229 32.4781 25.6819 32.3921 25.8409 32.3021C26.1329 32.1371 26.4179 31.9631 26.6979 31.7821C26.8379 31.6901 26.9799 31.6051 27.1159 31.5111C27.5049 31.2441 27.8829 30.9631 28.2469 30.6661C28.3649 30.5691 28.4759 30.4641 28.5909 30.3641C28.8439 30.1451 29.0929 29.9231 29.3329 29.6881C29.4799 29.5461 29.6219 29.3981 29.7639 29.2511C29.9649 29.0421 30.1599 28.8271 30.3489 28.6061C30.4859 28.4511 30.6209 28.2941 30.7509 28.1311C30.9649 27.8661 31.1659 27.5911 31.3639 27.3131C31.5109 27.1051 31.6539 26.8941 31.7919 26.6791C31.9799 26.3881 32.1629 26.0921 32.3329 25.7901C32.4399 25.5981 32.5389 25.4011 32.6389 25.2051C32.7639 24.9611 32.8829 24.7141 32.9959 24.4631C33.0899 24.2561 33.1809 24.0481 33.2659 23.8381C33.2969 23.7601 33.3219 23.6801 33.3519 23.6031L32.6169 20.9711C31.0319 27.8611 24.8639 33.0171 17.5019 33.0171C10.1269 33.0171 3.94792 27.8411 2.37792 20.9341L1.63892 23.5691C1.67192 23.6541 1.69892 23.7421 1.73392 23.8271C1.81792 24.0361 1.90692 24.2421 1.99892 24.4471C2.11292 24.7031 2.23592 24.9541 2.36292 25.2031C2.46092 25.3941 2.55592 25.5881 2.66092 25.7741C2.84592 26.1061 3.04392 26.4281 3.25092 26.7461C3.37892 26.9431 3.51292 27.1341 3.64892 27.3261C3.84192 27.5971 4.03792 27.8671 4.24692 28.1261C4.37592 28.2871 4.51192 28.4411 4.64692 28.5991C4.83792 28.8211 5.03392 29.0371 5.23692 29.2481C5.37592 29.3931 5.51592 29.5401 5.66092 29.6801C5.90792 29.9211 6.16392 30.1501 6.42492 30.3751C6.53292 30.4671 6.63592 30.5661 6.74692 30.6581C7.11192 30.9571 7.49192 31.2381 7.88192 31.5071C8.01892 31.6011 8.16292 31.6881 8.30292 31.7791C8.58292 31.9601 8.86692 32.1331 9.15792 32.2981C9.31592 32.3871 9.47492 32.4741 9.63592 32.5581C9.94792 32.7211 10.2659 32.8741 10.5889 33.0171C10.7229 33.0791 10.8549 33.1421 10.9899 33.2001C11.4459 33.3881 11.9099 33.5591 12.3829 33.7101C12.4889 33.7431 12.5979 33.7681 12.7039 33.8001C13.0859 33.9121 13.4729 34.0121 13.8649 34.0971C14.0289 34.1331 14.1949 34.1641 14.3609 34.1961C14.7199 34.2621 15.0849 34.3181 15.4529 34.3631C15.6109 34.3821 15.7669 34.4041 15.9269 34.4191C16.4459 34.4671 16.9699 34.4981 17.5019 34.4981C18.0329 34.4981 18.5579 34.4671 19.0759 34.4191C19.2339 34.4061 19.3909 34.3851 19.5479 34.3651Z" fill="#00582D"/>
<path d="M10.583 30.0321C8.99699 26.5591 6.49399 23.4631 3.64599 21.3331C3.16999 20.9761 3.02999 20.3881 3.31099 19.8651C4.99299 16.7291 5.79799 12.8611 5.78699 9.01706C5.78499 8.42606 6.14999 7.99506 6.72499 7.84306C10.104 6.94606 13.697 5.23806 16.748 3.01506C17.228 2.66606 17.795 2.63606 18.252 3.01506C21.253 5.50006 24.869 7.19406 28.275 7.84306C28.858 7.95306 29.228 8.42606 29.213 9.01906C29.122 12.7501 29.979 16.6291 31.689 19.8651C31.966 20.3891 31.825 20.9691 31.354 21.3331C28.426 23.5801 25.894 26.6431 24.417 30.0321C24.18 30.5771 23.634 30.8301 23.059 30.6821C19.123 29.6771 15.083 29.9031 11.943 30.6801C11.363 30.8251 10.831 30.5751 10.583 30.0321Z" fill="#00562B"/>
<path d="M10.583 30.032C8.99699 26.559 6.49399 23.463 3.64599 21.333C3.16999 20.976 3.02999 20.388 3.31099 19.865C4.99299 16.729 29.98 16.629 31.69 19.865C31.967 20.389 31.826 20.969 31.355 21.333C28.427 23.58 25.895 26.643 24.418 30.032C24.181 30.577 23.635 30.83 23.06 30.682C19.124 29.677 15.084 29.903 11.944 30.68C11.363 30.825 10.831 30.575 10.583 30.032Z" fill="#00441E"/>
<path d="M10.5829 30.032C9.44894 26.361 6.96994 23.255 3.64594 21.333C3.13194 21.035 2.97694 20.355 3.31094 19.865C5.47194 16.691 6.35594 12.816 5.78694 9.01695C5.69894 8.43095 6.13194 7.88695 6.72494 7.84295C10.5539 7.55295 14.1339 5.82795 16.7479 3.01495C17.1519 2.58095 17.8489 2.58095 18.2519 3.01495C20.8649 5.82795 24.4469 7.55295 28.2749 7.84295C28.8669 7.88695 29.3009 8.43095 29.2129 9.01895C28.6429 12.816 29.5269 16.691 31.6889 19.865C32.0229 20.355 31.8679 21.035 31.3539 21.333C28.0299 23.255 25.5509 26.361 24.4169 30.032C24.2409 30.598 23.6119 30.898 23.0589 30.682C19.1539 29.161 15.1099 29.454 11.9429 30.68C11.3869 30.896 10.7579 30.602 10.5829 30.032Z" fill="#00602B"/>
<path d="M10.5829 30.032C9.44894 26.361 6.96994 23.255 3.64594 21.333C3.13194 21.035 2.97694 20.355 3.31094 19.865C5.47194 16.691 6.35594 12.816 5.78694 9.01695C5.69894 8.43095 6.13194 7.88695 6.72494 7.84295C10.5539 7.55295 14.1339 5.82795 16.7479 3.01495C17.1519 2.58095 17.8489 2.58095 18.2519 3.01495C20.8649 5.82795 24.4469 7.55295 28.2749 7.84295C28.8669 7.88695 29.3009 8.43095 29.2129 9.01895C28.6429 12.816 29.5269 16.691 31.6889 19.865C32.0229 20.355 31.8679 21.035 31.3539 21.333C28.0299 23.255 25.5509 26.361 24.4169 30.032C24.2409 30.598 23.6119 30.898 23.0589 30.682C19.1539 29.161 15.1099 29.454 11.9429 30.68C11.3869 30.896 10.7579 30.602 10.5829 30.032Z" fill="#009042"/>
<path d="M10.698 29.8219C9.58302 26.2589 7.14602 23.2419 3.87702 21.3769C3.37102 21.0879 3.18702 20.4049 3.54802 19.9519C5.92402 16.9679 6.80602 13.2109 5.98202 9.42387C5.85902 8.85987 6.32102 8.30087 6.90402 8.28087C10.715 8.14687 14.231 6.44787 16.76 3.59487C17.144 3.16187 17.852 3.16487 18.239 3.59487C20.802 6.44687 24.362 8.06587 28.094 8.28087C28.676 8.31387 29.104 8.85287 29.017 9.42387C28.456 13.1089 29.327 16.8709 31.452 19.9519C31.78 20.4279 31.628 21.0879 31.123 21.3769C27.853 23.2419 25.417 26.2589 24.302 29.8209C24.129 30.3719 23.511 30.6629 22.966 30.4539C19.127 28.9749 15.151 29.2599 12.036 30.4519C11.489 30.6609 10.871 30.3759 10.698 29.8219Z" fill="#00602B"/>
<path d="M10.583 30.0421C9.44903 26.4191 6.97003 23.3511 3.64603 21.4521C3.13203 21.1581 3.10203 19.6821 3.45703 20.1511C8.99503 27.4771 23.321 29.6751 31.582 20.1141C31.967 19.6701 31.869 21.1581 31.355 21.4521C28.031 23.3501 25.552 26.4191 24.418 30.0411C24.242 30.6021 23.613 30.8961 23.06 30.6851C19.155 29.1821 15.111 29.4721 11.944 30.6831C11.387 30.8961 10.758 30.6041 10.583 30.0421Z" fill="#00592D"/>
<path d="M17.624 17.6081H17.376C17.03 17.6081 16.75 17.3281 16.75 16.9821V4.28909C16.75 3.94309 17.114 3.66309 17.459 3.66309H17.539C17.885 3.66309 18.25 3.94309 18.25 4.28909V16.9821C18.25 17.3281 17.97 17.6081 17.624 17.6081Z" fill="#F2F9F4"/>
</svg>
