<svg width="75" height="380" viewBox="0 0 75 380" fill="none" xmlns="http://www.w3.org/2000/svg">
<g id="ClockDivider" clip-path="url(#clip0)">
<rect width="75" height="380" fill="white"/>
<g id="ClockDivider_2">
<g id="layer10">
<rect id="rect7373" width="75" height="380" fill="#E6E6E6"/>
</g>
<g id="layer9">
<g id="text3433">
<path id="path3438" fill-rule="evenodd" clip-rule="evenodd" d="M27.0791 357.781L27.0804 357.784C27.1225 357.849 27.1619 357.913 27.1985 357.976L27.1649 357.994C27.0436 358.059 26.921 358.128 26.7972 358.2L26.7849 358.207C26.777 358.196 26.7693 358.185 26.7617 358.172C26.7297 358.092 26.7056 358.043 26.6893 358.027L26.6885 358.026L26.6887 358.026L26.6885 358.025C26.6559 357.976 26.6396 357.928 26.6396 357.879C26.6396 357.814 26.6803 357.765 26.7617 357.733C26.8105 357.7 26.8594 357.684 26.9082 357.684C26.9733 357.684 27.0302 357.716 27.0791 357.781L27.0791 357.781ZM26.8744 358.332C26.8599 358.306 26.8451 358.281 26.83 358.255C26.8143 358.242 26.7993 358.226 26.7849 358.207L26.7617 358.22C26.756 358.223 26.7503 358.226 26.7446 358.228C26.6332 358.139 26.5252 358.051 26.4204 357.965C26.4251 357.906 26.4657 357.861 26.542 357.831C26.8607 357.642 27.1708 357.474 27.4724 357.328C27.5592 357.402 27.6152 357.447 27.6405 357.464H27.665C27.6812 357.464 27.6975 357.456 27.7138 357.44C27.7301 357.423 27.7383 357.407 27.7383 357.391V357.366C27.726 357.335 27.6976 357.294 27.653 357.243C28.0124 357.077 28.3594 356.942 28.6939 356.839C28.7599 356.884 28.8238 356.922 28.8857 356.95H28.9589C28.9752 356.934 28.9834 356.91 28.9834 356.877L28.9834 356.878V356.853C28.9779 356.853 28.9482 356.829 28.8943 356.78C29.301 356.668 29.6888 356.603 30.0576 356.585H30.1956C30.2069 356.594 30.2178 356.601 30.2285 356.609C30.2447 356.625 30.261 356.633 30.2773 356.633C30.309 356.633 30.3329 356.618 30.3492 356.587C31.4147 356.617 32.2534 357.048 32.8652 357.879C33.2447 358.389 33.5076 359.016 33.6538 359.759C33.4949 359.59 33.346 359.427 33.2069 359.27C33.1907 359.237 33.1744 359.221 33.1581 359.221C33.1418 359.221 33.1174 359.237 33.0849 359.27C33.075 359.28 33.0681 359.289 33.0642 359.299C32.9622 358.96 32.8307 358.658 32.6699 358.392C32.1165 357.497 31.3271 357.049 30.3018 357.049H30.1309L30.1308 357.048C29.2548 357.092 28.2773 357.401 27.1985 357.976C27.289 358.131 27.3632 358.278 27.4209 358.416C27.7302 359.1 27.8848 359.743 27.8848 360.345C27.8848 360.548 27.8663 360.747 27.8295 360.942C27.7594 360.807 27.6302 360.639 27.4418 360.437C27.4441 360.39 27.4453 360.343 27.4453 360.296C27.4453 359.756 27.3082 359.202 27.0339 358.636H27.0547C27.0709 358.636 27.0872 358.628 27.1035 358.611C27.1198 358.595 27.1279 358.579 27.1279 358.562C27.1279 358.546 27.1198 358.53 27.1035 358.513C27.0257 358.452 26.9493 358.392 26.8744 358.332ZM26.8744 358.332C26.9319 358.434 26.9851 358.535 27.0339 358.636H27.0058C26.664 358.489 26.1025 358.034 25.3213 357.269C24.8818 356.846 24.6621 356.569 24.6621 356.439C24.6621 356.39 24.6865 356.357 24.7353 356.341C24.7679 356.341 24.7923 356.357 24.8086 356.39C24.8086 356.406 24.8004 356.423 24.7841 356.439V356.463C24.7841 356.529 25.1503 356.879 25.8827 357.513L25.8828 357.512C26.0512 357.658 26.2304 357.809 26.4204 357.965C26.4201 357.969 26.4199 357.973 26.4199 357.977C26.4199 358.026 26.4362 358.074 26.4687 358.123C26.5175 358.204 26.5827 358.245 26.664 358.245C26.6909 358.245 26.7177 358.239 26.7446 358.228C26.7874 358.263 26.8306 358.297 26.8744 358.332ZM27.4072 360.763C27.4249 360.654 27.4364 360.546 27.4418 360.437C27.1275 360.101 26.6485 359.671 26.0048 359.148L26.0049 359.149C25.7119 358.921 25.3376 358.579 24.8819 358.123C24.3554 357.613 23.9853 357.259 23.7716 357.061C23.7805 357.064 23.7925 357.069 23.8076 357.074C23.8402 357.074 23.8565 357.066 23.8565 357.049V357.024C23.8565 357.008 23.8483 356.992 23.832 356.975C23.7995 356.959 23.7425 356.935 23.6611 356.902C23.61 356.882 23.5684 356.864 23.5366 356.85C24.0208 356.587 24.5669 356.344 25.1748 356.121C25.384 356.043 25.61 355.964 25.8528 355.884C25.8899 355.917 25.9324 355.956 25.9804 355.999C26.078 356.097 26.2652 356.26 26.5419 356.488C26.7535 356.683 26.9569 356.87 27.1522 357.049C27.2853 357.167 27.3921 357.26 27.4724 357.328C27.533 357.299 27.5931 357.27 27.653 357.243C27.5792 357.158 27.4611 357.044 27.2988 356.902L27.2988 356.902C27.0872 356.691 26.8593 356.487 26.6152 356.292C26.3856 356.092 26.1982 355.934 26.0529 355.818C26.4982 355.675 26.9959 355.527 27.5462 355.375C27.544 355.379 27.5429 355.383 27.5429 355.388V355.412C27.6568 355.689 27.8277 355.958 28.0556 356.218C28.2865 356.498 28.4993 356.705 28.6939 356.839C28.7612 356.818 28.828 356.799 28.8943 356.78C28.7888 356.686 28.5906 356.498 28.2998 356.218C28.0231 355.958 27.8115 355.673 27.665 355.364C27.6584 355.357 27.6519 355.351 27.6453 355.348C28.1741 355.202 28.7504 355.053 29.374 354.9C29.8966 354.774 30.3675 354.683 30.7865 354.626L30.79 354.631C30.79 354.664 30.7981 354.68 30.8144 354.68C30.8144 354.697 30.8226 354.705 30.8389 354.705L36.3809 359.758C36.6576 360.019 37.5365 361.044 39.0176 362.835C39.1803 363.03 39.6198 363.437 40.3359 364.055C40.8895 364.53 41.274 364.974 41.4894 365.387L41.4834 365.52C41.4671 365.813 41.4427 366.383 41.4102 367.229C41.3161 367.184 41.2103 367.152 41.0927 367.131L41.0927 367.131C40.9299 366.692 40.5393 366.171 39.9208 365.569C40.0022 365.65 39.343 365.08 37.9433 363.86C37.6503 363.599 37.2678 363.241 36.7958 362.786C36.2261 362.232 35.8436 361.874 35.6483 361.711C34.8661 360.992 34.2013 360.342 33.6538 359.759C33.6726 359.855 33.6896 359.953 33.7045 360.053C33.4347 359.769 33.2281 359.541 33.0849 359.368L33.084 359.367C33.0776 359.344 33.071 359.322 33.0642 359.299C33.0617 359.306 33.0604 359.312 33.0604 359.319C33.0604 359.335 33.0683 359.351 33.084 359.367C33.2377 359.905 33.3194 360.532 33.3291 361.249C33.3291 361.405 33.3221 361.556 33.308 361.702C33.2645 361.648 33.2227 361.594 33.1827 361.54C33.1664 361.524 33.1501 361.516 33.1338 361.516H33.1094C33.0931 361.516 33.0849 361.524 33.0849 361.54C33.0849 361.557 33.0931 361.573 33.1094 361.589C33.1513 361.65 33.2131 361.727 33.2949 361.821C33.243 362.235 33.1324 362.605 32.9629 362.933C32.8164 363.194 32.6536 363.389 32.4746 363.519C32.3281 363.617 32.084 363.698 31.7422 363.763C31.6445 363.779 31.3841 363.82 30.9609 363.885C30.6354 363.934 30.375 363.983 30.1797 364.032C29.9518 364.097 29.61 364.186 29.1543 364.3C28.6823 364.414 28.3405 364.504 28.1289 364.569C27.3639 364.764 26.6885 364.976 26.1025 365.204C25.8909 365.301 25.6061 365.432 25.248 365.594C24.7923 365.806 24.4993 365.944 24.3691 366.009C22.9531 366.628 21.9603 367.206 21.3906 367.743C21.3588 367.773 21.326 367.805 21.2924 367.84C21.2698 367.851 21.2551 367.867 21.2484 367.886C20.9818 368.171 20.663 368.595 20.292 369.159C19.9502 369.647 19.6735 370.152 19.4619 370.672C19.2015 371.356 19.0713 372.056 19.0713 372.772C19.0713 373.195 19.112 373.618 19.1934 374.042C19.4212 375.197 19.9339 376.198 20.7314 377.045C21.3174 377.663 22.359 378.225 23.8564 378.729C24.9795 379.12 26.013 379.315 26.957 379.315C27.2012 379.315 27.4453 379.299 27.6894 379.266C28.2076 379.217 28.707 379.121 29.1878 378.978L29.2031 378.997C29.2356 379.029 29.26 379.046 29.2763 379.046C29.3089 379.046 29.3414 379.029 29.374 378.997C29.4065 378.964 29.4228 378.94 29.4228 378.923C29.4228 378.917 29.4222 378.911 29.4209 378.904C29.4953 378.88 29.5692 378.854 29.6426 378.827C30.2285 378.599 30.8307 378.257 31.4492 377.801C32.2142 377.232 32.792 376.825 33.1826 376.581C33.7022 376.271 34.076 375.962 34.3041 375.653C34.3556 375.736 34.413 375.834 34.4765 375.945L34.4765 375.945C34.5905 376.189 34.7532 376.417 34.9648 376.628C35.2903 376.986 35.7054 377.304 36.2099 377.58C37.0563 378.036 38.1224 378.313 39.4082 378.41C39.6686 378.427 39.9371 378.435 40.2138 378.435C41.0765 378.435 41.9472 378.338 42.8261 378.142C43.5423 377.996 44.1526 377.809 44.6572 377.581L46.0262 377.004C46.0425 377.032 46.0663 377.061 46.0976 377.093C46.1465 377.142 46.1953 377.166 46.2441 377.166C46.3092 377.166 46.3662 377.133 46.415 377.068C46.4638 377.003 46.4883 376.905 46.4883 376.775C46.4883 376.547 46.4232 376.222 46.2929 375.799C46.2441 375.652 46.1546 375.375 46.0244 374.969C45.9756 374.822 45.943 374.7 45.9267 374.602L45.9259 374.601C45.9221 374.541 45.9042 374.497 45.8724 374.468C45.8598 374.44 45.8535 374.411 45.8535 374.382C45.8372 374.236 45.7558 374.163 45.6093 374.163C45.4629 374.163 45.3896 374.22 45.3896 374.333V374.382C45.392 374.404 45.3968 374.431 45.404 374.464C45.1677 374.489 44.9588 374.508 44.7773 374.523C44.7047 374.436 44.6646 374.389 44.6571 374.382C44.6409 374.349 44.6164 374.333 44.5839 374.333C44.5676 374.333 44.5514 374.341 44.5351 374.358C44.5025 374.374 44.4862 374.398 44.4862 374.431C44.4862 374.447 44.4944 374.463 44.5107 374.48L44.5553 374.539C44.3998 374.549 44.271 374.554 44.1689 374.554H43.9736C43.3551 374.456 42.8668 374.204 42.5088 373.797C42.2972 373.536 42.1181 373.089 41.9717 372.454C41.8089 371.754 41.7275 371.054 41.7275 370.354C41.7275 370.175 41.7601 369.443 41.8252 368.157C41.8415 367.945 41.8496 367.612 41.8496 367.156C41.8659 366.717 41.8822 366.383 41.8985 366.155C41.9636 365.016 41.9961 364.08 41.9961 363.347C41.9961 362.843 41.9798 362.428 41.9473 362.102C41.8334 360.898 41.4997 359.734 40.9463 358.611C40.4255 357.586 39.6442 356.666 38.6026 355.852C37.5934 355.055 36.503 354.558 35.3311 354.363C35.1846 354.33 34.5173 354.265 33.3291 354.168C32.7269 354.119 32.1979 354.094 31.7422 354.094C31.5143 354.094 31.3109 354.103 31.1319 354.119C30.6924 354.152 29.9844 354.29 29.0078 354.534C28.308 354.697 27.5918 354.884 26.8594 355.096C25.3132 355.552 24.125 356.007 23.2949 356.463C22.237 357.033 21.4232 357.724 20.8535 358.538C20.3327 359.238 20.0723 359.954 20.0723 360.687C20.0723 360.963 20.113 361.248 20.1944 361.541C20.4548 362.518 21.0651 363.209 22.0254 363.616C22.5462 363.828 23.0915 363.934 23.6612 363.934C24.1332 363.934 24.6214 363.861 25.126 363.714C25.778 363.525 26.323 363.229 26.761 362.826C26.7717 362.84 26.78 362.851 26.7861 362.859C26.8024 362.892 26.8268 362.908 26.8594 362.908C26.8756 362.908 26.8919 362.9 26.9082 362.884C26.957 362.867 26.9814 362.843 26.9814 362.81C26.9814 362.794 26.9733 362.778 26.957 362.761C26.9437 362.74 26.9264 362.715 26.9051 362.686C27.1575 362.426 27.3701 362.125 27.543 361.785C27.656 361.559 27.7409 361.328 27.7979 361.09C27.8232 361.059 27.8359 361.023 27.8359 360.979V360.955L27.8295 360.942C27.8201 360.991 27.8096 361.041 27.7979 361.09C27.7945 361.094 27.7909 361.098 27.7871 361.101C27.7708 361.118 27.7464 361.126 27.7138 361.126C27.6813 361.126 27.6569 361.102 27.6406 361.053C27.6073 360.991 27.5295 360.894 27.4072 360.763ZM26.6309 362.349C26.2608 361.919 25.6045 361.21 24.6621 360.222L24.6621 360.223C24.0111 359.555 23.5228 359.043 23.1973 358.685C22.7415 358.164 22.5137 357.854 22.5137 357.757C22.5137 357.724 22.4974 357.708 22.4649 357.708C22.4323 357.708 22.4079 357.724 22.3916 357.757V357.806C22.3916 357.936 22.4974 358.139 22.709 358.416C22.9369 358.709 23.3926 359.214 24.0762 359.93C25.2663 361.189 26.0662 362.045 26.4759 362.499C26.0426 362.889 25.4705 363.172 24.7598 363.347C24.3691 363.445 23.9948 363.494 23.6367 363.494C23.612 363.494 23.5873 363.494 23.5627 363.493C23.3786 363.21 22.9556 362.649 22.2939 361.809C21.6917 361.061 21.3743 360.662 21.3417 360.613L21.3418 360.613C21.0163 360.19 20.8454 359.978 20.8291 359.978C20.8291 359.946 20.821 359.922 20.8047 359.905C20.7884 359.889 20.7722 359.88 20.7559 359.88L20.7314 359.905C20.7151 359.921 20.707 359.946 20.707 359.978C20.707 360.109 20.829 360.337 21.0732 360.662C21.1708 360.792 21.2929 360.939 21.4394 361.102C21.5859 361.28 21.6672 361.378 21.6835 361.395C22.4995 362.437 23.0432 363.133 23.3147 363.481C22.7265 363.432 22.1909 363.25 21.708 362.932C20.9267 362.428 20.5361 361.687 20.5361 360.711V360.54C20.5849 359.612 21.1221 358.701 22.1475 357.805C22.4943 357.497 22.9031 357.209 23.374 356.941C23.3795 356.944 23.3856 356.948 23.3925 356.951C24.0924 357.684 24.8737 358.432 25.7363 359.197C26.5542 359.923 27.1112 360.445 27.4072 360.763C27.3717 360.982 27.3111 361.2 27.2256 361.419C27.084 361.773 26.8858 362.083 26.6309 362.349ZM23.3147 363.481C23.4331 363.633 23.4998 363.719 23.5146 363.738C23.5308 363.755 23.5471 363.763 23.5634 363.763C23.5797 363.763 23.5959 363.755 23.6122 363.738C23.6448 363.722 23.6611 363.706 23.6611 363.689V363.665C23.6469 363.629 23.6141 363.572 23.5627 363.493C23.479 363.492 23.3964 363.487 23.3147 363.481ZM26.6309 362.349C26.754 362.492 26.8453 362.604 26.9051 362.686C26.8585 362.734 26.8104 362.781 26.761 362.826C26.7127 362.765 26.6177 362.656 26.4759 362.499C26.5297 362.451 26.5814 362.401 26.6309 362.349ZM44.8958 374.977C44.7925 374.847 44.679 374.701 44.5553 374.539C44.6241 374.534 44.6981 374.529 44.7773 374.523C44.8577 374.618 44.978 374.762 45.1382 374.954C45.0521 374.962 44.9713 374.97 44.8958 374.977ZM43.4654 374.899C43.6871 374.963 43.9216 375.002 44.1689 375.017H44.2422C44.3735 375.017 44.5914 375.004 44.8958 374.977C45.1937 375.349 45.4071 375.582 45.5361 375.676C45.5523 375.693 45.5686 375.701 45.5849 375.701C45.6011 375.701 45.6174 375.693 45.6337 375.676C45.65 375.66 45.6582 375.635 45.6582 375.603H45.6581V375.578C45.6418 375.578 45.4791 375.383 45.1698 374.992L45.1382 374.954C45.259 374.942 45.3903 374.929 45.5321 374.914C45.5945 375.111 45.6773 375.357 45.7802 375.652L45.7802 375.652C45.8779 375.978 45.9511 376.23 46 376.409C46.0127 376.454 46.023 376.495 46.0308 376.532C45.8354 376.548 45.559 376.637 45.2018 376.799C45.1939 376.79 45.1833 376.781 45.1699 376.775C44.9258 376.563 44.6328 376.278 44.291 375.92L44.291 375.92C43.8027 375.383 43.5179 375.082 43.4365 375.017C43.4691 375.017 43.4935 375.025 43.5098 375.041C43.5423 375.041 43.5667 375.033 43.583 375.017C43.583 374.984 43.5749 374.96 43.5586 374.943L43.4654 374.899ZM42.8264 374.631L42.8261 374.626C42.8261 374.593 42.8343 374.569 42.8506 374.553C42.8669 374.536 42.8831 374.528 42.8994 374.528C42.9319 374.528 42.9564 374.536 42.9726 374.553L43.1911 374.771C43.2106 374.78 43.302 374.822 43.4654 374.899C43.239 374.835 43.026 374.745 42.8264 374.631ZM44.9615 376.913C44.5193 376.528 43.8156 375.782 42.8506 374.675C42.8359 374.66 42.8279 374.645 42.8264 374.631C42.8099 374.622 42.7936 374.612 42.7773 374.602C42.1751 374.244 41.7601 373.569 41.5322 372.576C41.3695 371.909 41.2799 371.306 41.2637 370.769V370.379C41.2637 370.17 41.2683 369.939 41.2775 369.684C41.2846 369.665 41.2881 369.644 41.2881 369.621C41.2881 369.613 41.2858 369.602 41.2812 369.589C41.289 369.393 41.2994 369.184 41.3125 368.963C41.3414 368.572 41.3703 368.073 41.3992 367.464L41.6542 367.62H41.6787C41.6949 367.62 41.7112 367.603 41.7275 367.571C41.7438 367.555 41.752 367.538 41.752 367.522C41.752 367.506 41.7438 367.49 41.7275 367.473C41.6433 367.37 41.5375 367.289 41.4102 367.229L41.4101 367.229L41.3992 367.464L41.2148 367.351L41.1415 367.326V367.351C41.1415 367.4 41.1171 367.433 41.0683 367.449H41.0438C40.995 367.449 40.9625 367.424 40.9462 367.376C40.7021 366.757 40.2056 366.114 39.4569 365.447C39.2779 365.3 38.9605 365.032 38.5048 364.641C38.0979 364.316 37.7886 364.055 37.5771 363.86C35.7678 362.135 34.4769 360.866 33.7045 360.053C33.7328 360.241 33.7541 360.436 33.7685 360.638C33.7848 360.801 33.793 360.955 33.793 361.102C33.793 361.504 33.7613 361.856 33.6978 362.157C33.5555 362.001 33.4255 361.85 33.308 361.702C33.3041 361.742 33.2997 361.782 33.2949 361.821C33.394 361.934 33.5225 362.072 33.6803 362.235L33.6709 362.274C33.5787 362.694 33.4479 363.043 33.2783 363.321C33.2425 363.258 33.2187 363.201 33.207 363.151C33.1907 363.135 33.1745 363.127 33.1582 363.127H33.1337C33.1012 363.127 33.0849 363.143 33.0849 363.175V363.2C33.0849 363.273 33.116 363.363 33.1781 363.471C33.1044 363.572 33.0246 363.661 32.9385 363.739C32.7944 363.867 32.609 363.973 32.3823 364.058C32.336 364.013 32.2936 363.971 32.255 363.933C32.2387 363.916 32.2224 363.908 32.2061 363.908L32.1817 363.933C32.1654 363.949 32.1572 363.973 32.1572 364.006V364.031C32.1803 364.057 32.204 364.083 32.2282 364.11C32.0286 364.172 31.8015 364.219 31.5469 364.251C31.3451 364.278 31.1321 364.314 30.9081 364.357C30.8389 364.285 30.7833 364.233 30.7412 364.201C30.725 364.185 30.7087 364.177 30.6924 364.177L30.6679 364.201C30.6516 364.218 30.6435 364.242 30.6435 364.275V364.3C30.6646 364.333 30.6859 364.366 30.7075 364.398C30.448 364.452 30.1744 364.518 29.8867 364.593C29.741 364.63 29.5987 364.667 29.46 364.703C29.4472 364.682 29.4348 364.661 29.4228 364.641C29.4065 364.608 29.3903 364.592 29.374 364.592C29.3577 364.592 29.3414 364.6 29.3251 364.617C29.2926 364.633 29.2763 364.649 29.2763 364.665C29.2763 364.681 29.2845 364.698 29.3008 364.714L29.3125 364.741C28.8387 364.865 28.4072 364.982 28.0178 365.093C28.006 365.084 27.9942 365.08 27.9824 365.08C27.9661 365.08 27.9499 365.088 27.9336 365.104C27.9281 365.11 27.9235 365.115 27.9199 365.121C27.3489 365.285 26.8722 365.434 26.4898 365.569C26.3239 365.422 26.1948 365.348 26.1025 365.348C26.07 365.348 26.0456 365.356 26.0293 365.373C26.013 365.373 26.0049 365.381 26.0049 365.398V365.447C26.0211 365.463 26.0374 365.472 26.0537 365.472H26.0781L26.2459 365.658C26.0772 365.722 25.9318 365.782 25.8096 365.838C25.559 365.954 25.3227 366.063 25.1007 366.167C25.0563 366.127 25.0159 366.09 24.9795 366.057C24.9795 366.041 24.9713 366.032 24.955 366.032C24.9387 366.032 24.9143 366.041 24.8818 366.057C24.8655 366.057 24.8573 366.065 24.8573 366.082C24.8573 366.098 24.8655 366.114 24.8818 366.131C24.8995 366.166 24.922 366.202 24.9493 366.237C24.6295 366.386 24.3412 366.522 24.0843 366.644C23.9737 366.511 23.9059 366.421 23.8808 366.374L23.8808 366.375C23.8645 366.358 23.8401 366.35 23.8076 366.35C23.775 366.366 23.7587 366.383 23.7587 366.399C23.7696 366.504 23.8028 366.622 23.8583 366.752C23.1701 367.081 22.7463 367.298 22.5869 367.401C22.2478 367.614 21.9244 367.878 21.6168 368.191C21.5509 368.117 21.4918 368.032 21.4395 367.938C21.4395 367.922 21.4313 367.906 21.415 367.889V367.865H21.3906C21.3743 367.848 21.3581 367.84 21.3418 367.84H21.2929L21.2924 367.84C21.2779 367.855 21.2632 367.87 21.2484 367.886C21.2455 367.894 21.2441 367.903 21.2441 367.913V367.962H21.2686C21.3197 368.084 21.3851 368.213 21.4648 368.351C21.2302 368.606 21.0051 368.892 20.7894 369.207C20.7345 369.094 20.7071 368.997 20.7071 368.914V368.84C20.7071 368.824 20.6908 368.808 20.6582 368.792H20.6338C20.6175 368.792 20.6013 368.8 20.585 368.816C20.5687 368.849 20.5605 368.889 20.5605 368.938C20.5605 369.044 20.6051 369.181 20.6943 369.349C20.5476 369.572 20.4053 369.81 20.2676 370.062C20.1376 370.305 20.0249 370.55 19.9296 370.797L19.9257 370.793L19.9258 370.793C19.9258 370.777 19.9177 370.768 19.9014 370.768L19.8769 370.793C19.8606 370.793 19.8525 370.802 19.8525 370.818C19.8525 370.834 19.8606 370.85 19.8769 370.867L19.896 370.886C19.7393 371.311 19.6336 371.744 19.579 372.183L19.5596 372.161C19.5433 372.145 19.527 372.136 19.5107 372.136H19.4863V372.234C19.5059 372.271 19.5305 372.312 19.56 372.358C19.5435 372.535 19.5352 372.714 19.5352 372.894C19.5352 373.073 19.5433 373.26 19.5596 373.456C19.5944 373.813 19.6595 374.157 19.7548 374.487L19.7548 374.529C19.7548 374.589 19.7816 374.66 19.8352 374.742C20.0594 375.394 20.407 375.991 20.878 376.532C21.2849 376.988 21.7081 377.321 22.1475 377.533C22.2748 377.598 22.4063 377.663 22.5418 377.725C22.7704 378.007 22.9726 378.235 23.1484 378.411H23.246C23.2623 378.395 23.2705 378.37 23.2705 378.338V378.313C23.2086 378.203 23.1282 378.078 23.0292 377.938C23.3282 378.061 23.6446 378.178 23.9786 378.29C24.2754 378.387 24.5639 378.472 24.8441 378.544C24.9916 378.693 25.1425 378.844 25.2968 378.997C25.3294 379.013 25.3538 379.022 25.3701 379.022C25.4026 379.022 25.427 379.013 25.4433 378.997C25.4759 378.964 25.4922 378.932 25.4922 378.899C25.4922 378.867 25.4759 378.842 25.4433 378.826L25.4434 378.826C25.4429 378.823 25.3932 378.765 25.294 378.65C25.9164 378.784 26.4952 378.851 27.0303 378.851C27.2749 378.851 27.5082 378.84 27.7301 378.817C27.7546 378.839 27.7736 378.85 27.7871 378.85C27.8196 378.85 27.8522 378.834 27.8847 378.802L27.8881 378.798C28.2345 378.746 28.5632 378.677 28.8743 378.59C28.9776 378.717 29.0821 378.847 29.1878 378.978C29.266 378.955 29.3437 378.93 29.4209 378.904C29.4158 378.878 29.4002 378.852 29.374 378.826C29.2931 378.723 29.2108 378.619 29.1273 378.514C29.3139 378.454 29.4939 378.387 29.667 378.314C29.8302 378.249 29.9987 378.169 30.1728 378.075C30.2161 378.146 30.2591 378.217 30.3018 378.289C30.3343 378.338 30.3669 378.362 30.3994 378.362C30.4319 378.362 30.4564 378.354 30.4727 378.338C30.5215 378.305 30.5459 378.272 30.5459 378.24C30.5459 378.207 30.5378 378.183 30.5215 378.167C30.4787 378.094 30.4356 378.022 30.3922 377.95C30.674 377.782 30.9694 377.578 31.2784 377.337C31.8646 376.908 32.3504 376.567 32.7357 376.314C32.8272 376.388 32.8947 376.427 32.9384 376.434H32.9629C32.9954 376.434 33.0198 376.425 33.0361 376.409C33.0524 376.393 33.0605 376.376 33.0605 376.36C33.0605 376.344 33.0524 376.328 33.0361 376.311C33.0281 376.303 32.991 376.264 32.9246 376.194C33.4618 375.873 33.8191 375.557 33.9965 375.248L34.0178 375.257C34.0291 375.274 34.0437 375.292 34.0615 375.31C34.1164 375.365 34.1973 375.479 34.3041 375.653C34.3761 375.555 34.4336 375.457 34.4766 375.36C34.4929 375.327 34.501 375.295 34.501 375.262C34.501 375.164 34.4522 375.091 34.3545 375.042C34.3057 375.01 34.2569 374.993 34.208 374.993C34.17 374.993 34.1376 375.007 34.1107 375.035L34.0741 375.005L34.0859 374.993C34.1347 374.928 34.1836 374.895 34.2324 374.895C34.2975 374.895 34.3544 374.928 34.4033 374.993C34.5172 375.123 34.6637 375.343 34.8427 375.652C35.0055 375.961 35.152 376.181 35.2822 376.311C35.6403 376.686 36.0553 376.987 36.5273 377.215C36.8379 377.376 37.1737 377.512 37.5347 377.623L37.9189 378.069C37.9514 378.085 37.9759 378.094 37.9922 378.094C38.0247 378.094 38.0491 378.085 38.0654 378.069C38.0979 378.036 38.1142 378.004 38.1142 377.971C38.1142 377.939 38.0979 377.914 38.0654 377.898L37.9199 377.729C38.4414 377.858 39.0107 377.939 39.6279 377.971H40.1406C40.1906 377.971 40.2406 377.971 40.2905 377.971C40.3222 378.012 40.3536 378.053 40.3848 378.094C40.4173 378.126 40.4499 378.142 40.4824 378.142C40.4987 378.142 40.5231 378.134 40.5557 378.118C40.5882 378.101 40.6045 378.077 40.6045 378.044C40.6045 378.028 40.5963 378.012 40.58 377.995L40.5597 377.964C40.9205 377.952 41.2803 377.925 41.6389 377.881C41.7294 377.988 41.8159 378.091 41.8984 378.191C41.931 378.207 41.9554 378.216 41.9717 378.216C42.0042 378.216 42.0286 378.207 42.0449 378.191C42.0775 378.158 42.0938 378.126 42.0938 378.093C42.0938 378.077 42.0856 378.052 42.0693 378.02C42.0223 377.962 41.9741 377.903 41.9247 377.843C42.2997 377.789 42.6734 377.718 43.0459 377.63C43.7783 377.451 44.3317 377.255 44.706 377.044C44.7947 376.997 44.8798 376.953 44.9615 376.913ZM33.5961 369.461C33.6995 369.517 33.8221 369.611 33.9639 369.743C34.029 369.808 34.1185 369.906 34.2324 370.036L34.4521 370.256C34.5986 370.37 34.9811 370.687 35.5996 371.208C36.0716 371.599 36.446 371.932 36.7227 372.209C36.7715 372.258 37.6992 373.235 39.5059 375.139L39.5058 375.139C40.5005 376.194 41.3068 377.095 41.9247 377.843C41.8295 377.857 41.7343 377.87 41.6389 377.881C40.6069 376.662 39.0658 374.975 37.0156 372.82C36.4297 372.218 35.624 371.493 34.5986 370.647C34.4847 370.549 34.2487 370.33 33.8906 369.988C33.7599 369.872 33.6583 369.776 33.5859 369.702L33.5961 369.461ZM33.6703 367.434C33.6666 367.852 33.6424 368.516 33.5976 369.427L33.5961 369.461C33.5215 369.421 33.4569 369.401 33.4024 369.401H33.3779C33.3454 369.418 33.3291 369.442 33.3291 369.475C33.3291 369.491 33.3372 369.515 33.3535 369.548C33.3535 369.565 33.3698 369.573 33.4024 369.573C33.4349 369.557 33.4512 369.54 33.4512 369.524C33.4512 369.551 33.4961 369.61 33.5859 369.702C33.5774 369.911 33.5732 370.039 33.5732 370.086L33.4895 371.018L33.3779 370.916C33.3617 370.899 33.3454 370.891 33.3291 370.891C33.3129 370.891 33.2966 370.899 33.2803 370.916V370.989C33.3317 371.051 33.3958 371.123 33.4727 371.205L33.4023 371.99C33.3745 372.268 33.35 372.522 33.3288 372.753C33.1936 372.604 33.1123 372.504 33.0849 372.454C33.0686 372.437 33.0524 372.429 33.0361 372.429H32.9872C32.9547 372.445 32.9384 372.47 32.9384 372.502C32.9384 372.518 32.9466 372.535 32.9629 372.551C33.016 372.674 33.1292 372.839 33.3022 373.049C33.2646 373.481 33.2409 373.811 33.2314 374.041C33.2314 374.096 33.2209 374.141 33.2 374.176C33.1466 374.114 33.0972 374.057 33.0519 374.006C33.0902 373.972 33.1093 373.934 33.1093 373.893C33.1093 373.861 33.093 373.82 33.0605 373.771C32.9954 373.674 32.9222 373.625 32.8408 373.625C32.823 373.625 32.8051 373.628 32.7873 373.633C32.8174 373.153 32.8759 372.54 32.9628 371.795C33.0605 370.786 33.1174 370.037 33.1337 369.549C33.1825 368.312 33.207 367.644 33.207 367.547C33.2233 367.351 33.2314 367.181 33.2314 367.034C33.2314 367.011 33.2312 366.988 33.2308 366.966C33.3684 367.115 33.515 367.271 33.6703 367.434ZM33.6791 367.221C34.8018 368.355 36.4185 369.921 38.5293 371.916L38.5293 371.916C41.1985 374.455 42.9319 376.181 43.7295 377.092C43.762 377.109 43.7783 377.133 43.7783 377.165C43.7783 377.198 43.762 377.231 43.7295 377.263C43.7132 377.28 43.6887 377.288 43.6562 377.288C43.6399 377.288 43.6155 377.28 43.583 377.263C41.1253 374.773 39.3919 373.048 38.3828 372.087C36.3557 370.158 34.7849 368.607 33.6703 367.434C33.6707 367.397 33.6709 367.361 33.6709 367.327C33.6739 367.291 33.6767 367.255 33.6791 367.221ZM33.23 366.77C33.2386 366.774 33.2472 366.781 33.2558 366.789C33.3881 366.926 33.5292 367.069 33.6791 367.221C33.6899 367.072 33.6953 366.945 33.6953 366.839C33.6953 366.692 33.6872 366.57 33.6709 366.473C33.6546 366.212 33.5976 366.041 33.5 365.96C33.4511 365.927 33.4104 365.911 33.3779 365.911C33.3128 365.911 33.2558 365.952 33.207 366.033C33.1744 366.082 33.1582 366.13 33.1582 366.179C33.1582 366.207 33.1657 366.235 33.1807 366.263C33.1732 366.267 33.1657 366.272 33.1582 366.277C32.7513 366.537 32.1572 366.847 31.3759 367.205L31.3759 367.204C31.0841 367.336 30.8221 367.458 30.5899 367.569C30.2601 367.255 29.8467 366.856 29.3496 366.374V366.374C28.6334 365.69 28.194 365.267 28.0312 365.104C28.0268 365.1 28.0223 365.096 28.0178 365.093L27.9199 365.121C27.9127 365.131 27.9091 365.142 27.9091 365.153C27.9091 365.17 27.9173 365.194 27.9336 365.227C28.8675 366.341 29.6829 367.156 30.3799 367.672C30.0293 367.844 29.7591 367.99 29.5693 368.107C28.6373 368.666 27.9326 369.39 27.4554 370.277C25.6497 368.384 24.526 367.173 24.0843 366.644C24.0061 366.681 23.9307 366.717 23.8583 366.752C24.0514 367.203 24.5147 367.802 25.248 368.548C25.8517 369.181 26.5486 369.834 27.3388 370.507C27.3167 370.553 27.2953 370.599 27.2744 370.646C27.0807 371.082 26.959 371.495 26.9094 371.886C26.8127 371.771 26.5275 371.52 26.0537 371.135L26.0536 371.136C25.4514 370.648 24.9794 370.257 24.6376 369.964C23.5308 369.02 22.8635 368.223 22.6357 367.572C22.6194 367.555 22.595 367.547 22.5624 367.547C22.5462 367.547 22.5299 367.555 22.5136 367.572C22.4973 367.604 22.4892 367.645 22.4892 367.694C22.4892 367.889 22.6194 368.158 22.8798 368.499C23.1076 368.809 23.5064 369.224 24.0761 369.744C24.4341 370.103 24.9468 370.542 25.6142 371.063C26.314 371.649 26.7209 371.966 26.8349 372.015H26.8593C26.8718 372.015 26.8843 372.01 26.8969 372C26.8881 372.096 26.8837 372.189 26.8837 372.282C26.8837 372.852 27.0546 373.372 27.3964 373.844C27.9153 374.571 28.6907 374.966 29.7226 375.031C30.0674 375.44 30.2848 375.696 30.3749 375.799C30.4563 375.88 30.6272 376.1 30.8876 376.458C31.0829 376.734 31.2538 376.954 31.4003 377.117C31.4166 377.133 31.4329 377.142 31.4492 377.142C31.4817 377.142 31.5061 377.133 31.5224 377.117C31.5387 377.101 31.5468 377.076 31.5468 377.044V376.995C31.2317 376.364 30.7365 375.713 30.0613 375.04C30.5807 375.03 31.4889 374.731 32.7858 374.145C32.8141 374.212 32.8752 374.25 32.9691 374.259C33.0529 374.368 33.1485 374.49 33.2558 374.627C33.5206 374.947 33.7675 375.154 33.9965 375.248L34.0048 375.233C34.0085 375.241 34.0129 375.249 34.0178 375.257C34.0489 375.268 34.0798 375.278 34.1103 375.286H34.1347C34.1835 375.286 34.2161 375.27 34.2324 375.237C34.2487 375.221 34.2568 375.205 34.2568 375.188C34.2568 375.156 34.2405 375.131 34.208 375.115L34.1107 375.035C34.0915 375.055 34.0751 375.082 34.0616 375.116C34.0456 375.155 34.0267 375.194 34.0048 375.233C33.9938 375.21 33.9882 375.187 33.9882 375.164C33.9882 375.118 34.0169 375.065 34.0741 375.005C33.7119 374.706 33.4798 374.499 33.3779 374.382L33.3779 374.382C33.3143 374.308 33.255 374.239 33.2 374.176C33.1655 374.232 33.1028 374.261 33.0117 374.261C32.9968 374.261 32.9826 374.26 32.9691 374.259C32.929 374.207 32.8916 374.158 32.8569 374.113L32.9628 374.064C32.9994 374.046 33.0291 374.027 33.0519 374.006C32.935 373.873 32.8452 373.774 32.7827 373.709L32.7873 373.633C32.7726 373.637 32.7579 373.642 32.7431 373.65L32.7296 373.656C32.7148 373.642 32.7031 373.632 32.6943 373.625C32.678 373.609 32.6617 373.6 32.6454 373.6C32.6292 373.6 32.6129 373.609 32.5966 373.625C32.5803 373.642 32.5722 373.666 32.5722 373.699V373.723L32.5754 373.728C31.6707 374.151 31.1569 374.385 31.0341 374.431C30.7086 374.529 30.3831 374.577 30.0576 374.577C29.8798 374.577 29.7019 374.565 29.5241 374.539C29.51 374.532 29.4925 374.528 29.4716 374.528C29.4688 374.528 29.4659 374.529 29.4631 374.529C29.4171 374.522 29.3711 374.513 29.3252 374.504C28.8043 374.406 28.3567 374.187 27.9824 373.845C27.6243 373.503 27.429 373.015 27.3964 372.38V372.185C27.3964 371.69 27.5063 371.209 27.7259 370.741C27.7409 370.737 27.7531 370.73 27.7626 370.72C27.7789 370.704 27.7871 370.68 27.7871 370.647C27.7871 370.642 27.7852 370.635 27.7814 370.627C28.0169 370.165 28.3606 369.716 28.8125 369.28C29.2519 368.84 30.3587 368.197 32.1328 367.351C32.4959 367.176 32.8302 367 33.1355 366.825C33.1343 366.829 33.1337 366.834 33.1337 366.838C33.1337 366.854 33.1419 366.871 33.1582 366.887L33.2308 366.966C33.2295 366.896 33.2261 366.833 33.2207 366.776L33.23 366.77ZM33.2198 366.766C33.2156 366.765 33.2113 366.765 33.207 366.765C33.1908 366.765 33.1745 366.773 33.1582 366.789C33.1463 366.801 33.1387 366.813 33.1355 366.825C33.1642 366.809 33.1926 366.792 33.2207 366.776L33.2198 366.766ZM33.2198 366.766C33.2232 366.767 33.2266 366.769 33.23 366.77C33.2886 366.736 33.346 366.702 33.4023 366.667C33.4674 366.619 33.5 366.562 33.5 366.497C33.5 366.448 33.4837 366.399 33.4511 366.35C33.4186 366.269 33.3698 366.228 33.3046 366.228C33.2633 366.228 33.222 366.24 33.1807 366.263C33.1878 366.276 33.1965 366.289 33.207 366.303V366.668C33.212 366.698 33.2163 366.731 33.2198 366.766ZM27.7814 370.627C27.774 370.613 27.7597 370.595 27.7383 370.574L27.4554 370.277C27.4149 370.353 27.376 370.429 27.3388 370.507C27.4221 370.578 27.5064 370.649 27.5917 370.72C27.6243 370.737 27.6568 370.745 27.6894 370.745C27.703 370.745 27.7151 370.744 27.7259 370.741C27.7436 370.703 27.7621 370.665 27.7814 370.627ZM29.4631 374.529C29.4497 374.532 29.4362 374.54 29.4228 374.553C29.4065 374.57 29.3983 374.594 29.3983 374.627C29.3983 374.643 29.4065 374.659 29.4228 374.675L29.7226 375.031C29.8236 375.037 29.9272 375.041 30.0332 375.041L30.0613 375.04C29.8995 374.879 29.7274 374.717 29.5449 374.553H29.5449C29.539 374.547 29.5321 374.542 29.5241 374.539C29.5038 374.536 29.4834 374.532 29.4631 374.529ZM32.769 373.996C32.7722 373.907 32.7768 373.811 32.7827 373.709C32.762 373.688 32.7443 373.67 32.7296 373.656L32.5754 373.728C32.6173 373.791 32.6819 373.88 32.769 373.996ZM32.769 373.996L32.7675 374.041C32.7675 374.081 32.7736 374.116 32.7858 374.145L32.8569 374.113C32.8254 374.071 32.7961 374.032 32.769 373.996ZM26.8969 372C26.9006 371.997 26.9044 371.994 26.9081 371.99C26.9244 371.974 26.9326 371.958 26.9326 371.941V371.917C26.9267 371.908 26.919 371.898 26.9094 371.886C26.9045 371.924 26.9003 371.962 26.8969 372ZM30.3799 367.672C30.436 367.713 30.4913 367.753 30.5459 367.79C30.5621 367.807 30.5784 367.815 30.5947 367.815C30.6272 367.815 30.6516 367.799 30.6679 367.766C30.6842 367.75 30.6924 367.734 30.6924 367.717C30.6924 367.685 30.6842 367.66 30.6679 367.644L30.5899 367.569C30.5169 367.604 30.4469 367.639 30.3799 367.672ZM33.3022 373.049C33.3104 372.955 33.3193 372.856 33.3288 372.753C33.6751 373.135 34.3751 373.841 35.4286 374.871L35.4287 374.87C35.5392 374.981 36.3696 375.934 37.9199 377.729C37.7885 377.697 37.6601 377.661 37.5347 377.623C36.0705 375.924 35.2708 375.015 35.1357 374.895C34.27 374.095 33.6589 373.48 33.3022 373.049ZM33.4727 371.205C34.0043 371.776 35.1446 372.843 36.8936 374.407C38.2463 375.602 39.3786 376.79 40.2905 377.971C40.3803 377.97 40.47 377.967 40.5597 377.964C39.9055 376.977 38.7811 375.775 37.1865 374.358L37.1865 374.358C35.3494 372.705 34.117 371.591 33.4895 371.018L33.4727 371.205ZM44.9615 376.913L44.999 376.945C45.0315 376.962 45.0559 376.97 45.0722 376.97C45.1048 376.97 45.1373 376.954 45.1699 376.921C45.2024 376.889 45.2187 376.865 45.2187 376.848C45.2187 376.829 45.2131 376.813 45.2018 376.799C45.1254 376.834 45.0453 376.872 44.9615 376.913ZM32.9246 376.194C32.8553 376.12 32.7541 376.013 32.6211 375.872L32.621 375.872L32.3036 375.554C32.1734 375.408 32.0757 375.302 32.0106 375.237C31.7177 374.944 31.5224 374.797 31.4247 374.797C31.3922 374.797 31.3678 374.814 31.3515 374.846V374.871C31.3515 374.887 31.3596 374.903 31.3759 374.92H31.4492C31.4492 374.953 31.6689 375.213 32.1083 375.701C32.3793 375.992 32.5885 376.196 32.7357 376.314C32.7889 376.279 32.8403 376.246 32.8897 376.214L32.9246 376.194ZM30.3922 377.95C29.18 375.941 27.7176 374.19 26.0049 372.698L26.0049 372.699C23.5473 370.535 22.1068 369.094 21.6837 368.378C21.7162 368.378 21.7406 368.37 21.7569 368.353C21.7569 368.337 21.7488 368.321 21.7325 368.304C21.6918 368.27 21.6533 368.232 21.6168 368.191C21.5657 368.243 21.515 368.296 21.4648 368.351C22.0443 369.348 23.3786 370.749 25.4678 372.552C27.3404 374.157 28.9087 375.998 30.1728 378.075C30.245 378.035 30.3181 377.994 30.3922 377.95ZM29.1273 378.514C28.2691 377.435 27.2689 376.22 26.1269 374.871L26.127 374.871C25.2481 373.845 24.5482 373.089 24.0274 372.6C23.0508 371.705 22.3591 371.038 21.9522 370.598C21.5615 370.208 21.2523 369.866 21.0244 369.573C20.9207 369.437 20.8423 369.315 20.7894 369.207C20.7575 369.254 20.7258 369.301 20.6943 369.349C20.8103 369.567 21.0017 369.837 21.2685 370.159C21.6754 370.647 22.4078 371.388 23.4658 372.381C24.4659 373.303 26.2688 375.372 28.8743 378.59C28.96 378.566 29.0443 378.541 29.1273 378.514ZM27.8881 378.798C27.9184 378.767 27.9336 378.744 27.9336 378.728C27.9336 378.696 27.9173 378.663 27.8847 378.63C25.6396 376.092 22.9879 373.481 19.9296 370.797C19.9181 370.826 19.907 370.856 19.896 370.886C24.0191 374.96 26.625 377.599 27.7138 378.802C27.7195 378.807 27.7249 378.812 27.7301 378.817C27.774 378.813 27.8174 378.808 27.8604 378.802L27.8881 378.798ZM25.294 378.65C25.1465 378.619 24.9966 378.583 24.8441 378.544C23.6699 377.355 22.714 376.269 21.9765 375.286C21.6673 374.863 21.1871 374.285 20.5361 373.552C20.0522 373.013 19.7268 372.615 19.56 372.358C19.5655 372.299 19.5718 372.241 19.579 372.183C22.8647 375.891 24.7698 378.047 25.294 378.65ZM23.0292 377.938C22.6598 377.416 22.0322 376.687 21.1464 375.75L21.1465 375.75C20.9511 375.538 20.6989 375.286 20.3896 374.993C20.292 374.912 20.1862 374.814 20.0722 374.7C20.0397 374.668 19.999 374.627 19.9502 374.578C19.9339 374.562 19.9257 374.546 19.9257 374.529C19.9583 374.513 19.9746 374.497 19.9746 374.481C19.9746 374.464 19.9583 374.448 19.9257 374.432H19.8281C19.7956 374.432 19.7711 374.448 19.7548 374.481L19.7548 374.487C19.7796 374.573 19.8064 374.658 19.8352 374.742C19.884 374.816 19.9548 374.9 20.0478 374.993C20.1292 375.058 20.2268 375.14 20.3408 375.237C20.4547 375.335 20.5279 375.392 20.5605 375.408C20.8372 375.669 21.2604 376.132 21.83 376.8C21.8951 376.881 22.1067 377.158 22.4648 377.63C22.4908 377.662 22.5165 377.694 22.5418 377.725C22.6988 377.798 22.8612 377.869 23.0292 377.938ZM24.9493 366.237C24.9723 366.267 24.9986 366.296 25.0283 366.326H25.0527C25.2155 366.521 25.6061 366.904 26.2246 367.474C26.778 367.962 27.3151 368.556 27.8359 369.256C27.8684 369.288 27.8929 369.305 27.9092 369.305C27.9254 369.305 27.9417 369.296 27.958 369.28C27.9905 369.264 28.0068 369.239 28.0068 369.207V369.158C27.8115 368.735 27.3558 368.197 26.6396 367.546L26.6396 367.546C26.4606 367.367 26.1839 367.115 25.8096 366.79C25.5113 366.53 25.275 366.323 25.1007 366.167L24.9493 366.237ZM26.2459 365.658C26.3224 365.629 26.4037 365.599 26.4898 365.569C26.5579 365.629 26.6323 365.702 26.7129 365.788C26.8106 365.902 26.9326 366.04 27.0791 366.203L27.2988 366.471C27.6732 366.878 28.0231 367.277 28.3486 367.668L28.3486 367.668C28.7067 368.075 28.902 368.327 28.9345 368.425C28.9508 368.442 28.959 368.458 28.959 368.474C28.959 368.507 28.9427 368.531 28.9102 368.547C28.8939 368.564 28.8776 368.572 28.8613 368.572C28.845 368.572 28.8206 368.556 28.7881 368.523L27.3965 366.912C27.0547 366.521 26.7617 366.204 26.5176 365.96L26.2459 365.658ZM29.3125 364.741L29.46 364.703C29.6888 365.076 30.0345 365.478 30.497 365.91L30.497 365.91C31.2295 366.578 31.5957 366.92 31.5957 366.936C31.612 366.936 31.6201 366.944 31.6201 366.961C31.6201 366.977 31.612 366.993 31.5957 367.01C31.5794 367.042 31.5631 367.058 31.5468 367.058C31.5305 367.058 31.5143 367.05 31.498 367.034C31.1888 366.838 30.7737 366.48 30.2529 365.959C29.7773 365.484 29.4639 365.078 29.3125 364.741ZM30.7075 364.398C30.8529 364.612 31.0106 364.782 31.1806 364.91C32.0758 365.675 32.6129 366.114 32.7919 366.228C32.8082 366.245 32.8245 366.253 32.8408 366.253C32.857 366.253 32.8733 366.245 32.8896 366.228C32.9059 366.212 32.914 366.188 32.914 366.155V366.13C32.8001 365.967 32.5397 365.723 32.1328 365.398L32.1328 365.398C31.612 364.975 31.3434 364.763 31.3271 364.763C31.2458 364.714 31.1481 364.625 31.0342 364.495C30.9881 364.443 30.946 364.397 30.9081 364.357C30.8422 364.37 30.7753 364.384 30.7075 364.398ZM32.2282 364.11C32.2815 364.094 32.3329 364.076 32.3823 364.058C32.8039 364.468 33.5427 365.142 34.5987 366.081C35.5915 366.96 36.3565 367.7 36.8936 368.303C37.2517 368.71 37.9923 369.418 39.1153 370.427L39.1152 370.427C40.0918 371.29 40.8079 372.03 41.2636 372.649C41.2799 372.665 41.2881 372.681 41.2881 372.698C41.2881 372.73 41.2718 372.755 41.2393 372.771C41.2067 372.787 41.1823 372.796 41.166 372.796C41.1335 372.796 41.1091 372.787 41.0928 372.771C40.6045 372.152 39.8395 371.387 38.7979 370.476C38.2119 369.939 37.4795 369.215 36.6006 368.303C36.1937 367.847 35.4531 367.139 34.3789 366.179C33.433 365.342 32.7161 364.652 32.2282 364.11ZM33.1781 363.471C33.3121 363.704 33.5902 364.021 34.0126 364.421C34.2568 364.649 34.9485 365.243 36.0878 366.203C36.7063 366.708 37.5201 367.562 38.5292 368.767C39.5546 369.987 40.3684 370.85 40.9706 371.355C40.9869 371.371 41.0113 371.379 41.0439 371.379C41.0764 371.379 41.109 371.363 41.1415 371.33C41.1578 371.314 41.166 371.29 41.166 371.257C41.166 371.241 41.1497 371.216 41.1172 371.184C40.401 370.549 39.5384 369.629 38.5293 368.425V368.425C37.5853 367.318 36.9179 366.594 36.5273 366.252C36.3157 366.073 35.9821 365.796 35.5263 365.422C35.0869 365.064 34.7532 364.795 34.5254 364.616C33.8578 364.042 33.4421 363.61 33.2783 363.321C33.2463 363.374 33.2129 363.424 33.1781 363.471ZM33.6803 362.235C34.303 362.876 35.3822 363.898 36.918 365.3C37.2598 365.642 38.6514 367.123 41.0928 369.744C41.1253 369.76 41.1497 369.768 41.166 369.768C41.1985 369.768 41.223 369.76 41.2393 369.744C41.2567 369.726 41.2695 369.706 41.2775 369.684L41.2812 369.589C41.2771 369.577 41.2713 369.563 41.2636 369.548C39.4733 367.579 38.1224 366.155 37.2109 365.276L37.211 365.276C37.0645 365.129 36.3646 364.535 35.1114 363.494C34.551 363.019 34.0798 362.574 33.6978 362.157C33.6923 362.183 33.6864 362.209 33.6803 362.235ZM45.5321 374.914C45.4681 374.712 45.4254 374.562 45.404 374.464C45.5004 374.454 45.6014 374.443 45.707 374.431H45.7558C45.8055 374.431 45.8444 374.444 45.8724 374.468C45.8741 374.472 45.876 374.476 45.8779 374.48C45.8939 374.528 45.91 374.568 45.9259 374.601C45.9263 374.607 45.9266 374.613 45.9267 374.62L45.9267 374.626C45.9267 374.789 45.8535 374.879 45.707 374.895L45.5321 374.914ZM46.0308 376.532L46.0488 376.531C46.1953 376.531 46.2685 376.604 46.2685 376.751C46.2685 376.913 46.1953 376.995 46.0488 376.995L46.0262 377.004C46.0087 376.975 46 376.947 46 376.922C46 376.869 46.0162 376.821 46.0488 376.779V376.678C46.0488 376.638 46.0428 376.59 46.0308 376.532ZM41.5082 364.909C41.5029 365.065 41.4966 365.224 41.4894 365.387C41.4957 365.399 41.5018 365.411 41.5078 365.423C41.5241 365.455 41.5485 365.471 41.5811 365.471C41.5973 365.471 41.6218 365.463 41.6543 365.447C41.7031 365.43 41.7275 365.406 41.7275 365.373C41.7275 365.357 41.7194 365.341 41.7031 365.324C41.6588 365.186 41.5939 365.048 41.5082 364.909ZM30.9817 354.602C31.7987 355.523 32.6869 356.387 33.6465 357.195C35.5019 358.725 36.5599 359.612 36.8203 359.856C37.1946 360.214 37.6585 360.751 38.2119 361.467L38.2119 361.467C38.8304 362.248 39.2861 362.785 39.5791 363.078C39.5628 363.078 39.9615 363.42 40.7754 364.104C41.0977 364.372 41.3419 364.641 41.5082 364.909C41.5242 364.446 41.5322 364.015 41.5322 363.616C41.5322 362.721 41.4915 362.005 41.4101 361.468C41.2714 360.646 41.0382 359.88 40.7104 359.17C40.7158 359.172 40.7211 359.173 40.7265 359.173C40.759 359.173 40.7834 359.164 40.7997 359.148C40.816 359.132 40.8242 359.107 40.8242 359.074V359.026C40.7064 358.863 40.5461 358.676 40.3432 358.465C40.2708 358.341 40.1951 358.219 40.1162 358.098C39.4326 357.057 38.5293 356.219 37.4062 355.584C36.8529 355.274 36.2913 355.047 35.7217 354.9C35.4929 354.84 35.0726 354.784 34.4608 354.733L34.3056 354.606C34.2893 354.59 34.2731 354.582 34.2568 354.582C34.2405 354.582 34.2242 354.59 34.2079 354.606C34.1916 354.622 34.1835 354.639 34.1835 354.655C34.1835 354.671 34.1916 354.688 34.2079 354.704L34.2189 354.714C34.0704 354.702 33.9121 354.691 33.7441 354.68C33.397 354.648 33.0842 354.622 32.8056 354.603C32.7226 354.505 32.6449 354.408 32.5723 354.314C32.5561 354.298 32.5398 354.289 32.5235 354.289H32.4991C32.4828 354.306 32.4746 354.33 32.4746 354.363V354.387C32.5145 354.454 32.5567 354.522 32.6011 354.589C32.2668 354.569 31.9886 354.558 31.7666 354.558H31.5713C31.3889 354.563 31.1924 354.578 30.9817 354.602ZM30.9817 354.602C30.9256 354.539 30.8698 354.475 30.8144 354.411L30.79 354.338C30.7737 354.306 30.7493 354.281 30.7167 354.265H30.6679C30.6354 354.265 30.611 354.281 30.5947 354.314V354.362L30.7865 354.626C30.8529 354.617 30.9179 354.609 30.9817 354.602ZM32.6011 354.589C33.0098 355.212 33.6106 355.861 34.4033 356.536C34.5986 356.699 34.9811 357.008 35.5508 357.464C36.0391 357.854 36.4134 358.172 36.6738 358.416C38.4479 360.011 39.9779 361.72 41.2637 363.543C41.28 363.575 41.3044 363.592 41.3369 363.592C41.3532 363.592 41.3776 363.583 41.4102 363.567C41.459 363.551 41.4834 363.526 41.4834 363.493C41.4834 363.461 41.4753 363.437 41.459 363.42C40.694 362.216 39.2454 360.58 37.1133 358.513L37.1134 358.513C36.8692 358.269 36.0798 357.594 34.7452 356.487C33.9276 355.794 33.2811 355.166 32.8056 354.603C32.7352 354.598 32.6671 354.594 32.6011 354.589ZM34.2189 354.714C34.3026 354.72 34.3832 354.726 34.4608 354.733C36.3907 356.308 37.6411 357.397 38.2118 358L38.2119 358C40.0348 359.921 41.0439 360.954 41.2392 361.101C41.2718 361.133 41.2881 361.166 41.2881 361.199C41.2881 361.215 41.2799 361.231 41.2636 361.247C41.2311 361.296 41.1985 361.321 41.166 361.321C41.1497 361.321 41.1334 361.313 41.1171 361.296C41.0357 361.231 40.0104 360.181 38.041 358.147C37.4561 357.546 36.1821 356.401 34.2189 354.714ZM40.3432 358.465C39.9575 358.064 39.4179 357.575 38.7246 356.999L38.7245 357C37.927 356.332 37.1783 355.738 36.4784 355.217C36.4622 355.201 36.4459 355.193 36.4296 355.193C36.4134 355.193 36.3971 355.209 36.3808 355.241V355.339C36.4622 355.404 37.1946 356.015 38.5781 357.17C39.0012 357.512 39.7011 358.171 40.6777 359.148C40.6886 359.159 40.6995 359.166 40.7104 359.17C40.5989 358.929 40.4765 358.694 40.3432 358.465ZM27.6453 355.348C27.6356 355.342 27.6259 355.339 27.6162 355.339H27.5917C27.5676 355.351 27.5524 355.363 27.5462 355.375L27.6453 355.348ZM26.0529 355.818C25.8788 355.68 25.7651 355.602 25.7119 355.584H25.6874C25.6549 355.584 25.6305 355.6 25.6142 355.633V355.658C25.6142 355.69 25.6304 355.714 25.663 355.731C25.6753 355.731 25.7385 355.782 25.8528 355.884C25.9182 355.862 25.985 355.84 26.0529 355.818ZM23.374 356.941C23.3538 356.928 23.3437 356.915 23.3437 356.902C23.3437 356.886 23.3519 356.87 23.3682 356.853C23.3845 356.837 23.4089 356.829 23.4414 356.829H23.4902C23.5023 356.835 23.5178 356.842 23.5366 356.85C23.4816 356.88 23.4274 356.91 23.374 356.941ZM30.3492 356.587C30.3093 356.586 30.269 356.585 30.2285 356.585H30.1956C30.0509 356.478 29.8503 356.266 29.5937 355.949C29.5286 355.868 29.3252 355.624 28.9834 355.217C28.9671 355.184 28.9589 355.16 28.9589 355.144C28.9589 355.127 28.9671 355.111 28.9834 355.095C28.9997 355.062 29.0159 355.046 29.0322 355.046C29.0647 355.046 29.0892 355.062 29.1054 355.095C29.2194 355.192 29.4309 355.42 29.7402 355.778C29.8053 355.86 29.9111 355.974 30.0576 356.12L30.0576 356.12C30.1878 356.267 30.2854 356.381 30.3505 356.462C30.3668 356.479 30.375 356.495 30.375 356.511C30.375 356.528 30.3668 356.552 30.3505 356.584L30.3492 356.587ZM33.2772 366.372L33.2802 366.374L33.2802 366.375L33.2772 366.372ZM24.6376 362.151C25.1422 362.656 25.4107 362.94 25.4433 363.005V363.054C25.4433 363.071 25.4351 363.087 25.4188 363.103C25.4025 363.12 25.3863 363.128 25.37 363.128H25.3456C25.2479 363.079 24.9224 362.77 24.369 362.2C23.8807 361.712 23.4738 361.281 23.1483 360.906C22.2043 359.832 21.659 359.059 21.5126 358.587C21.5126 358.554 21.5288 358.53 21.5614 358.514C21.5939 358.514 21.6184 358.522 21.6346 358.538C22.3671 359.613 22.9937 360.435 23.5145 361.004C23.84 361.346 24.2144 361.729 24.6376 362.152L24.6376 362.151Z" fill="#999999"/>
</g>
</g>
<g id="layer1">
<g id="text8122">
<path id="path8149" d="M39.1252 138.349L38.0998 142.571C38.0656 142.71 38.0351 142.82 38.0082 142.901C37.9838 142.981 37.9448 143.044 37.891 143.088C37.8398 143.134 37.7641 143.157 37.664 143.157C37.415 143.157 37.2904 143.05 37.2904 142.835C37.2904 142.779 37.3149 142.638 37.3637 142.414L38.3854 138.191C38.4391 137.967 38.4904 137.813 38.5392 137.73C38.5881 137.647 38.6833 137.605 38.8249 137.605C38.9469 137.605 39.0397 137.635 39.1032 137.693C39.1691 137.752 39.2021 137.833 39.2021 137.935C39.2021 138.011 39.1764 138.149 39.1252 138.349L39.1252 138.349Z" fill="black"/>
<path id="path8151" d="M40.9744 142.201H42.886C43.0764 142.201 43.2217 142.24 43.3218 142.319C43.4219 142.397 43.4719 142.503 43.4719 142.637C43.4719 142.757 43.4317 142.858 43.3511 142.941C43.273 143.024 43.1533 143.066 42.9922 143.066H40.2969C40.1138 143.066 39.971 143.016 39.8684 142.916C39.7659 142.813 39.7146 142.693 39.7146 142.557C39.7146 142.469 39.7476 142.353 39.8135 142.209C39.8794 142.062 39.9514 141.948 40.0296 141.865C40.3543 141.528 40.6472 141.24 40.9085 141C41.1697 140.759 41.3565 140.6 41.4688 140.524C41.669 140.383 41.835 140.241 41.9668 140.099C42.1011 139.955 42.2024 139.809 42.2708 139.66C42.3416 139.509 42.377 139.361 42.377 139.217C42.377 139.061 42.3391 138.921 42.2634 138.799C42.1902 138.675 42.0889 138.578 41.9595 138.51C41.8325 138.442 41.6934 138.407 41.542 138.407C41.2222 138.407 40.9707 138.548 40.7876 138.829C40.7632 138.865 40.7217 138.965 40.6631 139.129C40.607 139.292 40.5423 139.418 40.469 139.506C40.3982 139.594 40.2932 139.638 40.1541 139.638C40.032 139.638 39.9307 139.598 39.8501 139.517C39.7695 139.437 39.7293 139.327 39.7293 139.187C39.7293 139.019 39.7671 138.843 39.8428 138.66C39.9185 138.477 40.0308 138.311 40.1797 138.162C40.3311 138.013 40.5215 137.894 40.751 137.803C40.9829 137.71 41.2539 137.664 41.564 137.664C41.9375 137.664 42.2561 137.723 42.5198 137.84C42.6907 137.918 42.8408 138.025 42.9702 138.162C43.0996 138.299 43.1997 138.458 43.2705 138.638C43.3438 138.816 43.3804 139.002 43.3804 139.195C43.3804 139.498 43.3047 139.773 43.1533 140.022C43.0044 140.269 42.8518 140.463 42.6956 140.605C42.5393 140.744 42.2769 140.964 41.9082 141.264C41.542 141.564 41.2905 141.797 41.1538 141.963C41.0952 142.029 41.0354 142.109 40.9744 142.201L40.9744 142.201Z" fill="black"/>
</g>
<g id="text8126">
<path id="path8154" d="M39.05 177.794L38.0246 182.016C37.9904 182.155 37.9599 182.265 37.933 182.346C37.9086 182.426 37.8695 182.489 37.8158 182.532C37.7646 182.579 37.6889 182.602 37.5888 182.602C37.3397 182.602 37.2152 182.495 37.2152 182.28C37.2152 182.224 37.2396 182.083 37.2885 181.859L38.3102 177.636C38.3639 177.412 38.4152 177.258 38.464 177.175C38.5128 177.092 38.6081 177.05 38.7497 177.05C38.8718 177.05 38.9645 177.08 39.028 177.138C39.0939 177.197 39.1269 177.277 39.1269 177.38C39.1269 177.456 39.1013 177.593 39.05 177.794L39.05 177.794Z" fill="black"/>
<path id="path8156" fill-rule="evenodd" clip-rule="evenodd" d="M41.8516 181.364V182.046L41.8514 182.046C41.8514 182.229 41.8929 182.368 41.976 182.463C42.0614 182.556 42.1725 182.602 42.3092 182.602C42.4484 182.602 42.5594 182.557 42.6424 182.467C42.7255 182.374 42.767 182.234 42.767 182.046V181.364H42.9904C43.1759 181.364 43.3151 181.333 43.4078 181.269C43.5006 181.203 43.547 181.1 43.547 180.958C43.547 180.785 43.4896 180.672 43.3749 180.621C43.2626 180.57 43.1124 180.544 42.9244 180.544H42.767V177.71C42.767 177.285 42.5814 177.073 42.2103 177.073C42.0956 177.073 41.9967 177.112 41.9137 177.19C41.8331 177.265 41.7293 177.389 41.6024 177.56L39.6615 180.156C39.6078 180.227 39.5626 180.287 39.526 180.335C39.4894 180.384 39.454 180.436 39.4198 180.489C39.3855 180.541 39.3599 180.591 39.3429 180.639C39.3259 180.686 39.3174 180.732 39.3174 180.779C39.3174 180.959 39.3748 181.102 39.4895 181.207C39.6067 181.312 39.7813 181.364 40.0132 181.364H41.8516ZM41.8516 180.544H40.2769L41.8516 178.416V180.544Z" fill="black"/>
</g>
<g id="text8130">
<path id="path8159" d="M39.1452 217.239L38.1198 221.461C38.0856 221.6 38.0551 221.71 38.0282 221.791C38.0038 221.871 37.9648 221.934 37.9111 221.978C37.8598 222.024 37.7841 222.047 37.684 222.047C37.435 222.047 37.3105 221.94 37.3105 221.725C37.3105 221.669 37.3349 221.528 37.3837 221.304L38.4054 217.081C38.4592 216.857 38.5104 216.703 38.5593 216.62C38.6081 216.537 38.7033 216.495 38.8449 216.495C38.967 216.495 39.0597 216.525 39.1232 216.583C39.1891 216.642 39.2221 216.722 39.2221 216.825C39.2221 216.901 39.1965 217.039 39.1452 217.239L39.1452 217.239Z" fill="black"/>
<path id="path8161" fill-rule="evenodd" clip-rule="evenodd" d="M39.8228 217.949C39.8228 217.705 39.8887 217.476 40.0205 217.261C40.1548 217.043 40.3501 216.87 40.6064 216.741C40.8652 216.611 41.1667 216.547 41.511 216.547C41.8015 216.547 42.0566 216.584 42.2764 216.66C42.4961 216.736 42.6792 216.841 42.8257 216.975C42.9722 217.107 43.0808 217.257 43.1516 217.426C43.2224 217.592 43.2578 217.769 43.2578 217.957C43.2578 218.196 43.1956 218.409 43.0711 218.597C42.949 218.785 42.7659 218.939 42.5217 219.059C42.7293 219.139 42.9014 219.246 43.0381 219.377C43.1748 219.507 43.2774 219.658 43.3457 219.832C43.4165 220.002 43.4519 220.193 43.4519 220.403C43.4519 220.71 43.3774 220.99 43.2285 221.241C43.0796 221.49 42.8611 221.686 42.573 221.827C42.2849 221.969 41.9456 222.04 41.5549 222.04C41.1497 222.04 40.803 221.969 40.5149 221.827C40.2268 221.686 40.0095 221.492 39.863 221.245C39.7166 220.996 39.6433 220.718 39.6433 220.41C39.6433 219.753 39.9534 219.303 40.5735 219.059C40.073 218.824 39.8228 218.455 39.8228 217.949V217.949ZM42.4485 220.374C42.4485 220.183 42.4094 220.017 42.3313 219.875C42.2532 219.734 42.1433 219.625 42.0017 219.55C41.8601 219.474 41.7014 219.436 41.5256 219.436C41.2766 219.436 41.0679 219.519 40.8994 219.685C40.731 219.851 40.6467 220.083 40.6467 220.381C40.6467 220.571 40.6858 220.74 40.7639 220.886C40.8445 221.03 40.9531 221.143 41.0898 221.223C41.2266 221.301 41.3791 221.34 41.5476 221.34C41.7185 221.34 41.8723 221.3 42.009 221.219C42.1457 221.139 42.2532 221.025 42.3313 220.879C42.4094 220.732 42.4485 220.564 42.4485 220.374L42.4485 220.374ZM40.9763 217.462C41.1179 217.318 41.3035 217.246 41.533 217.246L41.533 217.246C41.6843 217.246 41.8186 217.279 41.9358 217.345C42.053 217.411 42.1433 217.501 42.2068 217.616C42.2727 217.731 42.3056 217.86 42.3056 218.004C42.3056 218.112 42.2873 218.211 42.2507 218.301C42.2141 218.389 42.1616 218.466 42.0933 218.532C42.0274 218.595 41.9468 218.645 41.8516 218.682C41.7588 218.718 41.6551 218.737 41.5403 218.737C41.3132 218.737 41.1277 218.668 40.9837 218.532C40.8396 218.392 40.7676 218.219 40.7676 218.011C40.7676 217.787 40.8372 217.604 40.9763 217.462Z" fill="black"/>
</g>
<g id="text8134">
<path id="path8164" d="M36.8949 256.684L35.8695 260.906C35.8354 261.045 35.8048 261.155 35.778 261.236C35.7535 261.316 35.7145 261.379 35.6608 261.423C35.6095 261.469 35.5339 261.492 35.4337 261.492C35.1847 261.492 35.0602 261.385 35.0602 261.17C35.0602 261.114 35.0846 260.973 35.1334 260.749L36.1552 256.526C36.2089 256.302 36.2602 256.148 36.309 256.065C36.3578 255.982 36.453 255.94 36.5946 255.94C36.7167 255.94 36.8095 255.97 36.873 256.028C36.9389 256.087 36.9719 256.167 36.9719 256.27C36.9719 256.346 36.9462 256.484 36.895 256.684L36.8949 256.684Z" fill="black"/>
<path id="path8166" d="M39.1873 260.899V257.566C38.5672 258.042 38.1497 258.281 37.9349 258.281C37.8323 258.281 37.7408 258.24 37.6602 258.16C37.5821 258.077 37.543 257.981 37.543 257.874C37.543 257.749 37.5821 257.658 37.6602 257.599C37.7383 257.541 37.8762 257.465 38.074 257.372C38.3694 257.233 38.605 257.087 38.7808 256.933C38.959 256.779 39.1165 256.607 39.2532 256.416C39.3899 256.226 39.479 256.109 39.5206 256.065C39.5621 256.021 39.6402 255.999 39.7549 255.999C39.8843 255.999 39.9881 256.049 40.0662 256.149C40.1443 256.249 40.1834 256.387 40.1834 256.563V260.756C40.1834 261.247 40.0162 261.492 39.6817 261.492C39.5328 261.492 39.4131 261.442 39.3228 261.342C39.2325 261.242 39.1873 261.094 39.1873 260.899L39.1873 260.899Z" fill="black"/>
<path id="path8168" fill-rule="evenodd" clip-rule="evenodd" d="M42.8826 258.497C43.0486 258.299 43.2293 258.152 43.4246 258.057C43.6199 257.962 43.8384 257.914 44.0801 257.914C44.312 257.914 44.5257 257.958 44.721 258.046C44.9187 258.132 45.0908 258.255 45.2373 258.416C45.3862 258.575 45.501 258.763 45.5815 258.98C45.6621 259.197 45.7024 259.424 45.7024 259.661C45.7024 260.005 45.6231 260.318 45.4644 260.599C45.3081 260.879 45.0884 261.099 44.8052 261.258C44.5244 261.414 44.2058 261.492 43.8494 261.492C43.4392 261.492 43.0852 261.392 42.7874 261.192C42.4895 260.992 42.2612 260.696 42.1026 260.306C41.9463 259.913 41.8682 259.433 41.8682 258.866C41.8682 258.405 41.9158 257.992 42.011 257.629C42.1062 257.265 42.2429 256.963 42.4212 256.724C42.5994 256.485 42.8154 256.304 43.0693 256.182C43.3233 256.06 43.6126 255.999 43.9373 255.999C44.2498 255.999 44.5244 256.06 44.7612 256.182C45.0005 256.304 45.1799 256.456 45.2996 256.636C45.4216 256.817 45.4827 256.99 45.4827 257.156C45.4827 257.256 45.4448 257.348 45.3692 257.431C45.2935 257.512 45.197 257.552 45.0798 257.552C44.9773 257.552 44.8821 257.52 44.7942 257.457C44.7063 257.391 44.6416 257.3 44.6001 257.186C44.544 257.039 44.4549 256.922 44.3328 256.834C44.2107 256.744 44.0691 256.699 43.908 256.699C43.7786 256.699 43.6492 256.736 43.5198 256.812C43.3928 256.885 43.2854 256.985 43.1975 257.112C43.0193 257.371 42.9143 257.833 42.8826 258.497ZM44.4829 260.47C44.3218 260.671 44.1179 260.771 43.8713 260.771V260.771C43.6126 260.771 43.3977 260.661 43.2268 260.441C43.0559 260.221 42.9705 259.947 42.9705 259.617C42.9705 259.412 43.012 259.234 43.095 259.083C43.1804 258.929 43.2915 258.812 43.4282 258.731C43.5674 258.65 43.7126 258.61 43.864 258.61C44.0227 258.61 44.168 258.653 44.2998 258.738C44.4316 258.821 44.5354 258.943 44.6111 259.104C44.6868 259.263 44.7246 259.454 44.7246 259.676C44.7246 260.003 44.644 260.268 44.4829 260.47Z" fill="black"/>
</g>
<g id="text5329">
<path id="path5339" d="M36.8986 296.129L35.8732 300.351C35.839 300.491 35.8085 300.6 35.7816 300.681C35.7572 300.762 35.7182 300.824 35.6645 300.868C35.6132 300.914 35.5375 300.937 35.4374 300.937C35.1884 300.937 35.0639 300.83 35.0639 300.615C35.0639 300.559 35.0883 300.418 35.1371 300.194L36.1588 295.972C36.2126 295.747 36.2638 295.593 36.3127 295.51C36.3615 295.427 36.4567 295.386 36.5983 295.386C36.7204 295.386 36.8132 295.415 36.8766 295.474C36.9426 295.532 36.9755 295.613 36.9755 295.715C36.9755 295.791 36.9499 295.929 36.8986 296.129H36.8986Z" fill="black"/>
<path id="path5341" d="M39.1287 297.605C39.3533 297.605 39.5462 297.539 39.7073 297.407C39.8709 297.275 39.9527 297.086 39.9527 296.84C39.9527 296.652 39.888 296.49 39.7586 296.356C39.6292 296.219 39.4547 296.151 39.2349 296.151C39.086 296.151 38.9627 296.172 38.8651 296.213C38.7698 296.255 38.6942 296.31 38.638 296.378C38.5819 296.446 38.5281 296.534 38.4769 296.642C38.428 296.749 38.3829 296.851 38.3414 296.946C38.3169 296.997 38.273 297.037 38.2095 297.067C38.146 297.096 38.0728 297.111 37.9898 297.111C37.8921 297.111 37.8018 297.071 37.7188 296.993C37.6382 296.913 37.5979 296.807 37.5979 296.675C37.5979 296.548 37.6358 296.415 37.7115 296.276C37.7896 296.134 37.9019 296 38.0484 295.873C38.1973 295.746 38.3816 295.645 38.6013 295.569C38.8211 295.491 39.0664 295.451 39.3374 295.451C39.5742 295.451 39.7903 295.484 39.9856 295.55C40.1809 295.614 40.3506 295.707 40.4947 295.829C40.6387 295.951 40.7473 296.093 40.8206 296.254C40.8938 296.415 40.9304 296.588 40.9304 296.774C40.9304 297.018 40.8767 297.228 40.7693 297.403C40.6643 297.577 40.513 297.747 40.3152 297.912C40.5056 298.015 40.6655 298.132 40.7949 298.264C40.9268 298.396 41.0256 298.542 41.0916 298.703C41.1575 298.862 41.1904 299.034 41.1904 299.22C41.1904 299.442 41.1453 299.657 41.0549 299.864C40.967 300.072 40.8364 300.258 40.6631 300.421C40.4898 300.582 40.2835 300.709 40.0442 300.802C39.8074 300.892 39.5449 300.937 39.2568 300.937C38.9639 300.937 38.7014 300.885 38.4695 300.78C38.2375 300.675 38.0459 300.544 37.8945 300.388C37.7456 300.229 37.6321 300.066 37.554 299.897C37.4783 299.729 37.4404 299.59 37.4404 299.48C37.4404 299.338 37.4856 299.225 37.5759 299.139C37.6687 299.051 37.7834 299.007 37.9202 299.007C37.9885 299.007 38.0544 299.028 38.1179 299.07C38.1814 299.109 38.2229 299.156 38.2424 299.213C38.3694 299.552 38.5049 299.805 38.6489 299.971C38.7954 300.134 39.0005 300.216 39.2642 300.216C39.4155 300.216 39.5608 300.179 39.6999 300.106C39.8415 300.03 39.9575 299.919 40.0479 299.773C40.1406 299.627 40.187 299.457 40.187 299.264C40.187 298.978 40.1089 298.755 39.9526 298.594C39.7964 298.43 39.5791 298.349 39.3008 298.349C39.2519 298.349 39.1762 298.353 39.0737 298.363C38.9712 298.372 38.9052 298.377 38.876 298.377C38.7417 298.377 38.6379 298.344 38.5647 298.278C38.4914 298.21 38.4548 298.116 38.4548 297.996C38.4548 297.879 38.4987 297.785 38.5866 297.714C38.6745 297.641 38.8052 297.604 38.9785 297.604H39.1286L39.1287 297.605Z" fill="black"/>
<path id="path5343" d="M43.2012 299.982H45.1128C45.3033 299.982 45.4485 300.021 45.5486 300.099C45.6487 300.177 45.6987 300.283 45.6987 300.417C45.6987 300.537 45.6585 300.638 45.5779 300.721C45.4998 300.804 45.3801 300.846 45.219 300.846H42.5237C42.3406 300.846 42.1978 300.796 42.0952 300.696C41.9927 300.593 41.9414 300.473 41.9414 300.337C41.9414 300.249 41.9744 300.133 42.0403 299.989C42.1062 299.842 42.1783 299.728 42.2564 299.645C42.5811 299.308 42.874 299.02 43.1353 298.78C43.3965 298.539 43.5833 298.38 43.6956 298.304C43.8958 298.163 44.0618 298.021 44.1936 297.88C44.3279 297.735 44.4292 297.589 44.4976 297.44C44.5684 297.289 44.6038 297.141 44.6038 296.997C44.6038 296.841 44.5659 296.702 44.4902 296.579C44.417 296.455 44.3157 296.358 44.1863 296.29C44.0593 296.222 43.9202 296.188 43.7688 296.188C43.449 296.188 43.1975 296.328 43.0144 296.609C42.99 296.645 42.9485 296.746 42.8899 296.909C42.8338 297.073 42.7691 297.198 42.6958 297.286C42.625 297.374 42.52 297.418 42.3809 297.418C42.2588 297.418 42.1575 297.378 42.0769 297.297C41.9964 297.217 41.9561 297.107 41.9561 296.968C41.9561 296.799 41.9939 296.624 42.0696 296.441C42.1453 296.257 42.2576 296.091 42.4065 295.942C42.5579 295.793 42.7483 295.674 42.9778 295.584C43.2097 295.491 43.4807 295.444 43.7908 295.444C44.1643 295.444 44.4829 295.503 44.7466 295.62C44.9175 295.698 45.0676 295.806 45.197 295.942C45.3264 296.079 45.4265 296.238 45.4973 296.418C45.5706 296.596 45.6072 296.782 45.6072 296.975C45.6072 297.278 45.5315 297.553 45.3801 297.803C45.2312 298.049 45.0786 298.243 44.9224 298.385C44.7661 298.524 44.5037 298.744 44.135 299.044C43.7688 299.344 43.5173 299.577 43.3806 299.743C43.322 299.809 43.2622 299.889 43.2012 299.982L43.2012 299.982Z" fill="black"/>
</g>
</g>
<g id="layer8">
<g id="text5361">
<path id="path5381" d="M13.5885 58.538V55.0132C13.5885 54.8301 13.6302 54.6927 13.7136 54.6012C13.797 54.5096 13.9049 54.4639 14.0371 54.4639C14.1734 54.4639 14.2833 54.5096 14.3667 54.6012C14.4521 54.6907 14.4949 54.8281 14.4949 55.0132V58.538C14.4949 58.7231 14.4521 58.8615 14.3667 58.953C14.2833 59.0446 14.1734 59.0903 14.0371 59.0903C13.9069 59.0903 13.7991 59.0446 13.7136 58.953C13.6302 58.8594 13.5885 58.7211 13.5885 58.538Z" fill="black"/>
<path id="path5383" d="M16.6859 55.0071L18.4285 57.6438V54.9826C18.4285 54.8097 18.4651 54.6805 18.5383 54.5951C18.6136 54.5076 18.7143 54.4639 18.8405 54.4639C18.9707 54.4639 19.0734 54.5076 19.1487 54.5951C19.224 54.6805 19.2616 54.8097 19.2616 54.9826V58.5013C19.2616 58.894 19.0988 59.0903 18.7733 59.0903C18.6919 59.0903 18.6187 59.0781 18.5536 59.0537C18.4885 59.0313 18.4274 58.9946 18.3705 58.9438C18.3135 58.893 18.2606 58.834 18.2118 58.7668C18.163 58.6977 18.1141 58.6275 18.0653 58.5563L16.3655 55.9501V58.5715C16.3655 58.7424 16.3258 58.8716 16.2465 58.9591C16.1671 59.0466 16.0654 59.0903 15.9413 59.0903C15.8131 59.0903 15.7104 59.0466 15.6331 58.9591C15.5557 58.8696 15.5171 58.7404 15.5171 58.5715V55.12C15.5171 54.9735 15.5334 54.8586 15.5659 54.7752C15.6046 54.6836 15.6687 54.6093 15.7582 54.5524C15.8477 54.4934 15.9443 54.4639 16.0481 54.4639C16.1295 54.4639 16.1986 54.4771 16.2556 54.5036C16.3146 54.53 16.3655 54.5656 16.4082 54.6104C16.453 54.6551 16.4977 54.7131 16.5425 54.7843C16.5893 54.8555 16.6371 54.9297 16.6859 55.0071H16.6859Z" fill="black"/>
</g>
<g id="text5385">
<path id="path5390" fill-rule="evenodd" clip-rule="evenodd" d="M7.13537 100.505H7.45276L7.45275 100.505C7.61348 100.505 7.74674 100.527 7.85253 100.569C7.95833 100.612 8.06209 100.691 8.16381 100.807C8.26758 100.923 8.38456 101.092 8.51477 101.314L8.87793 101.918C8.96338 102.061 9.03052 102.169 9.07935 102.242C9.13021 102.315 9.19023 102.375 9.2594 102.422C9.32857 102.471 9.41402 102.495 9.51575 102.495C9.6012 102.495 9.67647 102.478 9.74158 102.443C9.80668 102.411 9.85755 102.366 9.89417 102.309C9.93282 102.25 9.95215 102.191 9.95215 102.132C9.95215 102.075 9.9196 101.971 9.85449 101.821C9.79142 101.668 9.70191 101.498 9.58594 101.311C9.47201 101.122 9.3418 100.944 9.19531 100.777C9.04883 100.61 8.89522 100.484 8.7345 100.399C9.11698 100.315 9.40182 100.174 9.58899 99.9744C9.7782 99.775 9.87281 99.5085 9.87281 99.1749C9.87281 99.0121 9.84432 98.8585 9.78735 98.714C9.73242 98.5676 9.65104 98.4394 9.54321 98.3295C9.43538 98.2197 9.31128 98.1352 9.1709 98.0762C9.05493 98.0233 8.92473 97.9888 8.78027 97.9725C8.63582 97.954 8.46187 97.9448 8.25842 97.9448H6.78442C6.58911 97.9448 6.44771 97.9886 6.36023 98.076C6.27275 98.1635 6.229 98.3049 6.229 98.5002V101.943C6.229 102.124 6.26868 102.261 6.34802 102.355C6.42737 102.448 6.53927 102.495 6.68372 102.495C6.81799 102.495 6.92684 102.45 7.01025 102.361C7.09367 102.271 7.13537 102.132 7.13537 101.943V100.505ZM7.13537 98.6253H7.97155L7.97156 98.6253C8.28284 98.6253 8.49137 98.6477 8.59717 98.6925C8.70907 98.7393 8.79655 98.8105 8.85962 98.9061C8.92269 98.9997 8.95422 99.1085 8.95422 99.2327C8.95422 99.3913 8.91455 99.5165 8.8352 99.608C8.75789 99.6975 8.64498 99.7616 8.49646 99.8003C8.34794 99.8369 8.16483 99.8552 7.94714 99.8552H7.13537V98.6253Z" fill="black"/>
<path id="path5392" d="M13.6753 98.6437H11.6337V99.7423H13.5136C13.6519 99.7423 13.7547 99.7738 13.8218 99.8369C13.891 99.898 13.9256 99.9793 13.9256 100.081C13.9256 100.183 13.892 100.266 13.8249 100.331C13.7577 100.394 13.654 100.426 13.5136 100.426H11.6337V101.698H13.7455C13.8879 101.698 13.9948 101.732 14.066 101.799C14.1392 101.864 14.1758 101.952 14.1758 102.062C14.1758 102.167 14.1392 102.254 14.066 102.321C13.9948 102.386 13.8879 102.419 13.7455 102.419H11.2828C11.0854 102.419 10.943 102.375 10.8555 102.287C10.7701 102.2 10.7273 102.059 10.7273 101.863V98.5002C10.7273 98.37 10.7467 98.2642 10.7853 98.1829C10.824 98.0995 10.884 98.0394 10.9654 98.0028C11.0488 97.9641 11.1546 97.9448 11.2828 97.9448H13.6753C13.8198 97.9448 13.9266 97.9774 13.9958 98.0425C14.067 98.1055 14.1026 98.189 14.1026 98.2927C14.1026 98.3985 14.067 98.484 13.9958 98.5491C13.9266 98.6121 13.8198 98.6437 13.6753 98.6437L13.6753 98.6437Z" fill="black"/>
<path id="path5394" d="M18.3019 101.076C18.3019 101.346 18.2317 101.59 18.0913 101.805C17.953 102.021 17.7495 102.19 17.481 102.312C17.2124 102.434 16.894 102.495 16.5258 102.495C16.0843 102.495 15.7201 102.411 15.4332 102.245C15.2298 102.125 15.064 101.965 14.9358 101.766C14.8097 101.564 14.7466 101.369 14.7466 101.18C14.7466 101.07 14.7842 100.976 14.8595 100.899C14.9368 100.819 15.0345 100.78 15.1525 100.78C15.2481 100.78 15.3284 100.81 15.3936 100.871C15.4607 100.932 15.5177 101.023 15.5645 101.143C15.6214 101.285 15.6825 101.404 15.7476 101.5C15.8147 101.596 15.9083 101.675 16.0283 101.738C16.1484 101.799 16.306 101.83 16.5013 101.83C16.7699 101.83 16.9876 101.768 17.1544 101.643C17.3233 101.517 17.4077 101.361 17.4077 101.173C17.4077 101.025 17.3619 100.905 17.2704 100.813C17.1809 100.72 17.0639 100.649 16.9194 100.6C16.777 100.551 16.5858 100.499 16.3457 100.444C16.0242 100.369 15.7547 100.281 15.537 100.182C15.3213 100.08 15.1494 99.9426 15.0212 99.7697C14.8951 99.5947 14.832 99.378 14.832 99.1196C14.832 98.8735 14.8992 98.6548 15.0334 98.4635C15.1677 98.2723 15.362 98.1258 15.6163 98.0241C15.8706 97.9203 16.1697 97.8684 16.5135 97.8684C16.7882 97.8684 17.0252 97.903 17.2246 97.9722C17.426 98.0393 17.5929 98.1298 17.7251 98.2438C17.8573 98.3556 17.954 98.4737 18.015 98.5978C18.076 98.7219 18.1066 98.8429 18.1066 98.9609C18.1066 99.0688 18.0679 99.1664 17.9906 99.2539C17.9153 99.3393 17.8207 99.382 17.7068 99.382C17.603 99.382 17.5237 99.3566 17.4687 99.3058C17.4158 99.2529 17.3579 99.1674 17.2948 99.0494C17.2134 98.8805 17.1158 98.7493 17.0018 98.6557C16.8879 98.5601 16.7048 98.5123 16.4525 98.5123C16.2185 98.5123 16.0293 98.5642 15.8849 98.6679C15.7425 98.7697 15.6713 98.8927 15.6713 99.0372C15.6713 99.1267 15.6957 99.204 15.7445 99.2692C15.7933 99.3343 15.8605 99.3902 15.9459 99.437C16.0314 99.4838 16.1178 99.5204 16.2053 99.5469C16.2928 99.5733 16.4373 99.612 16.6387 99.6628C16.8909 99.7219 17.1188 99.787 17.3223 99.8582C17.5277 99.9294 17.7017 100.016 17.8441 100.118C17.9886 100.219 18.1005 100.348 18.1798 100.505C18.2612 100.66 18.3019 100.85 18.3019 101.076L18.3019 101.076Z" fill="black"/>
<path id="path5396" d="M22.0249 98.6437H19.9833V99.7423H21.8632C22.0016 99.7423 22.1043 99.7738 22.1714 99.8369C22.2406 99.898 22.2752 99.9793 22.2752 100.081C22.2752 100.183 22.2416 100.266 22.1745 100.331C22.1073 100.394 22.0036 100.426 21.8632 100.426H19.9833V101.698H22.0951C22.2376 101.698 22.3444 101.732 22.4156 101.799C22.4888 101.864 22.5254 101.952 22.5254 102.062C22.5254 102.167 22.4888 102.254 22.4156 102.321C22.3444 102.386 22.2376 102.419 22.0951 102.419H19.6324C19.435 102.419 19.2926 102.375 19.2051 102.287C19.1197 102.2 19.077 102.059 19.077 101.863V98.5002C19.077 98.37 19.0963 98.2642 19.1349 98.1829C19.1736 98.0995 19.2336 98.0394 19.315 98.0028C19.3984 97.9641 19.5042 97.9448 19.6324 97.9448H22.025C22.1694 97.9448 22.2762 97.9774 22.3454 98.0425C22.4166 98.1055 22.4522 98.189 22.4522 98.2927C22.4522 98.3985 22.4166 98.484 22.3454 98.5491C22.2762 98.6121 22.1694 98.6437 22.025 98.6437L22.0249 98.6437Z" fill="black"/>
<path id="path5398" d="M26.157 98.6925H25.1682V101.943C25.1682 102.13 25.1265 102.269 25.0431 102.361C24.9597 102.45 24.8518 102.495 24.7196 102.495C24.5853 102.495 24.4755 102.449 24.39 102.358C24.3066 102.266 24.2649 102.128 24.2649 101.943V98.6925H23.2761C23.1215 98.6925 23.0066 98.6589 22.9313 98.5918C22.856 98.5226 22.8184 98.4321 22.8184 98.3202C22.8184 98.2042 22.857 98.1127 22.9343 98.0455C23.0137 97.9784 23.1276 97.9448 23.2761 97.9448H26.157C26.3136 97.9448 26.4296 97.9794 26.5049 98.0486C26.5822 98.1177 26.6208 98.2083 26.6208 98.3202C26.6208 98.4321 26.5822 98.5226 26.5049 98.5918C26.4276 98.6589 26.3116 98.6925 26.157 98.6925L26.157 98.6925Z" fill="black"/>
</g>
<g id="text5400">
<path id="path5409" d="M19.5969 18.2043C19.5969 18.3752 19.5542 18.5608 19.4687 18.761C19.3857 18.9587 19.2539 19.1541 19.0732 19.3469C18.8926 19.5374 18.6619 19.6924 18.3811 19.812C18.1003 19.9316 17.7732 19.9915 17.3997 19.9915C17.1165 19.9915 16.8589 19.9646 16.627 19.9109C16.395 19.8572 16.1838 19.7742 15.9934 19.6619C15.8054 19.5471 15.6321 19.397 15.4734 19.2114C15.3318 19.043 15.2109 18.855 15.1108 18.6475C15.0107 18.4375 14.9351 18.2141 14.8838 17.9773C14.835 17.7405 14.8105 17.489 14.8105 17.2229C14.8105 16.7908 14.8728 16.4038 14.9973 16.062C15.1243 15.7202 15.3049 15.4285 15.5393 15.1868C15.7737 14.9426 16.0483 14.7571 16.3633 14.6301C16.6782 14.5032 17.0139 14.4397 17.3704 14.4397C17.8049 14.4397 18.1919 14.5264 18.5313 14.6997C18.8706 14.873 19.1306 15.0879 19.3113 15.3442C19.4919 15.5981 19.5823 15.8386 19.5823 16.0657C19.5823 16.1902 19.5383 16.3 19.4504 16.3953C19.3625 16.4905 19.2563 16.5381 19.1318 16.5381C18.9927 16.5381 18.8877 16.5051 18.8169 16.4392C18.7485 16.3733 18.6716 16.2598 18.5862 16.0986C18.4446 15.8325 18.2773 15.6335 18.0845 15.5017C17.894 15.3699 17.6584 15.304 17.3777 15.304C16.9309 15.304 16.5745 15.4736 16.3083 15.813C16.0447 16.1523 15.9128 16.6345 15.9128 17.2595C15.9128 17.677 15.9714 18.0249 16.0886 18.3032C16.2058 18.5791 16.3718 18.7854 16.5867 18.9221C16.8015 19.0588 17.053 19.1272 17.3411 19.1272C17.6536 19.1272 17.9172 19.0503 18.1321 18.8965C18.3494 18.7402 18.5129 18.512 18.6228 18.2117C18.6692 18.0701 18.7266 17.9553 18.7949 17.8674C18.8633 17.7771 18.9731 17.7319 19.1245 17.7319C19.2539 17.7319 19.365 17.7771 19.4578 17.8674C19.5505 17.9578 19.5969 18.0701 19.5969 18.2044L19.5969 18.2043Z" fill="black"/>
<path id="path5411" d="M21.6404 15.0989V19.0064H23.845C24.0207 19.0064 24.155 19.0491 24.2478 19.1345C24.343 19.22 24.3906 19.3274 24.3906 19.4568C24.3906 19.5886 24.3442 19.696 24.2515 19.7791C24.1587 19.8596 24.0232 19.8999 23.845 19.8999H21.2192C20.9824 19.8999 20.8115 19.8474 20.7065 19.7424C20.604 19.6375 20.5527 19.4678 20.5527 19.2334V15.0989C20.5527 14.8792 20.6016 14.7144 20.6992 14.6045C20.7993 14.4946 20.9299 14.4397 21.0911 14.4397C21.2546 14.4397 21.3865 14.4946 21.4866 14.6045C21.5891 14.7119 21.6404 14.8767 21.6404 15.0989L21.6404 15.0989Z" fill="black"/>
<path id="path5413" fill-rule="evenodd" clip-rule="evenodd" d="M28.5288 14.7803C28.1309 14.5532 27.6536 14.4397 27.0969 14.4397C26.6868 14.4397 26.3206 14.5044 25.9983 14.6338C25.676 14.7607 25.4026 14.9451 25.178 15.1868C24.9534 15.4285 24.7812 15.7214 24.6616 16.0657C24.5444 16.4099 24.4858 16.7883 24.4858 17.2009C24.4858 17.6038 24.542 17.9785 24.6543 18.3252C24.769 18.6719 24.9375 18.9685 25.1597 19.2151C25.3818 19.4617 25.6589 19.6533 25.991 19.79C26.323 19.9243 26.699 19.9915 27.1189 19.9915C27.5413 19.9915 27.916 19.9255 28.2432 19.7937C28.5703 19.6619 28.8462 19.4714 29.0708 19.2224C29.2954 18.9734 29.4639 18.6792 29.5762 18.3398C29.6885 18.0005 29.7446 17.6233 29.7446 17.2083C29.7446 16.6467 29.6421 16.1584 29.437 15.7434C29.2319 15.3259 28.9292 15.0049 28.5288 14.7803ZM28.4519 16.1792C28.5789 16.4673 28.6423 16.8079 28.6423 17.2009C28.6423 17.6257 28.5728 17.9834 28.4336 18.2739C28.2969 18.5645 28.1113 18.7793 27.877 18.9185C27.645 19.0576 27.3899 19.1272 27.1116 19.1272C26.8943 19.1272 26.6941 19.0869 26.511 19.0063C26.3303 18.9258 26.1692 18.8049 26.0276 18.6438C25.8884 18.4802 25.7798 18.2751 25.7017 18.0286C25.626 17.782 25.5881 17.5061 25.5881 17.2009C25.5881 16.8982 25.626 16.626 25.7017 16.3843C25.7798 16.1401 25.8848 15.9399 26.0166 15.7837C26.1509 15.6274 26.3096 15.509 26.4927 15.4285C26.6782 15.3455 26.8796 15.304 27.0969 15.304C27.4021 15.304 27.6719 15.3784 27.9062 15.5273C28.1431 15.6738 28.325 15.8911 28.4519 16.1792Z" fill="black"/>
<path id="path5415" d="M35.2561 18.2043C35.2561 18.3752 35.2134 18.5608 35.1279 18.761C35.0449 18.9587 34.9131 19.1541 34.7324 19.3469C34.5518 19.5374 34.321 19.6924 34.0403 19.812C33.7595 19.9316 33.4324 19.9915 33.0588 19.9915C32.7756 19.9915 32.5181 19.9646 32.2861 19.9109C32.0542 19.8572 31.843 19.7742 31.6526 19.6619C31.4646 19.5471 31.2913 19.397 31.1326 19.2114C30.991 19.043 30.8701 18.855 30.77 18.6475C30.6699 18.4375 30.5942 18.2141 30.543 17.9773C30.4941 17.7405 30.4697 17.489 30.4697 17.2229C30.4697 16.7908 30.532 16.4038 30.6565 16.062C30.7834 15.7202 30.9641 15.4285 31.1985 15.1868C31.4329 14.9426 31.7075 14.7571 32.0225 14.6301C32.3374 14.5032 32.6731 14.4397 33.0295 14.4397C33.4641 14.4397 33.8511 14.5264 34.1904 14.6997C34.5298 14.873 34.7898 15.0879 34.9705 15.3442C35.1511 15.5981 35.2415 15.8386 35.2415 16.0657C35.2415 16.1902 35.1975 16.3 35.1096 16.3953C35.0217 16.4905 34.9155 16.5381 34.791 16.5381C34.6519 16.5381 34.5469 16.5051 34.4761 16.4392C34.4077 16.3733 34.3308 16.2598 34.2454 16.0986C34.1038 15.8325 33.9365 15.6335 33.7437 15.5017C33.5532 15.3699 33.3176 15.304 33.0369 15.304C32.5901 15.304 32.2336 15.4736 31.9675 15.813C31.7039 16.1523 31.572 16.6345 31.572 17.2595C31.572 17.677 31.6306 18.0249 31.7478 18.3032C31.865 18.5791 32.031 18.7854 32.2458 18.9221C32.4607 19.0588 32.7122 19.1272 33.0002 19.1272C33.3127 19.1272 33.5764 19.0503 33.7913 18.8965C34.0085 18.7402 34.1721 18.512 34.282 18.2117C34.3284 18.0701 34.3857 17.9553 34.4541 17.8674C34.5225 17.7771 34.6323 17.7319 34.7837 17.7319C34.9131 17.7319 35.0242 17.7771 35.1169 17.8674C35.2097 17.9578 35.2561 18.0701 35.2561 18.2044L35.2561 18.2043Z" fill="black"/>
<path id="path5417" d="M37.3289 15.0989V16.9812L39.4639 14.7546C39.5664 14.6472 39.6531 14.5679 39.7239 14.5166C39.7971 14.4653 39.8936 14.4397 40.0132 14.4397C40.1694 14.4397 40.2952 14.4861 40.3904 14.5789C40.488 14.6692 40.5369 14.7803 40.5369 14.9121C40.5369 15.0708 40.4551 15.2283 40.2915 15.3845L38.9695 16.637L40.4929 18.8196C40.6003 18.9709 40.6809 19.104 40.7346 19.2188C40.7883 19.3311 40.8152 19.4409 40.8152 19.5483C40.8152 19.668 40.7676 19.7717 40.6723 19.8596C40.5796 19.9475 40.4526 19.9915 40.2915 19.9915C40.1401 19.9915 40.0168 19.9597 39.9216 19.8962C39.8264 19.8303 39.7458 19.7437 39.6799 19.6362C39.614 19.5288 39.5554 19.4312 39.5041 19.3433L38.2188 17.3657L37.3289 18.219V19.3286C37.3289 19.5532 37.2776 19.7205 37.175 19.8303C37.0725 19.9377 36.9407 19.9915 36.7795 19.9915C36.6868 19.9915 36.5977 19.967 36.5122 19.9182C36.4268 19.8694 36.3608 19.8035 36.3145 19.7205C36.2803 19.6521 36.2595 19.5728 36.2522 19.4824C36.2449 19.3921 36.2412 19.2615 36.2412 19.0906V15.0989C36.2412 14.8792 36.2888 14.7144 36.384 14.6045C36.4817 14.4946 36.6135 14.4397 36.7795 14.4397C36.9431 14.4397 37.075 14.4946 37.175 14.6045C37.2776 14.7119 37.3289 14.8767 37.3289 15.0989L37.3289 15.0989Z" fill="black"/>
<path id="path5419" fill-rule="evenodd" clip-rule="evenodd" d="M45.7517 14.5312H44.3345C44.1001 14.5312 43.9304 14.5837 43.8254 14.6887C43.7205 14.7937 43.668 14.9634 43.668 15.1978V19.1345C43.668 19.3079 43.6826 19.4495 43.7119 19.5593C43.7437 19.6667 43.8096 19.751 43.9097 19.812C44.0097 19.8706 44.1587 19.8999 44.3564 19.8999H45.7737C46.0203 19.8999 46.2412 19.884 46.4365 19.8523C46.6343 19.8206 46.8186 19.7656 46.9895 19.6875C47.1604 19.6094 47.3179 19.5056 47.4619 19.3762C47.645 19.2078 47.7952 19.0173 47.9123 18.8049C48.0295 18.5901 48.1162 18.3496 48.1724 18.0835C48.2285 17.8174 48.2566 17.5232 48.2566 17.2009C48.2566 16.2244 47.977 15.4968 47.418 15.0183C47.2031 14.8303 46.9639 14.7021 46.7002 14.6338C46.4365 14.5654 46.1203 14.5312 45.7517 14.5312ZM44.7556 19.0356V15.3918L44.7556 15.3919H45.4734C45.8054 15.3919 46.0886 15.4285 46.323 15.5017C46.5574 15.5725 46.7539 15.7398 46.9126 16.0034C47.0737 16.2671 47.1543 16.6638 47.1543 17.1936C47.1543 17.9456 46.9724 18.4754 46.6087 18.783C46.5281 18.8538 46.4329 18.9087 46.323 18.9478C46.2131 18.9868 46.1069 19.0113 46.0044 19.021C45.9018 19.0308 45.7602 19.0356 45.5796 19.0356H44.7556Z" fill="black"/>
<path id="path5421" d="M49.2564 19.3286V15.0989C49.2564 14.8792 49.3064 14.7144 49.4065 14.6045C49.5066 14.4946 49.636 14.4397 49.7947 14.4397C49.9583 14.4397 50.0901 14.4946 50.1902 14.6045C50.2928 14.7119 50.3441 14.8767 50.3441 15.0989V19.3286C50.3441 19.5508 50.2928 19.7168 50.1902 19.8267C50.0902 19.9365 49.9583 19.9915 49.7947 19.9915C49.6385 19.9915 49.5091 19.9365 49.4065 19.8267C49.3064 19.7144 49.2564 19.5483 49.2564 19.3286Z" fill="black"/>
<path id="path5423" d="M52.3509 15.1538L53.5667 18.7537L54.7862 15.1282C54.8496 14.9377 54.8972 14.8059 54.929 14.7327C54.9607 14.657 55.0132 14.5898 55.0864 14.5313C55.1597 14.4702 55.2598 14.4397 55.3867 14.4397C55.4795 14.4397 55.565 14.4629 55.6431 14.5093C55.7237 14.5557 55.7859 14.6179 55.8299 14.696C55.8763 14.7717 55.8995 14.8486 55.8995 14.9268C55.8995 14.9805 55.8921 15.0391 55.8775 15.1025C55.8628 15.1636 55.8445 15.2246 55.8226 15.2856C55.8006 15.3442 55.7786 15.4053 55.7567 15.4688L54.4566 18.9771C54.4102 19.1113 54.3638 19.2395 54.3174 19.3616C54.271 19.4812 54.2173 19.5874 54.1563 19.6802C54.0952 19.7705 54.0134 19.845 53.9109 19.9036C53.8108 19.9622 53.6875 19.9915 53.541 19.9915C53.3945 19.9915 53.27 19.9622 53.1675 19.9036C53.0674 19.8474 52.9856 19.7729 52.9221 19.6802C52.8611 19.585 52.8074 19.4775 52.761 19.3579C52.7146 19.2383 52.6682 19.1113 52.6218 18.9771L51.3438 15.498C51.3218 15.4346 51.2986 15.3723 51.2742 15.3113C51.2522 15.2502 51.2327 15.1843 51.2156 15.1135C51.2009 15.0427 51.1936 14.9829 51.1936 14.9341C51.1936 14.8096 51.2436 14.696 51.3437 14.5935C51.4438 14.491 51.5696 14.4397 51.7209 14.4397C51.9065 14.4397 52.0371 14.4971 52.1128 14.6118C52.1909 14.7241 52.2702 14.9048 52.3508 15.1538L52.3509 15.1538Z" fill="black"/>
<path id="path5425" d="M56.3682 19.9915C56.2168 19.9915 56.0862 19.9427 55.9764 19.845C55.8665 19.7474 55.8116 19.6106 55.8116 19.4349C55.8116 19.2859 55.8641 19.1578 55.969 19.0503C56.074 18.9429 56.2034 18.8892 56.3572 18.8892C56.511 18.8892 56.6416 18.9429 56.7491 19.0503C56.8589 19.1553 56.9139 19.2835 56.9139 19.4349C56.9139 19.6082 56.8589 19.7449 56.7491 19.845C56.6416 19.9427 56.5147 19.9915 56.3682 19.9915H56.3682Z" fill="black"/>
</g>
</g>
</g>
</g>
<defs>
<clipPath id="clip0">
<rect width="75" height="380" fill="white"/>
</clipPath>
</defs>
</svg>
