<svg width="75" height="380" viewBox="0 0 75 380" fill="none" xmlns="http://www.w3.org/2000/svg">
<g id="Phaser" clip-path="url(#clip0)">
<rect width="75" height="380" fill="white"/>
<g id="Phaser_2">
<g id="layer2">
<rect id="rect4726" x="0.139648" y="0.243652" width="113.995" height="380.372" fill="#E6E6E6"/>
</g>
<g id="layer1">
<g id="g13122">
<g id="g13178">
<path id="path25259" d="M74.6261 313.521C74.6261 311.996 73.3768 310.751 71.8525 310.751H50.5539C49.0296 310.751 47.7842 311.996 47.7842 313.521V345.884C47.7842 347.408 49.0296 348.657 50.5539 348.657H71.8525C73.3768 348.657 74.6261 347.408 74.6261 345.884V313.521Z" fill="#212121"/>
<path id="path11798" d="M19.3764 318.958C19.3764 319.172 19.5597 319.34 19.7737 319.34C19.9876 319.34 20.171 319.172 20.171 318.958V315.214C20.171 315 19.9876 314.832 19.7737 314.832C19.5597 314.832 19.3764 315 19.3764 315.214V318.958Z" fill="black"/>
<path id="path11794" d="M21.5493 318.958C21.5493 319.172 21.7327 319.34 21.9466 319.34C22.1606 319.34 22.3287 319.172 22.3287 318.958V316.131L24.6209 319.096C24.7279 319.233 24.8348 319.34 25.0182 319.34H25.0487C25.2627 319.34 25.4308 319.157 25.4308 318.943V315.214C25.4308 315 25.2627 314.832 25.0487 314.832C24.8348 314.832 24.6667 315 24.6667 315.214V317.95L22.4356 315.061C22.3286 314.924 22.2217 314.832 22.0383 314.832H21.9466C21.7327 314.832 21.5493 315.015 21.5493 315.229V318.958Z" fill="black"/>
<g id="text4295">
<path id="path5901" fill-rule="evenodd" clip-rule="evenodd" d="M57.7841 315.201C57.4525 315.012 57.0547 314.917 56.5909 314.917C56.2491 314.917 55.9439 314.971 55.6754 315.079C55.4068 315.185 55.179 315.339 54.9918 315.54C54.8046 315.741 54.6612 315.986 54.5615 316.272C54.4639 316.559 54.415 316.875 54.415 317.219C54.415 317.554 54.4618 317.866 54.5554 318.155C54.651 318.444 54.7914 318.691 54.9765 318.897C55.1617 319.102 55.3926 319.262 55.6693 319.376C55.946 319.488 56.2593 319.544 56.6092 319.544C56.9612 319.544 57.2735 319.489 57.5461 319.379C57.8187 319.269 58.0486 319.111 58.2358 318.903C58.4229 318.696 58.5633 318.45 58.6569 318.168C58.7505 317.885 58.7973 317.57 58.7973 317.225C58.7973 316.757 58.7118 316.35 58.5409 316.004C58.37 315.656 58.1178 315.388 57.7841 315.201ZM57.72 316.367C57.8258 316.607 57.8787 316.891 57.8787 317.219C57.8787 317.573 57.8207 317.871 57.7048 318.113C57.5908 318.355 57.4362 318.534 57.2409 318.65C57.0476 318.766 56.835 318.824 56.6031 318.824C56.422 318.824 56.2552 318.79 56.1026 318.723C55.9521 318.656 55.8178 318.555 55.6998 318.421C55.5839 318.285 55.4933 318.114 55.4282 317.908C55.3651 317.703 55.3336 317.473 55.3336 317.219C55.3336 316.966 55.3651 316.739 55.4282 316.538C55.4933 316.335 55.5808 316.168 55.6906 316.037C55.8025 315.907 55.9348 315.809 56.0874 315.741C56.242 315.672 56.4098 315.638 56.5909 315.638C56.8452 315.638 57.07 315.7 57.2653 315.824C57.4627 315.946 57.6142 316.127 57.72 316.367Z" fill="white"/>
<path id="path5903" d="M59.5845 317.618V315.467C59.5845 315.284 59.6252 315.146 59.7066 315.055C59.79 314.963 59.8988 314.917 60.0331 314.917C60.1735 314.917 60.2844 314.963 60.3657 315.055C60.4492 315.146 60.4909 315.284 60.4909 315.467V317.667C60.4909 317.917 60.5183 318.127 60.5732 318.296C60.6302 318.463 60.7299 318.593 60.8723 318.686C61.0147 318.778 61.2141 318.824 61.4704 318.824C61.8244 318.824 62.0747 318.73 62.2211 318.543C62.3676 318.354 62.4409 318.068 62.4409 317.685V315.467C62.4409 315.282 62.4815 315.144 62.5629 315.055C62.6443 314.963 62.7531 314.917 62.8894 314.917C63.0258 314.917 63.1356 314.963 63.219 315.055C63.3045 315.144 63.3472 315.282 63.3472 315.467V317.618C63.3472 317.968 63.3126 318.26 63.2434 318.494C63.1763 318.728 63.0481 318.934 62.8589 319.111C62.6962 319.261 62.507 319.371 62.2913 319.44C62.0757 319.509 61.8234 319.544 61.5345 319.544C61.1907 319.544 60.8947 319.507 60.6465 319.434C60.3983 319.359 60.1958 319.244 60.0392 319.089C59.8825 318.933 59.7676 318.733 59.6943 318.491C59.6211 318.247 59.5845 317.956 59.5845 317.618H59.5845Z" fill="white"/>
<path id="path5905" d="M67.2321 315.742H66.2434V318.992C66.2434 319.179 66.2016 319.318 66.1182 319.41C66.0348 319.499 65.927 319.544 65.7948 319.544C65.6605 319.544 65.5506 319.498 65.4652 319.407C65.3818 319.315 65.34 319.177 65.34 318.992V315.742H64.3513C64.1967 315.742 64.0817 315.708 64.0065 315.641C63.9312 315.572 63.8936 315.481 63.8936 315.369C63.8936 315.253 63.9322 315.162 64.0095 315.095C64.0889 315.027 64.2028 314.994 64.3513 314.994H67.2321C67.3888 314.994 67.5047 315.028 67.58 315.098C67.6573 315.167 67.696 315.257 67.696 315.369C67.696 315.481 67.6573 315.572 67.58 315.641C67.5027 315.708 67.3867 315.742 67.2321 315.742Z" fill="white"/>
</g>
</g>
</g>
</g>
<g id="layer4">
<g id="text3433">
<path id="path3438" fill-rule="evenodd" clip-rule="evenodd" d="M35.4287 357.277L35.4301 357.28C35.4721 357.345 35.5115 357.41 35.5481 357.472L35.5145 357.49C35.3932 357.556 35.2706 357.624 35.1468 357.696L35.1345 357.703C35.1266 357.692 35.1189 357.681 35.1113 357.668C35.0935 357.624 35.078 357.589 35.0651 357.564L35.0389 357.523L35.0381 357.522L35.0383 357.522L35.0381 357.522C35.0055 357.473 34.9892 357.424 34.9892 357.375C34.9892 357.31 35.0299 357.261 35.1113 357.229C35.1601 357.196 35.209 357.18 35.2578 357.18C35.3229 357.18 35.3799 357.213 35.4287 357.278L35.4287 357.277ZM35.224 357.828C35.2095 357.803 35.1947 357.777 35.1796 357.751C35.1639 357.738 35.1489 357.722 35.1345 357.703L35.1113 357.717C35.1056 357.72 35.0999 357.722 35.0942 357.725C34.9828 357.635 34.8748 357.547 34.77 357.461C34.7748 357.402 34.8153 357.357 34.8916 357.327C35.2103 357.138 35.5205 356.971 35.822 356.824C35.9088 356.898 35.9648 356.944 35.9901 356.961H36.0146C36.0308 356.961 36.0471 356.952 36.0634 356.936C36.0797 356.92 36.0879 356.903 36.0879 356.887V356.862C36.0756 356.832 36.0472 356.791 36.0026 356.739C36.362 356.573 36.709 356.439 37.0435 356.335C37.1095 356.381 37.1734 356.418 37.2353 356.447H37.3085C37.3248 356.431 37.333 356.406 37.333 356.373L37.333 356.374V356.349C37.3275 356.349 37.2978 356.325 37.2439 356.277C37.6506 356.164 38.0384 356.099 38.4072 356.082H38.5452C38.5565 356.09 38.5675 356.098 38.5781 356.105C38.5943 356.121 38.6106 356.13 38.6269 356.13C38.6586 356.13 38.6825 356.114 38.6988 356.083C39.7643 356.113 40.603 356.544 41.2148 357.376C41.5943 357.886 41.8572 358.512 42.0034 359.256C41.8446 359.087 41.6956 358.924 41.5565 358.766C41.5403 358.734 41.524 358.717 41.5077 358.717C41.4914 358.717 41.467 358.734 41.4345 358.766C41.4246 358.776 41.4177 358.786 41.4138 358.796C41.3118 358.457 41.1803 358.154 41.0195 357.888C40.4661 356.993 39.6768 356.546 38.6514 356.546H38.4805L38.4804 356.545C37.6044 356.588 36.6269 356.897 35.5481 357.472C35.6386 357.627 35.7128 357.774 35.7705 357.913C36.0798 358.596 36.2344 359.239 36.2344 359.841C36.2344 360.044 36.2159 360.243 36.1791 360.438C36.109 360.304 35.9798 360.135 35.7914 359.934C35.7937 359.886 35.7949 359.839 35.7949 359.792C35.7949 359.252 35.6578 358.699 35.3835 358.132H35.4043C35.4205 358.132 35.4368 358.124 35.4531 358.107C35.4694 358.091 35.4775 358.075 35.4775 358.059C35.4775 358.042 35.4694 358.026 35.4531 358.01C35.3753 357.948 35.2989 357.888 35.224 357.828ZM35.224 357.828C35.2815 357.93 35.3347 358.031 35.3835 358.132H35.3554C35.0136 357.986 34.4521 357.53 33.6709 356.765C33.2314 356.342 33.0117 356.065 33.0117 355.935C33.0117 355.886 33.0361 355.853 33.0849 355.837C33.1175 355.837 33.1419 355.853 33.1582 355.886C33.1582 355.903 33.15 355.919 33.1337 355.935V355.96C33.1337 356.025 33.4999 356.375 34.2324 357.01L34.2324 357.009C34.4008 357.154 34.58 357.305 34.77 357.461C34.7697 357.465 34.7695 357.469 34.7695 357.473C34.7695 357.522 34.7858 357.571 34.8183 357.62C34.8672 357.701 34.9323 357.741 35.0136 357.741C35.0405 357.741 35.0673 357.736 35.0942 357.725C35.137 357.759 35.1802 357.794 35.224 357.828ZM35.7569 360.259C35.7745 360.151 35.7861 360.042 35.7914 359.934C35.4771 359.597 34.9981 359.167 34.3545 358.644L34.3545 358.645C34.0616 358.417 33.6872 358.075 33.2315 357.62C32.705 357.109 32.3349 356.755 32.1212 356.557C32.1301 356.561 32.1421 356.565 32.1573 356.57C32.1898 356.57 32.2061 356.562 32.2061 356.545V356.521C32.2061 356.505 32.1979 356.488 32.1816 356.472C32.1491 356.455 32.0921 356.431 32.0107 356.398C31.9596 356.378 31.918 356.361 31.8862 356.347C32.3704 356.084 32.9165 355.84 33.5244 355.617C33.7336 355.54 33.9596 355.461 34.2024 355.38C34.2395 355.413 34.282 355.452 34.33 355.496C34.4276 355.593 34.6148 355.756 34.8915 355.984C35.1031 356.179 35.3065 356.367 35.5019 356.546C35.6349 356.663 35.7417 356.756 35.822 356.824C35.8826 356.795 35.9428 356.767 36.0026 356.739C35.9288 356.654 35.8107 356.54 35.6484 356.398L35.6484 356.399C35.4368 356.187 35.2089 355.984 34.9648 355.788C34.7353 355.588 34.5478 355.43 34.4025 355.315C34.8478 355.171 35.3455 355.023 35.8958 354.871C35.8936 354.875 35.8925 354.88 35.8925 354.884V354.909C36.0064 355.185 36.1773 355.454 36.4052 355.714C36.6361 355.994 36.8489 356.201 37.0435 356.335C37.1108 356.314 37.1776 356.295 37.2439 356.277C37.1384 356.182 36.9403 355.994 36.6494 355.714C36.3727 355.454 36.1611 355.169 36.0146 354.86C36.008 354.853 36.0015 354.848 35.9949 354.844C36.5237 354.699 37.1 354.55 37.7236 354.396C38.2463 354.271 38.7171 354.179 39.1361 354.123L39.1396 354.127C39.1396 354.16 39.1477 354.176 39.164 354.176C39.164 354.193 39.1722 354.201 39.1885 354.201L44.7305 359.255C45.0072 359.515 45.8861 360.541 47.3672 362.331C47.53 362.526 47.9694 362.933 48.6856 363.552C49.2391 364.026 49.6236 364.47 49.839 364.883L49.833 365.017C49.8167 365.309 49.7923 365.879 49.7598 366.725C49.6657 366.681 49.5599 366.648 49.4423 366.627L49.4423 366.628C49.2795 366.188 48.8889 365.667 48.2704 365.065C48.3518 365.146 47.6926 364.577 46.2929 363.356C45.9999 363.096 45.6174 362.738 45.1454 362.282C44.5757 361.729 44.1933 361.37 43.9979 361.208C43.2157 360.489 42.5509 359.838 42.0034 359.256C42.0222 359.352 42.0392 359.449 42.0541 359.549C41.7843 359.265 41.5778 359.037 41.4345 358.864L41.4337 358.863C41.4272 358.841 41.4206 358.818 41.4138 358.796C41.4113 358.802 41.41 358.809 41.41 358.815C41.41 358.831 41.4179 358.847 41.4337 358.863C41.5873 359.401 41.669 360.028 41.6787 360.745C41.6787 360.901 41.6717 361.053 41.6576 361.199C41.6141 361.144 41.5723 361.09 41.5323 361.037C41.516 361.02 41.4997 361.012 41.4834 361.012H41.459C41.4427 361.012 41.4345 361.02 41.4345 361.037C41.4345 361.053 41.4427 361.069 41.459 361.086C41.5009 361.146 41.5627 361.223 41.6445 361.317C41.5926 361.731 41.482 362.102 41.3125 362.429C41.166 362.69 41.0033 362.885 40.8242 363.015C40.6777 363.113 40.4336 363.194 40.0918 363.26C39.9941 363.276 39.7337 363.317 39.3105 363.382C38.985 363.43 38.7246 363.479 38.5293 363.528C38.3014 363.593 37.9596 363.683 37.5039 363.797C37.0319 363.911 36.6901 364 36.4785 364.065C35.7135 364.26 35.0381 364.472 34.4521 364.7C34.2406 364.798 33.9557 364.928 33.5977 365.091C33.1419 365.302 32.849 365.44 32.7187 365.506C31.3027 366.124 30.3099 366.702 29.7402 367.239C29.7084 367.269 29.6756 367.302 29.642 367.336C29.6194 367.348 29.6047 367.363 29.598 367.383C29.3314 367.668 29.0126 368.092 28.6416 368.655C28.2998 369.143 28.0231 369.648 27.8115 370.169C27.5511 370.852 27.4209 371.552 27.4209 372.268C27.4209 372.692 27.4616 373.115 27.543 373.538C27.7708 374.694 28.2835 375.694 29.0811 376.541C29.667 377.159 30.7087 377.721 32.206 378.225C33.3291 378.616 34.3626 378.811 35.3066 378.811C35.5508 378.811 35.7949 378.795 36.0391 378.762C36.5572 378.713 37.0567 378.617 37.5374 378.474L37.5527 378.493C37.5852 378.526 37.6096 378.542 37.6259 378.542C37.6585 378.542 37.691 378.526 37.7236 378.493C37.7561 378.461 37.7724 378.436 37.7724 378.42C37.7724 378.416 37.7722 378.412 37.7717 378.408L37.7706 378.401C37.8449 378.376 37.9188 378.35 37.9922 378.323C38.5781 378.095 39.1803 377.753 39.7988 377.298C40.5638 376.728 41.1416 376.321 41.5322 376.077C42.0518 375.768 42.4256 375.458 42.6537 375.149C42.7052 375.233 42.7626 375.33 42.8261 375.441L42.8261 375.441C42.9401 375.685 43.1028 375.913 43.3144 376.125C43.6399 376.483 44.055 376.8 44.5595 377.077C45.4059 377.533 46.472 377.809 47.7578 377.907C48.0182 377.923 48.2867 377.932 48.5634 377.932C49.4261 377.932 50.2968 377.834 51.1757 377.639C51.8919 377.492 52.5022 377.305 53.0068 377.077L54.3758 376.501C54.3921 376.528 54.4159 376.558 54.4472 376.589C54.4961 376.638 54.5449 376.662 54.5937 376.662C54.6588 376.662 54.7158 376.63 54.7646 376.565C54.8134 376.499 54.8379 376.402 54.8379 376.272C54.8379 376.044 54.7728 375.718 54.6426 375.295C54.5937 375.149 54.5042 374.872 54.374 374.465C54.3252 374.318 54.2927 374.196 54.2764 374.099L54.2755 374.097C54.2717 374.037 54.2538 373.993 54.222 373.965C54.2094 373.936 54.2031 373.907 54.2031 373.879C54.1868 373.732 54.1054 373.659 53.9589 373.659C53.8125 373.659 53.7392 373.716 53.7392 373.83V373.879C53.7416 373.9 53.7464 373.927 53.7536 373.96C53.5173 373.985 53.3084 374.004 53.1269 374.019C53.0543 373.933 53.0142 373.886 53.0067 373.878C52.9905 373.845 52.966 373.829 52.9335 373.829C52.9172 373.829 52.901 373.837 52.8847 373.854C52.8521 373.87 52.8358 373.895 52.8358 373.927C52.8358 373.943 52.844 373.96 52.8603 373.976L52.9049 374.035C52.7494 374.045 52.6206 374.05 52.5185 374.05H52.3232C51.7047 373.952 51.2165 373.7 50.8584 373.293C50.6468 373.033 50.4678 372.585 50.3213 371.95C50.1585 371.25 50.0771 370.55 50.0771 369.851C50.0771 369.672 50.1097 368.939 50.1748 367.653C50.1911 367.442 50.1992 367.108 50.1992 366.652C50.2155 366.213 50.2318 365.879 50.2481 365.651C50.3132 364.512 50.3457 363.576 50.3457 362.844C50.3457 362.339 50.3294 361.924 50.2969 361.599C50.183 360.394 49.8493 359.231 49.2959 358.107C48.7751 357.082 47.9938 356.162 46.9522 355.349C45.9431 354.551 44.8526 354.055 43.6807 353.859C43.5342 353.827 42.8669 353.762 41.6787 353.664C41.0765 353.615 40.5475 353.591 40.0918 353.591C39.8639 353.591 39.6605 353.599 39.4815 353.616C39.042 353.648 38.334 353.787 37.3574 354.031C36.6576 354.193 35.9414 354.381 35.209 354.592C33.6628 355.048 32.4746 355.504 31.6446 355.959C30.5866 356.529 29.7728 357.221 29.2031 358.035C28.6823 358.734 28.4219 359.451 28.4219 360.183C28.4219 360.46 28.4626 360.745 28.544 361.038C28.8044 362.014 29.4147 362.706 30.375 363.113C30.8959 363.324 31.4411 363.43 32.0108 363.43C32.4828 363.43 32.971 363.357 33.4756 363.21C34.1276 363.022 34.6726 362.726 35.1106 362.323C35.1213 362.336 35.1296 362.347 35.1357 362.356C35.152 362.388 35.1764 362.405 35.209 362.405C35.2252 362.405 35.2415 362.396 35.2578 362.38C35.3066 362.364 35.3311 362.339 35.3311 362.307C35.3311 362.291 35.3229 362.274 35.3066 362.258C35.2933 362.236 35.276 362.211 35.2548 362.182C35.5071 361.922 35.7198 361.622 35.8926 361.282C36.0056 361.056 36.0905 360.824 36.1475 360.586C36.1728 360.556 36.1855 360.519 36.1855 360.476V360.451L36.1791 360.438C36.1697 360.488 36.1592 360.537 36.1475 360.586C36.1441 360.59 36.1405 360.594 36.1367 360.598C36.1204 360.614 36.096 360.623 36.0634 360.623C36.0309 360.623 36.0065 360.598 35.9902 360.549C35.9569 360.487 35.8791 360.391 35.7569 360.259ZM34.9806 361.845C34.6104 361.415 33.9541 360.706 33.0117 359.719L33.0117 359.719C32.3607 359.052 31.8724 358.539 31.5469 358.181C31.0912 357.66 30.8633 357.351 30.8633 357.253C30.8633 357.221 30.847 357.204 30.8145 357.204C30.7819 357.204 30.7575 357.221 30.7412 357.253V357.302C30.7412 357.432 30.847 357.636 31.0586 357.912C31.2865 358.205 31.7422 358.71 32.4258 359.426C33.6159 360.685 34.4158 361.541 34.8255 361.996C34.3922 362.386 33.8201 362.668 33.1094 362.844C32.7187 362.941 32.3444 362.99 31.9863 362.99C31.9616 362.99 31.9369 362.99 31.9123 362.989C31.7282 362.707 31.3052 362.145 30.6435 361.306C30.0413 360.557 29.7239 360.158 29.6913 360.109L29.6915 360.11C29.366 359.686 29.1951 359.475 29.1788 359.475C29.1788 359.442 29.1706 359.418 29.1543 359.401C29.1381 359.385 29.1218 359.377 29.1055 359.377L29.081 359.401C29.0647 359.418 29.0566 359.442 29.0566 359.475C29.0566 359.605 29.1787 359.833 29.4228 360.158C29.5205 360.289 29.6425 360.435 29.789 360.598C29.9355 360.777 30.0168 360.874 30.0331 360.891C30.8491 361.933 31.3928 362.629 31.6643 362.977C31.0761 362.929 30.5405 362.746 30.0576 362.429C29.2764 361.924 28.8857 361.183 28.8857 360.207V360.036C28.9346 359.108 29.4717 358.197 30.4971 357.302C30.8439 356.993 31.2527 356.705 31.7236 356.437C31.7291 356.441 31.7353 356.444 31.7422 356.448C32.442 357.18 33.2233 357.929 34.0859 358.694C34.9038 359.419 35.4608 359.941 35.7569 360.259C35.7213 360.478 35.6607 360.696 35.5752 360.915C35.4336 361.269 35.2354 361.579 34.9806 361.845ZM31.6643 362.977C31.7827 363.129 31.8494 363.215 31.8642 363.235C31.8804 363.251 31.8967 363.259 31.913 363.259C31.9293 363.259 31.9455 363.251 31.9618 363.235C31.9944 363.219 32.0107 363.202 32.0107 363.186V363.161C31.9965 363.125 31.9637 363.068 31.9123 362.989C31.8286 362.988 31.746 362.984 31.6643 362.977ZM34.9806 361.845C35.1036 361.988 35.195 362.101 35.2548 362.182C35.2081 362.23 35.16 362.277 35.1106 362.323C35.0623 362.262 34.9673 362.153 34.8255 361.996C34.8793 361.947 34.931 361.897 34.9806 361.845ZM53.2454 374.473C53.1421 374.344 53.0286 374.198 52.9049 374.035C52.9737 374.031 53.0477 374.025 53.1269 374.019C53.2073 374.115 53.3276 374.258 53.4878 374.45C53.4017 374.459 53.3209 374.466 53.2454 374.473ZM51.815 374.396C52.0367 374.459 52.2712 374.498 52.5185 374.514H52.5918C52.7231 374.514 52.941 374.5 53.2454 374.473C53.5433 374.846 53.7567 375.079 53.8857 375.172C53.9019 375.189 53.9182 375.197 53.9345 375.197C53.9508 375.197 53.967 375.189 53.9833 375.172C53.9996 375.156 54.0078 375.132 54.0078 375.099H54.0077V375.074C53.9914 375.074 53.8287 374.879 53.5194 374.488L53.4878 374.45C53.6086 374.439 53.7399 374.425 53.8817 374.41C53.9441 374.607 54.0269 374.853 54.1298 375.148L54.1298 375.149C54.2275 375.474 54.3007 375.726 54.3496 375.906C54.3624 375.95 54.3726 375.991 54.3804 376.029C54.185 376.044 53.9086 376.133 53.5514 376.295C53.5435 376.286 53.5329 376.278 53.5195 376.271C53.2754 376.059 52.9824 375.775 52.6406 375.417L52.6406 375.416C52.1523 374.879 51.8675 374.578 51.7861 374.513C51.8187 374.513 51.8431 374.521 51.8594 374.538C51.8919 374.538 51.9163 374.529 51.9326 374.513C51.9326 374.481 51.9245 374.456 51.9082 374.44L51.815 374.396ZM51.176 374.127L51.1757 374.122C51.1757 374.09 51.1839 374.065 51.2002 374.049C51.2165 374.033 51.2327 374.024 51.249 374.024C51.2815 374.024 51.306 374.033 51.3222 374.049L51.5407 374.268C51.5602 374.276 51.6516 374.319 51.815 374.396C51.5886 374.331 51.3756 374.242 51.176 374.127ZM53.3111 376.409C52.8689 376.025 52.1652 375.279 51.2002 374.171C51.1855 374.156 51.1775 374.142 51.176 374.127C51.1595 374.118 51.1432 374.108 51.1269 374.099C50.5247 373.741 50.1097 373.065 49.8818 372.072C49.7191 371.405 49.6295 370.803 49.6133 370.266V369.875C49.6133 369.667 49.6179 369.435 49.6272 369.181C49.6342 369.161 49.6377 369.14 49.6377 369.118C49.6377 369.109 49.6354 369.098 49.6308 369.085C49.6386 368.889 49.6491 368.681 49.6621 368.459C49.691 368.069 49.7199 367.569 49.7489 366.96L50.0038 367.116H50.0283C50.0445 367.116 50.0608 367.1 50.0771 367.067C50.0934 367.051 50.1016 367.035 50.1016 367.018C50.1016 367.002 50.0934 366.986 50.0771 366.969C49.9929 366.866 49.8871 366.785 49.7598 366.725L49.7598 366.726L49.7489 366.96L49.5644 366.847L49.4911 366.823V366.847C49.4911 366.896 49.4667 366.929 49.4179 366.945H49.3935C49.3446 366.945 49.3121 366.921 49.2958 366.872C49.0517 366.253 48.5552 365.61 47.8065 364.943C47.6275 364.797 47.3101 364.528 46.8544 364.138C46.4475 363.812 46.1383 363.552 45.9267 363.356C44.1174 361.631 42.8265 360.362 42.0541 359.549C42.0824 359.737 42.1037 359.933 42.1181 360.134C42.1344 360.297 42.1426 360.452 42.1426 360.598C42.1426 361.001 42.1109 361.352 42.0474 361.653C41.9051 361.498 41.7751 361.346 41.6576 361.199C41.6537 361.239 41.6494 361.278 41.6445 361.317C41.7436 361.431 41.8721 361.569 42.03 361.731L42.0205 361.77C41.9283 362.19 41.7975 362.539 41.6279 362.817C41.5921 362.754 41.5683 362.697 41.5566 362.648C41.5404 362.631 41.5241 362.623 41.5078 362.623H41.4833C41.4508 362.623 41.4345 362.639 41.4345 362.672V362.697C41.4345 362.769 41.4656 362.859 41.5277 362.967C41.4541 363.068 41.3742 363.157 41.2881 363.235C41.144 363.363 40.9586 363.47 40.7319 363.554C40.6856 363.509 40.6432 363.467 40.6046 363.429C40.5883 363.412 40.572 363.404 40.5557 363.404L40.5313 363.429C40.515 363.445 40.5068 363.47 40.5068 363.502V363.527C40.5299 363.553 40.5536 363.58 40.5778 363.607C40.3782 363.668 40.1511 363.715 39.8965 363.748C39.6947 363.775 39.4817 363.81 39.2577 363.854C39.1885 363.781 39.1329 363.729 39.0908 363.698C39.0746 363.681 39.0583 363.673 39.042 363.673L39.0175 363.698C39.0012 363.714 38.9931 363.739 38.9931 363.771V363.796C39.0142 363.83 39.0355 363.862 39.0571 363.894C38.7976 363.949 38.524 364.014 38.2363 364.09C38.0906 364.127 37.9483 364.163 37.8096 364.199C37.7968 364.178 37.7844 364.158 37.7724 364.137C37.7561 364.104 37.7399 364.088 37.7236 364.088C37.7073 364.088 37.691 364.096 37.6747 364.113C37.6422 364.129 37.6259 364.145 37.6259 364.162C37.6259 364.178 37.6341 364.194 37.6504 364.211L37.6621 364.237C37.1883 364.361 36.7568 364.478 36.3675 364.589C36.3557 364.58 36.3438 364.576 36.332 364.576C36.3157 364.576 36.2995 364.584 36.2832 364.601C36.2777 364.606 36.2732 364.612 36.2695 364.617C35.6985 364.781 35.2218 364.93 34.8394 365.065C34.6735 364.918 34.5444 364.845 34.4522 364.845C34.4196 364.845 34.3952 364.853 34.3789 364.869C34.3626 364.869 34.3545 364.878 34.3545 364.894V364.943C34.3707 364.96 34.387 364.968 34.4033 364.968H34.4277L34.5955 365.154C34.4268 365.218 34.2814 365.278 34.1592 365.335C33.9086 365.45 33.6723 365.56 33.4503 365.663C33.4059 365.623 33.3655 365.587 33.3291 365.554C33.3291 365.537 33.3209 365.529 33.3046 365.529C33.2884 365.529 33.2639 365.537 33.2314 365.554C33.2151 365.554 33.2069 365.562 33.2069 365.578C33.2069 365.594 33.2151 365.611 33.2314 365.627C33.2491 365.663 33.2716 365.698 33.2989 365.733C32.9791 365.882 32.6908 366.018 32.434 366.14C32.3233 366.008 32.2555 365.918 32.2304 365.871L32.2304 365.871C32.2141 365.855 32.1897 365.847 32.1572 365.847C32.1246 365.863 32.1083 365.879 32.1083 365.895C32.1192 366.001 32.1524 366.118 32.2079 366.248C31.5197 366.578 31.0959 366.794 30.9365 366.897C30.5974 367.111 30.274 367.374 29.9664 367.687C29.9005 367.613 29.8415 367.529 29.7891 367.435C29.7891 367.418 29.781 367.402 29.7647 367.386V367.361H29.7402C29.7239 367.344 29.7077 367.336 29.6914 367.336H29.6425L29.642 367.336C29.6275 367.351 29.6128 367.367 29.598 367.383C29.5951 367.391 29.5937 367.4 29.5937 367.409V367.458H29.6182C29.6693 367.58 29.7347 367.71 29.8144 367.847C29.5798 368.102 29.3547 368.388 29.1391 368.703C29.0841 368.591 29.0567 368.493 29.0567 368.41V368.337C29.0567 368.321 29.0404 368.304 29.0079 368.288H28.9834C28.9671 368.288 28.9509 368.296 28.9346 368.313C28.9183 368.345 28.9101 368.386 28.9101 368.435C28.9101 368.541 28.9547 368.678 29.0439 368.845C28.8972 369.069 28.7549 369.306 28.6172 369.558C28.4872 369.801 28.3746 370.046 28.2792 370.293L28.2754 370.29L28.2754 370.29C28.2754 370.273 28.2673 370.265 28.251 370.265L28.2265 370.29C28.2102 370.29 28.2021 370.298 28.2021 370.314C28.2021 370.33 28.2102 370.347 28.2265 370.363L28.2456 370.382C28.0889 370.808 27.9833 371.24 27.9286 371.679L27.9092 371.657C27.8929 371.641 27.8767 371.633 27.8604 371.633H27.8359V371.73C27.8555 371.767 27.8801 371.808 27.9096 371.854C27.8931 372.032 27.8848 372.211 27.8848 372.39C27.8848 372.569 27.8929 372.757 27.9092 372.952C27.944 373.31 28.0091 373.654 28.1044 373.984L28.1044 374.026C28.1044 374.085 28.1312 374.156 28.1848 374.238C28.409 374.89 28.7566 375.487 29.2276 376.028C29.6345 376.484 30.0577 376.818 30.4971 377.029C30.6244 377.095 30.7559 377.159 30.8914 377.222C31.12 377.503 31.3222 377.732 31.498 377.907H31.5956C31.6119 377.891 31.6201 377.867 31.6201 377.834V377.809C31.5582 377.699 31.4778 377.574 31.3788 377.435C31.6778 377.558 31.9942 377.675 32.3282 377.786C32.625 377.883 32.9135 377.968 33.1938 378.04C33.3412 378.19 33.4921 378.341 33.6465 378.493C33.679 378.51 33.7034 378.518 33.7197 378.518C33.7522 378.518 33.7766 378.51 33.7929 378.493C33.8255 378.461 33.8418 378.428 33.8418 378.395C33.8418 378.363 33.8255 378.339 33.7929 378.322L33.793 378.322C33.7927 378.32 33.7429 378.261 33.6437 378.147C34.266 378.281 34.8448 378.347 35.3799 378.347C35.6245 378.347 35.8578 378.336 36.0797 378.313C36.1042 378.336 36.1232 378.347 36.1367 378.347C36.1692 378.347 36.2018 378.33 36.2343 378.298L36.2377 378.294C36.5841 378.243 36.9128 378.173 37.2239 378.086C37.3272 378.214 37.4317 378.343 37.5374 378.474C37.6156 378.451 37.6933 378.426 37.7706 378.401C37.7654 378.374 37.7498 378.348 37.7236 378.322C37.6427 378.219 37.5605 378.116 37.4769 378.01C37.6636 377.951 37.8435 377.884 38.0166 377.81C38.1798 377.745 38.3484 377.665 38.5224 377.571C38.5657 377.642 38.6087 377.714 38.6514 377.785C38.6839 377.834 38.7165 377.859 38.749 377.859C38.7816 377.859 38.806 377.851 38.8223 377.834C38.8711 377.801 38.8955 377.769 38.8955 377.736C38.8955 377.704 38.8874 377.679 38.8711 377.663C38.8283 377.59 38.7852 377.518 38.7418 377.446C39.0236 377.278 39.319 377.074 39.628 376.834C40.2142 376.405 40.7 376.064 41.0853 375.811C41.1768 375.884 41.2444 375.924 41.288 375.93H41.3125C41.345 375.93 41.3694 375.922 41.3857 375.905C41.402 375.889 41.4102 375.873 41.4102 375.856C41.4102 375.84 41.402 375.824 41.3857 375.807C41.3777 375.799 41.3406 375.76 41.2742 375.69C41.8115 375.369 42.1687 375.054 42.3461 374.745L42.3674 374.753C42.3787 374.771 42.3933 374.789 42.4111 374.806C42.466 374.861 42.5469 374.976 42.6537 375.149C42.7257 375.051 42.7832 374.954 42.8262 374.856C42.8425 374.824 42.8506 374.791 42.8506 374.758C42.8506 374.661 42.8018 374.588 42.7041 374.539C42.6553 374.506 42.6065 374.49 42.5577 374.49C42.5197 374.49 42.4872 374.504 42.4603 374.531L42.4237 374.501L42.4355 374.489C42.4843 374.424 42.5332 374.392 42.582 374.392C42.6471 374.392 42.7041 374.424 42.7529 374.489C42.8668 374.619 43.0133 374.839 43.1923 375.149C43.3551 375.458 43.5016 375.677 43.6318 375.808C43.9899 376.182 44.4049 376.483 44.8769 376.711C45.1875 376.872 45.5233 377.008 45.8843 377.119L46.2685 377.565C46.3011 377.582 46.3255 377.59 46.3418 377.59C46.3743 377.59 46.3987 377.582 46.415 377.565C46.4476 377.533 46.4638 377.5 46.4638 377.467C46.4638 377.435 46.4476 377.411 46.415 377.394L46.2695 377.226C46.791 377.354 47.3603 377.435 47.9775 377.468H48.4902C48.5402 377.468 48.5902 377.468 48.6402 377.467C48.6718 377.508 48.7032 377.549 48.7344 377.59C48.7669 377.622 48.7995 377.639 48.832 377.639C48.8483 377.639 48.8727 377.631 48.9053 377.614C48.9378 377.598 48.9541 377.573 48.9541 377.541C48.9541 377.525 48.946 377.508 48.9297 377.492L48.9093 377.461C49.2701 377.449 49.6299 377.421 49.9886 377.378C50.079 377.484 50.1655 377.588 50.2481 377.687C50.2806 377.704 50.305 377.712 50.3213 377.712C50.3538 377.712 50.3782 377.704 50.3945 377.687C50.4271 377.655 50.4434 377.622 50.4434 377.589C50.4434 377.573 50.4352 377.549 50.4189 377.516C50.3719 377.458 50.3237 377.4 50.2743 377.34C50.6493 377.286 51.023 377.214 51.3955 377.126C52.1279 376.947 52.6813 376.752 53.0556 376.54C53.1443 376.493 53.2294 376.45 53.3111 376.409ZM41.9457 368.958C42.0491 369.013 42.1717 369.107 42.3135 369.24C42.3786 369.305 42.4681 369.402 42.582 369.533L42.8018 369.752C42.9482 369.866 43.3307 370.184 43.9492 370.704C44.4212 371.095 44.7956 371.429 45.0723 371.705C45.1211 371.754 46.0488 372.731 47.8555 374.635L47.8554 374.635C48.8501 375.69 49.6564 376.592 50.2743 377.34C50.1791 377.353 50.0839 377.366 49.9886 377.378C48.9566 376.158 47.4155 374.471 45.3652 372.316C44.7793 371.714 43.9736 370.99 42.9483 370.143C42.8343 370.046 42.5983 369.826 42.2402 369.484C42.1095 369.368 42.0079 369.273 41.9355 369.199L41.9457 368.958ZM42.02 366.931C42.0162 367.349 41.992 368.013 41.9472 368.923L41.9457 368.958C41.8711 368.918 41.8065 368.898 41.752 368.898H41.7275C41.695 368.914 41.6787 368.938 41.6787 368.971C41.6787 368.987 41.6868 369.012 41.7031 369.044C41.7031 369.061 41.7194 369.069 41.752 369.069C41.7845 369.053 41.8008 369.037 41.8008 369.02C41.8008 369.047 41.8457 369.107 41.9355 369.199C41.927 369.407 41.9228 369.535 41.9228 369.582L41.8391 370.514L41.7275 370.412C41.7113 370.395 41.695 370.387 41.6787 370.387C41.6625 370.387 41.6462 370.395 41.6299 370.412V370.485C41.6813 370.547 41.7454 370.619 41.8223 370.702L41.7519 371.487C41.7241 371.764 41.6996 372.019 41.6784 372.249C41.5432 372.1 41.4619 372 41.4345 371.95C41.4183 371.934 41.402 371.925 41.3857 371.925H41.3369C41.3043 371.942 41.288 371.966 41.288 371.999C41.288 372.015 41.2962 372.031 41.3125 372.048C41.3657 372.17 41.4788 372.336 41.6519 372.545C41.6142 372.977 41.5906 373.308 41.581 373.537C41.581 373.593 41.5705 373.638 41.5496 373.672C41.4962 373.61 41.4468 373.554 41.4015 373.502C41.4398 373.468 41.4589 373.43 41.4589 373.39C41.4589 373.357 41.4427 373.317 41.4101 373.268C41.345 373.17 41.2718 373.121 41.1904 373.121C41.1726 373.121 41.1547 373.124 41.1369 373.129C41.167 372.649 41.2255 372.036 41.3124 371.291C41.4101 370.282 41.4671 369.533 41.4833 369.045C41.5322 367.808 41.5566 367.141 41.5566 367.043C41.5729 366.848 41.581 366.677 41.581 366.53C41.581 366.507 41.5808 366.484 41.5804 366.462C41.718 366.611 41.8646 366.767 42.02 366.931ZM42.0288 366.717C43.1514 367.852 44.7681 369.417 46.8789 371.413L46.8789 371.413C49.5481 373.952 51.2815 375.677 52.0791 376.588C52.1116 376.605 52.1279 376.629 52.1279 376.662C52.1279 376.694 52.1116 376.727 52.0791 376.76C52.0628 376.776 52.0384 376.784 52.0058 376.784C51.9895 376.784 51.9651 376.776 51.9326 376.76C49.4749 374.269 47.7415 372.544 46.7324 371.584C44.7053 369.655 43.1345 368.104 42.02 366.931C42.0203 366.893 42.0205 366.857 42.0205 366.823C42.0235 366.787 42.0263 366.752 42.0288 366.717ZM41.5796 366.267C41.5882 366.271 41.5968 366.277 41.6054 366.286C41.7377 366.422 41.8788 366.566 42.0288 366.717C42.0395 366.568 42.0449 366.441 42.0449 366.335C42.0449 366.189 42.0368 366.066 42.0205 365.969C42.0042 365.708 41.9472 365.538 41.8496 365.456C41.8007 365.424 41.7601 365.407 41.7275 365.407C41.6624 365.407 41.6054 365.448 41.5566 365.529C41.5241 365.578 41.5078 365.627 41.5078 365.676C41.5078 365.703 41.5153 365.731 41.5303 365.759C41.5228 365.764 41.5153 365.768 41.5078 365.773C41.1009 366.034 40.5068 366.343 39.7255 366.701L39.7255 366.7C39.4337 366.832 39.1717 366.954 38.9395 367.066C38.6097 366.751 38.1963 366.353 37.6992 365.871V365.87C36.983 365.187 36.5436 364.764 36.3808 364.601C36.3764 364.596 36.3719 364.592 36.3675 364.589L36.2695 364.617C36.2623 364.628 36.2587 364.639 36.2587 364.65C36.2587 364.666 36.2669 364.69 36.2832 364.723C37.2171 365.838 38.0326 366.653 38.7295 367.168C38.3789 367.341 38.1087 367.486 37.9189 367.603C36.9869 368.163 36.2822 368.886 35.805 369.774C33.9993 367.881 32.8756 366.669 32.434 366.14C32.3557 366.177 32.2803 366.213 32.2079 366.248C32.401 366.699 32.8643 367.298 33.5976 368.044C34.2013 368.677 34.8982 369.33 35.6884 370.003C35.6663 370.049 35.6449 370.096 35.624 370.142C35.4303 370.578 35.3086 370.992 35.259 371.382C35.1623 371.267 34.8771 371.017 34.4033 370.632L34.4033 370.633C33.801 370.144 33.329 369.754 32.9872 369.461C31.8805 368.517 31.2131 367.719 30.9853 367.068C30.969 367.052 30.9446 367.043 30.912 367.043C30.8958 367.043 30.8795 367.052 30.8632 367.068C30.8469 367.101 30.8388 367.141 30.8388 367.19C30.8388 367.385 30.969 367.654 31.2294 367.996C31.4573 368.305 31.856 368.72 32.4257 369.241C32.7838 369.599 33.2964 370.038 33.9638 370.559C34.6636 371.145 35.0705 371.462 35.1845 371.511H35.2089C35.2214 371.511 35.2339 371.506 35.2465 371.497C35.2377 371.592 35.2333 371.686 35.2333 371.778C35.2333 372.348 35.4042 372.869 35.746 373.341C36.2649 374.067 37.0403 374.463 38.0722 374.527C38.417 374.936 38.6344 375.192 38.7245 375.295C38.8059 375.376 38.9768 375.596 39.2372 375.954C39.4326 376.231 39.6035 376.45 39.7499 376.613C39.7662 376.63 39.7825 376.638 39.7988 376.638C39.8313 376.638 39.8557 376.63 39.872 376.613C39.8883 376.597 39.8965 376.572 39.8965 376.54V376.491C39.5813 375.861 39.0862 375.209 38.4109 374.537C38.9303 374.526 39.8385 374.228 41.1354 373.641C41.1637 373.709 41.2248 373.747 41.3187 373.755C41.4025 373.864 41.4981 373.987 41.6054 374.123C41.8702 374.444 42.1171 374.651 42.3461 374.745L42.3544 374.73C42.3581 374.737 42.3625 374.745 42.3674 374.753C42.3986 374.765 42.4294 374.775 42.4599 374.782H42.4843C42.5331 374.782 42.5657 374.766 42.582 374.733C42.5983 374.717 42.6064 374.701 42.6064 374.684C42.6064 374.652 42.5901 374.628 42.5576 374.611L42.4603 374.531C42.4411 374.551 42.4247 374.578 42.4112 374.612C42.3952 374.651 42.3763 374.69 42.3544 374.73C42.3434 374.706 42.3379 374.683 42.3379 374.66C42.3379 374.614 42.3665 374.561 42.4237 374.501C42.0615 374.203 41.8294 373.995 41.7275 373.879L41.7275 373.878C41.6639 373.804 41.6046 373.735 41.5496 373.672C41.5152 373.729 41.4524 373.757 41.3613 373.757C41.3464 373.757 41.3322 373.756 41.3187 373.755C41.2786 373.703 41.2412 373.654 41.2065 373.609L41.3125 373.56C41.349 373.542 41.3787 373.523 41.4015 373.502C41.2846 373.37 41.1948 373.271 41.1323 373.206L41.1369 373.129C41.1222 373.133 41.1075 373.139 41.0927 373.146L41.0792 373.153C41.0644 373.139 41.0527 373.128 41.0439 373.122C41.0276 373.105 41.0113 373.097 40.995 373.097C40.9788 373.097 40.9625 373.105 40.9462 373.122C40.9299 373.138 40.9218 373.162 40.9218 373.195V373.22L40.925 373.225C40.0203 373.647 39.5066 373.881 39.3837 373.927C39.0582 374.025 38.7327 374.074 38.4072 374.074C38.2294 374.074 38.0516 374.061 37.8737 374.035C37.8596 374.028 37.8421 374.025 37.8212 374.025L37.8175 374.025L37.8127 374.026C37.7667 374.018 37.7207 374.01 37.6748 374C37.1539 373.903 36.7063 373.683 36.332 373.341C35.9739 372.999 35.7786 372.511 35.7461 371.876V371.681C35.7461 371.187 35.8559 370.705 36.0755 370.237C36.0905 370.233 36.1027 370.226 36.1122 370.217C36.1285 370.2 36.1367 370.176 36.1367 370.143C36.1367 370.138 36.1348 370.131 36.131 370.124C36.3665 369.661 36.7102 369.212 37.1621 368.776C37.6015 368.336 38.7083 367.694 40.4824 366.847C40.8455 366.672 41.1798 366.497 41.4851 366.321C41.4839 366.326 41.4833 366.33 41.4833 366.335C41.4833 366.351 41.4915 366.367 41.5078 366.384L41.5804 366.462C41.5791 366.393 41.5757 366.329 41.5703 366.272L41.5796 366.267ZM41.5694 366.263C41.5652 366.262 41.5609 366.261 41.5566 366.261C41.5404 366.261 41.5241 366.269 41.5078 366.286C41.4959 366.298 41.4883 366.309 41.4851 366.321C41.5138 366.305 41.5422 366.288 41.5703 366.272L41.5694 366.263ZM41.5694 366.263C41.5728 366.264 41.5762 366.265 41.5796 366.267C41.6382 366.232 41.6956 366.198 41.7519 366.164C41.817 366.115 41.8496 366.058 41.8496 365.993C41.8496 365.944 41.8333 365.895 41.8007 365.847C41.7682 365.765 41.7194 365.724 41.6543 365.724C41.6129 365.724 41.5716 365.736 41.5303 365.759C41.5374 365.773 41.5461 365.786 41.5566 365.799V366.164C41.5617 366.195 41.5659 366.228 41.5694 366.263ZM36.131 370.124C36.1236 370.109 36.1093 370.092 36.0879 370.07L35.805 369.774C35.7645 369.849 35.7256 369.926 35.6884 370.003C35.7717 370.074 35.856 370.145 35.9413 370.217C35.9739 370.233 36.0064 370.242 36.039 370.242C36.0526 370.242 36.0647 370.24 36.0755 370.237C36.0933 370.199 36.1118 370.162 36.131 370.124ZM37.8127 374.026C37.7993 374.028 37.7859 374.036 37.7724 374.05C37.7561 374.066 37.7479 374.09 37.7479 374.123C37.7479 374.139 37.7561 374.155 37.7724 374.172L38.0722 374.527C38.1733 374.534 38.2768 374.537 38.3828 374.537L38.4109 374.537C38.2491 374.376 38.077 374.213 37.8945 374.05H37.8945C37.8886 374.044 37.8817 374.039 37.8737 374.035C37.8534 374.032 37.8331 374.029 37.8127 374.026ZM41.1186 373.493C41.1218 373.403 41.1264 373.308 41.1323 373.206C41.1116 373.184 41.0939 373.167 41.0792 373.153L40.925 373.225C40.9669 373.287 41.0315 373.376 41.1186 373.493ZM41.1186 373.493L41.1171 373.537C41.1171 373.577 41.1232 373.612 41.1354 373.641L41.2065 373.609C41.175 373.568 41.1457 373.529 41.1186 373.493ZM35.2465 371.497C35.2502 371.494 35.254 371.49 35.2577 371.487C35.274 371.47 35.2822 371.454 35.2822 371.438V371.413C35.2763 371.404 35.2686 371.394 35.259 371.382C35.2541 371.421 35.25 371.459 35.2465 371.497ZM38.7295 367.168C38.7856 367.209 38.8409 367.249 38.8955 367.287C38.9117 367.303 38.928 367.311 38.9443 367.311C38.9768 367.311 39.0012 367.295 39.0175 367.262C39.0338 367.246 39.042 367.23 39.042 367.214C39.042 367.181 39.0338 367.157 39.0175 367.14L38.9395 367.066C38.8666 367.101 38.7966 367.135 38.7295 367.168ZM41.6519 372.545C41.66 372.451 41.6689 372.353 41.6784 372.249C42.0247 372.631 42.7247 373.337 43.7783 374.367L43.7783 374.367C43.8888 374.477 44.7192 375.43 46.2695 377.226C46.1381 377.193 46.0097 377.158 45.8843 377.119C44.4201 375.421 43.6204 374.511 43.4853 374.391C42.6196 373.591 42.0085 372.976 41.6519 372.545ZM41.8223 370.702C42.3539 371.272 43.4942 372.339 45.2432 373.903C46.5959 375.099 47.7282 376.287 48.6402 377.467C48.7299 377.466 48.8196 377.464 48.9093 377.461C48.2551 376.474 47.1307 375.272 45.5361 373.854L45.5361 373.854C43.699 372.201 42.4666 371.088 41.8391 370.514L41.8223 370.702ZM53.3111 376.409L53.3486 376.442C53.3811 376.458 53.4055 376.467 53.4218 376.467C53.4544 376.467 53.4869 376.45 53.5195 376.418C53.552 376.385 53.5683 376.361 53.5683 376.344C53.5683 376.325 53.5627 376.309 53.5514 376.295C53.475 376.33 53.3949 376.368 53.3111 376.409ZM41.2742 375.69C41.2049 375.617 41.1037 375.509 40.9707 375.368L40.9706 375.368L40.6532 375.051C40.523 374.904 40.4254 374.798 40.3603 374.733C40.0673 374.44 39.872 374.294 39.7743 374.294C39.7418 374.294 39.7174 374.31 39.7011 374.343V374.367C39.7011 374.383 39.7092 374.4 39.7255 374.416H39.7988C39.7988 374.449 40.0185 374.709 40.4579 375.198C40.729 375.488 40.9381 375.693 41.0853 375.811C41.1385 375.776 41.1899 375.742 41.2393 375.711L41.2742 375.69ZM38.7418 377.446C37.5296 375.437 36.0672 373.687 34.3545 372.194L34.3546 372.196C31.8969 370.031 30.4564 368.591 30.0333 367.874C30.0658 367.874 30.0902 367.866 30.1065 367.85C30.1065 367.834 30.0984 367.817 30.0821 367.801C30.0414 367.766 30.0029 367.728 29.9664 367.687C29.9153 367.739 29.8646 367.792 29.8144 367.847C30.3939 368.845 31.7283 370.245 33.8174 372.048C35.69 373.653 37.2583 375.494 38.5224 377.571C38.5946 377.532 38.6677 377.49 38.7418 377.446ZM37.4769 378.01C36.6187 376.931 35.6185 375.717 34.4765 374.367L34.4766 374.367C33.5977 373.342 32.8978 372.585 32.377 372.097C31.4004 371.201 30.7087 370.534 30.3018 370.095C29.9112 369.704 29.6019 369.362 29.3741 369.069C29.2703 368.934 29.1919 368.812 29.1391 368.703C29.1071 368.75 29.0754 368.797 29.0439 368.845C29.1599 369.063 29.3513 369.333 29.6181 369.655C30.025 370.144 30.7575 370.884 31.8154 371.877C32.8155 372.799 34.6184 374.869 37.2239 378.086C37.3096 378.062 37.3939 378.037 37.4769 378.01ZM36.2377 378.294C36.268 378.264 36.2832 378.24 36.2832 378.224C36.2832 378.192 36.2669 378.159 36.2343 378.127C33.9892 375.589 31.3375 372.978 28.2792 370.293C28.2678 370.323 28.2566 370.352 28.2456 370.382C32.3687 374.457 34.9746 377.095 36.0634 378.298L36.0729 378.307L36.0797 378.313C36.1236 378.309 36.167 378.304 36.21 378.299L36.2377 378.294ZM33.6437 378.147C33.4961 378.115 33.3462 378.08 33.1938 378.04C32.0195 376.852 31.0636 375.766 30.3261 374.782C30.0169 374.359 29.5368 373.781 28.8857 373.049C28.4018 372.51 28.0764 372.111 27.9096 371.854C27.9151 371.796 27.9214 371.737 27.9286 371.679C31.2144 375.388 33.1194 377.544 33.6437 378.147ZM31.3788 377.435C31.0094 376.913 30.3819 376.183 29.4961 375.246L29.4961 375.246C29.3008 375.035 29.0485 374.783 28.7392 374.49C28.6416 374.408 28.5358 374.31 28.4219 374.197C28.3893 374.164 28.3486 374.124 28.2998 374.075C28.2835 374.059 28.2753 374.042 28.2753 374.026C28.3079 374.01 28.3242 373.993 28.3242 373.977C28.3242 373.961 28.3079 373.944 28.2753 373.928H28.1777C28.1452 373.928 28.1207 373.944 28.1044 373.977L28.1044 373.984C28.1292 374.07 28.156 374.154 28.1848 374.238C28.2336 374.313 28.3044 374.397 28.3974 374.49C28.4788 374.555 28.5764 374.636 28.6904 374.734C28.8043 374.831 28.8775 374.888 28.9101 374.905C29.1868 375.165 29.61 375.629 30.1796 376.296C30.2447 376.378 30.4563 376.654 30.8144 377.126C30.8404 377.159 30.8661 377.191 30.8914 377.222C31.0484 377.295 31.2109 377.365 31.3788 377.435ZM33.2989 365.733C33.3219 365.763 33.3482 365.793 33.3779 365.822H33.4023C33.5651 366.018 33.9557 366.4 34.5742 366.97C35.1276 367.458 35.6647 368.052 36.1855 368.752C36.218 368.785 36.2425 368.801 36.2588 368.801C36.275 368.801 36.2913 368.793 36.3076 368.776C36.3401 368.76 36.3564 368.736 36.3564 368.703V368.654C36.1611 368.231 35.7054 367.694 34.9892 367.043L34.9892 367.043C34.8102 366.864 34.5335 366.612 34.1592 366.286C33.8609 366.027 33.6246 365.819 33.4503 365.663L33.2989 365.733ZM34.5955 365.154C34.672 365.125 34.7533 365.096 34.8394 365.065C34.9075 365.126 34.9819 365.199 35.0625 365.284C35.1602 365.398 35.2822 365.536 35.4287 365.699L35.6484 365.968C36.0228 366.375 36.3727 366.773 36.6982 367.164L36.6982 367.165C37.0563 367.572 37.2516 367.824 37.2841 367.921C37.3004 367.938 37.3086 367.954 37.3086 367.97C37.3086 368.003 37.2923 368.027 37.2598 368.044C37.2435 368.06 37.2272 368.068 37.2109 368.068C37.1946 368.068 37.1702 368.052 37.1377 368.02L35.7461 366.408C35.4043 366.018 35.1113 365.7 34.8672 365.456L34.5955 365.154ZM37.6621 364.237L37.8096 364.199C38.0384 364.572 38.3841 364.975 38.8466 365.406L38.8466 365.407C39.5791 366.074 39.9453 366.416 39.9453 366.432C39.9616 366.432 39.9697 366.44 39.9697 366.457C39.9697 366.474 39.9616 366.49 39.9453 366.506C39.929 366.538 39.9127 366.555 39.8965 366.555C39.8802 366.555 39.8639 366.547 39.8476 366.53C39.5384 366.335 39.1233 365.977 38.6025 365.456C38.1269 364.98 37.8135 364.574 37.6621 364.237ZM39.0571 363.894C39.2025 364.108 39.3602 364.279 39.5302 364.406C40.4254 365.171 40.9625 365.611 41.1415 365.725C41.1578 365.741 41.1741 365.749 41.1904 365.749C41.2066 365.749 41.2229 365.741 41.2392 365.725C41.2555 365.708 41.2636 365.684 41.2636 365.651V365.627C41.1497 365.464 40.8893 365.22 40.4824 364.894L40.4824 364.894C39.9616 364.471 39.693 364.259 39.6767 364.259C39.5954 364.211 39.4977 364.121 39.3838 363.991C39.3377 363.939 39.2956 363.893 39.2577 363.854C39.1918 363.866 39.1249 363.88 39.0571 363.894ZM40.5778 363.607C40.6311 363.59 40.6825 363.573 40.7319 363.554C41.1535 363.964 41.8923 364.639 42.9483 365.577C43.9412 366.456 44.7061 367.197 45.2432 367.799C45.6013 368.206 46.3419 368.914 47.4649 369.923L47.4648 369.923C48.4414 370.786 49.1575 371.526 49.6132 372.145C49.6295 372.161 49.6377 372.178 49.6377 372.194C49.6377 372.226 49.6214 372.251 49.5889 372.267C49.5563 372.284 49.5319 372.292 49.5156 372.292C49.4831 372.292 49.4587 372.284 49.4424 372.267C48.9541 371.649 48.1891 370.884 47.1475 369.972C46.5615 369.435 45.8291 368.711 44.9502 367.799C44.5433 367.344 43.8027 366.636 42.7285 365.675C41.7826 364.838 41.0657 364.148 40.5778 363.607ZM41.5277 362.967C41.6617 363.2 41.9398 363.517 42.3622 363.917C42.6064 364.145 43.2981 364.739 44.4374 365.7C45.0559 366.204 45.8697 367.059 46.8788 368.263C47.9042 369.484 48.718 370.346 49.3202 370.851C49.3365 370.867 49.3609 370.876 49.3935 370.876C49.426 370.876 49.4586 370.859 49.4911 370.827C49.5074 370.811 49.5156 370.786 49.5156 370.753C49.5156 370.737 49.4993 370.713 49.4668 370.68C48.7506 370.045 47.888 369.126 46.8789 367.921V367.921C45.9349 366.814 45.2675 366.09 44.8769 365.748C44.6653 365.569 44.3317 365.293 43.8759 364.918C43.4365 364.56 43.1028 364.292 42.875 364.113C42.2074 363.538 41.7917 363.107 41.6279 362.817C41.5959 362.87 41.5625 362.92 41.5277 362.967ZM42.03 361.731C42.6526 362.373 43.7318 363.394 45.2676 364.797C45.6094 365.138 47.001 366.62 49.4424 369.24C49.4749 369.257 49.4993 369.265 49.5156 369.265C49.5482 369.265 49.5726 369.257 49.5889 369.24C49.6063 369.223 49.6191 369.203 49.6272 369.181L49.6308 369.085C49.6268 369.073 49.6209 369.06 49.6132 369.044C47.8229 367.075 46.472 365.651 45.5605 364.772L45.5606 364.772C45.4141 364.626 44.7142 364.032 43.461 362.99C42.9006 362.516 42.4294 362.07 42.0474 361.653C42.0419 361.68 42.036 361.706 42.03 361.731ZM53.8817 374.41C53.8177 374.208 53.775 374.059 53.7536 373.96C53.85 373.95 53.951 373.939 54.0566 373.928H54.1054C54.1551 373.928 54.194 373.94 54.222 373.965L54.2249 373.971L54.2275 373.976C54.2435 374.025 54.2596 374.065 54.2755 374.097L54.2761 374.108L54.2763 374.123C54.2763 374.286 54.2031 374.375 54.0566 374.391L53.8817 374.41ZM54.3804 376.029L54.3984 376.027C54.5449 376.027 54.6181 376.1 54.6181 376.247C54.6181 376.41 54.5449 376.491 54.3984 376.491L54.3758 376.501C54.3583 376.471 54.3496 376.443 54.3496 376.418C54.3496 376.365 54.3659 376.317 54.3984 376.275V376.174C54.3984 376.135 54.3924 376.086 54.3804 376.029ZM49.8578 364.406C49.8525 364.561 49.8462 364.72 49.839 364.883C49.8453 364.895 49.8514 364.907 49.8574 364.919C49.8737 364.952 49.8981 364.968 49.9307 364.968C49.9469 364.968 49.9714 364.96 50.0039 364.943C50.0527 364.927 50.0772 364.902 50.0772 364.87C50.0772 364.854 50.069 364.837 50.0527 364.821C50.0084 364.682 49.9435 364.544 49.8578 364.406ZM39.3313 354.098C40.1483 355.02 41.0366 355.884 41.9961 356.691C43.8515 358.221 44.9095 359.108 45.1699 359.352C45.5442 359.71 46.0081 360.247 46.5615 360.963L46.5615 360.963C47.18 361.745 47.6357 362.282 47.9287 362.575C47.9124 362.575 48.3111 362.916 49.125 363.6C49.4473 363.869 49.6916 364.137 49.8578 364.406C49.8738 363.943 49.8818 363.511 49.8818 363.112C49.8818 362.217 49.8411 361.501 49.7598 360.964C49.621 360.142 49.3878 359.376 49.06 358.666C49.0654 358.668 49.0707 358.669 49.0761 358.669C49.1086 358.669 49.133 358.661 49.1493 358.644C49.1656 358.628 49.1738 358.603 49.1738 358.571V358.522C49.056 358.359 48.8957 358.172 48.6928 357.961C48.6204 357.837 48.5447 357.715 48.4658 357.595C47.7822 356.553 46.8789 355.715 45.7558 355.08C45.2025 354.771 44.6409 354.543 44.0713 354.396C43.8425 354.336 43.4222 354.281 42.8104 354.229L42.6552 354.103C42.639 354.086 42.6227 354.078 42.6064 354.078C42.5901 354.078 42.5739 354.086 42.5576 354.103C42.5413 354.119 42.5331 354.135 42.5331 354.152C42.5331 354.168 42.5413 354.184 42.5576 354.201L42.5685 354.21C42.42 354.199 42.2617 354.188 42.0937 354.177C41.7466 354.145 41.4338 354.119 41.1552 354.099C41.0723 354.001 40.9945 353.905 40.922 353.81C40.9057 353.794 40.8894 353.786 40.8731 353.786H40.8487C40.8324 353.802 40.8242 353.826 40.8242 353.859V353.884C40.8641 353.951 40.9063 354.018 40.9507 354.086C40.6164 354.065 40.3383 354.055 40.1162 354.055H39.9209C39.7385 354.06 39.542 354.074 39.3313 354.098ZM39.3313 354.098C39.2752 354.035 39.2195 353.972 39.164 353.908L39.1396 353.834C39.1233 353.802 39.0989 353.778 39.0663 353.761H39.0175C38.985 353.761 38.9606 353.777 38.9443 353.81V353.859L39.1361 354.123C39.2025 354.114 39.2675 354.106 39.3313 354.098ZM40.9507 354.086C41.3594 354.708 41.9602 355.357 42.7529 356.032C42.9483 356.195 43.3307 356.504 43.9004 356.96C44.3887 357.351 44.763 357.668 45.0234 357.912C46.7975 359.507 48.3275 361.216 49.6133 363.039C49.6296 363.072 49.654 363.088 49.6865 363.088C49.7028 363.088 49.7272 363.08 49.7598 363.063C49.8086 363.047 49.833 363.022 49.833 362.99C49.833 362.957 49.8249 362.933 49.8086 362.916C49.0436 361.712 47.595 360.076 45.4629 358.009L45.463 358.01C45.2188 357.766 44.4294 357.09 43.0948 355.983C42.2772 355.29 41.6307 354.662 41.1552 354.099C41.0849 354.094 41.0167 354.09 40.9507 354.086ZM42.5685 354.21C42.6522 354.216 42.7329 354.223 42.8104 354.229C44.7403 355.805 45.9907 356.894 46.5615 357.496L46.5615 357.497C48.3844 359.417 49.3935 360.451 49.5888 360.597C49.6214 360.63 49.6377 360.662 49.6377 360.695C49.6377 360.711 49.6295 360.728 49.6132 360.744C49.5807 360.793 49.5481 360.817 49.5156 360.817C49.4993 360.817 49.483 360.809 49.4667 360.792C49.3854 360.727 48.36 359.677 46.3906 357.643C45.8057 357.042 44.5317 355.898 42.5685 354.21ZM48.6928 357.961C48.3071 357.56 47.7675 357.072 47.0742 356.496L47.0742 356.496C46.2766 355.829 45.5279 355.235 44.8281 354.714C44.8118 354.697 44.7955 354.689 44.7792 354.689C44.763 354.689 44.7467 354.705 44.7304 354.738V354.836C44.8118 354.901 45.5442 355.511 46.9277 356.667C47.3508 357.008 48.0507 357.668 49.0273 358.644C49.0382 358.655 49.0491 358.663 49.06 358.666C48.9486 358.425 48.8262 358.19 48.6928 357.961ZM35.9949 354.844C35.9852 354.838 35.9755 354.835 35.9658 354.835H35.9413C35.9172 354.847 35.902 354.859 35.8958 354.871L35.9949 354.844ZM34.4025 355.315C34.2284 355.176 34.1147 355.098 34.0615 355.08H34.037C34.0045 355.08 33.9801 355.096 33.9638 355.129V355.154C33.9638 355.186 33.9801 355.211 34.0126 355.227C34.0249 355.227 34.0881 355.278 34.2024 355.38C34.2679 355.358 34.3346 355.337 34.4025 355.315ZM31.7236 356.437C31.7034 356.424 31.6933 356.411 31.6933 356.399C31.6933 356.382 31.7015 356.366 31.7178 356.35C31.7341 356.333 31.7585 356.325 31.791 356.325H31.8398C31.8519 356.331 31.8674 356.338 31.8862 356.347C31.8312 356.377 31.777 356.407 31.7236 356.437ZM38.6988 356.083C38.6589 356.082 38.6187 356.082 38.5781 356.082H38.5452C38.4006 355.975 38.1999 355.763 37.9433 355.446C37.8782 355.364 37.6748 355.12 37.333 354.713C37.3167 354.681 37.3085 354.656 37.3085 354.64C37.3085 354.623 37.3167 354.607 37.333 354.591C37.3493 354.558 37.3655 354.542 37.3818 354.542C37.4143 354.542 37.4388 354.558 37.455 354.591C37.569 354.689 37.7806 354.916 38.0898 355.275C38.1549 355.356 38.2607 355.47 38.4072 355.617L38.4072 355.617C38.5374 355.763 38.6351 355.877 38.7002 355.959C38.7165 355.975 38.7246 355.991 38.7246 356.007C38.7246 356.024 38.7165 356.048 38.7002 356.081L38.6988 356.083ZM41.6268 365.868L41.6298 365.871L41.6298 365.871L41.6268 365.868ZM32.9872 361.647C33.4918 362.152 33.7603 362.437 33.7929 362.502V362.551C33.7929 362.567 33.7848 362.584 33.7685 362.6C33.7522 362.616 33.7359 362.624 33.7196 362.624H33.6952C33.5975 362.576 33.272 362.266 32.7186 361.697C32.2303 361.208 31.8234 360.777 31.4979 360.403C30.5539 359.329 30.0087 358.555 29.8622 358.083C29.8622 358.051 29.8784 358.026 29.911 358.01C29.9435 358.01 29.968 358.018 29.9842 358.035C30.7167 359.109 31.3433 359.931 31.8641 360.501C32.1896 360.842 32.564 361.225 32.9872 361.648L32.9872 361.647Z" fill="#999999"/>
</g>
<rect id="rect7346" x="0.984131" y="236.583" width="83" height="6" fill="#E6E6E6"/>
<g id="text6563">
<path id="path7504" fill-rule="evenodd" clip-rule="evenodd" d="M18.8594 22.6143H20.5195C21.6304 22.6143 22.4666 22.3803 23.0281 21.9124C23.5896 21.4403 23.8704 20.7486 23.8704 19.8372C23.8704 19.4099 23.8012 19.0254 23.6628 18.6836C23.5245 18.3418 23.321 18.0529 23.0525 17.8169C22.788 17.5809 22.4727 17.412 22.1064 17.3103C21.7362 17.2045 21.2072 17.1516 20.5195 17.1516H18.1941C17.7953 17.1516 17.5044 17.2371 17.3213 17.408C17.1382 17.5789 17.0466 17.8637 17.0466 18.2625V25.1594C17.0466 25.5175 17.13 25.7901 17.2969 25.9773C17.4637 26.1604 17.6834 26.252 17.9561 26.252C18.2165 26.252 18.4321 26.1584 18.603 25.9712C18.7739 25.784 18.8594 25.5094 18.8594 25.1472V22.6143ZM18.8594 18.5127H20.0801C20.8898 18.5127 21.4249 18.6449 21.6853 18.9094C21.9172 19.1576 22.0332 19.4791 22.0332 19.8738C22.0332 20.2034 21.9579 20.4699 21.8074 20.6733C21.6568 20.8768 21.4371 21.0233 21.1482 21.1128C20.8634 21.2023 20.5073 21.2471 20.0801 21.2471H18.8594V18.5127Z" fill="#005500"/>
<path id="path7506" d="M27.2212 18.0977V20.6611H31.1335V18.0977C31.1335 17.7314 31.2149 17.4568 31.3777 17.2737C31.5445 17.0906 31.7622 16.999 32.0308 16.999C32.3034 16.999 32.5231 17.0906 32.6899 17.2737C32.8608 17.4527 32.9463 17.7274 32.9463 18.0977V25.1472C32.9463 25.5175 32.8608 25.7942 32.6899 25.9773C32.519 26.1604 32.2993 26.252 32.0308 26.252C31.7581 26.252 31.5404 26.1604 31.3777 25.9773C31.2149 25.7901 31.1335 25.5134 31.1335 25.1472V22.1382H27.2212V25.1472C27.2212 25.5175 27.1357 25.7942 26.9648 25.9773C26.7939 26.1604 26.5742 26.252 26.3057 26.252C26.033 26.252 25.8153 26.1604 25.6526 25.9773C25.4898 25.7901 25.4084 25.5134 25.4084 25.1472V18.0977C25.4084 17.7314 25.4878 17.4568 25.6465 17.2737C25.8092 17.0906 26.029 16.999 26.3057 16.999C26.5783 16.999 26.798 17.0906 26.9648 17.2737C27.1357 17.4527 27.2212 17.7274 27.2212 18.0977H27.2212Z" fill="black"/>
<path id="path7508" fill-rule="evenodd" clip-rule="evenodd" d="M40.1912 23.9631L40.6184 25.0862H40.6184C40.6754 25.2245 40.7425 25.3853 40.8198 25.5684C40.9012 25.7474 40.9765 25.8817 41.0457 25.9712C41.1148 26.0566 41.2003 26.1238 41.302 26.1726C41.4037 26.2255 41.5258 26.252 41.6682 26.252C41.9124 26.252 42.1199 26.1665 42.2908 25.9956C42.4658 25.8206 42.5532 25.6294 42.5532 25.4219C42.5532 25.2225 42.4617 24.9031 42.2786 24.4636L39.9409 18.6897C39.8311 18.4008 39.7395 18.1709 39.6663 18C39.5971 17.825 39.5096 17.6623 39.4038 17.5117C39.3021 17.3612 39.1658 17.2391 38.9949 17.1455C38.828 17.0479 38.6185 16.999 38.3662 16.999C38.118 16.999 37.9085 17.0479 37.7376 17.1455C37.5707 17.2391 37.4344 17.3632 37.3286 17.5178C37.2269 17.6724 37.1292 17.8678 37.0357 18.1038C36.9461 18.3357 36.8688 18.5351 36.8037 18.7019L34.5149 24.5125C34.4213 24.7444 34.3542 24.9255 34.3135 25.0557C34.2728 25.1859 34.2524 25.312 34.2524 25.4341C34.2524 25.6457 34.3399 25.8349 34.5149 26.0017C34.6899 26.1685 34.8913 26.252 35.1191 26.252C35.3877 26.252 35.581 26.1746 35.699 26.02C35.817 25.8613 35.9594 25.5582 36.1262 25.1106L36.5535 23.9631H40.1912ZM39.7029 22.6021H37.0295L38.354 18.9094L39.7029 22.6021Z" fill="black"/>
<path id="path7510" d="M50.677 23.4138C50.677 23.955 50.5366 24.4412 50.2559 24.8726C49.9792 25.3039 49.5723 25.6416 49.0352 25.8857C48.498 26.1299 47.8612 26.252 47.1248 26.252C46.2418 26.252 45.5134 26.0851 44.9397 25.7515C44.5328 25.5114 44.2012 25.192 43.9448 24.7932C43.6925 24.3904 43.5664 23.9998 43.5664 23.6213C43.5664 23.4016 43.6417 23.2144 43.7922 23.0598C43.9469 22.9011 44.1422 22.8218 44.3782 22.8218C44.5694 22.8218 44.7301 22.8828 44.8603 23.0049C44.9946 23.127 45.1085 23.308 45.2021 23.5481C45.3161 23.8329 45.4381 24.071 45.5683 24.2622C45.7026 24.4535 45.8898 24.6121 46.1299 24.7383C46.3699 24.8604 46.6853 24.9214 47.0759 24.9214C47.613 24.9214 48.0484 24.7973 48.3821 24.5491C48.7198 24.2968 48.8886 23.9835 48.8886 23.6091C48.8886 23.3121 48.7971 23.072 48.614 22.8889C48.4349 22.7017 48.201 22.5593 47.9121 22.4617C47.6272 22.364 47.2447 22.2603 46.7646 22.1504C46.1217 21.9998 45.5826 21.8249 45.1472 21.6255C44.7159 21.422 44.372 21.1474 44.1157 20.8015C43.8634 20.4516 43.7373 20.0182 43.7373 19.5015C43.7373 19.0091 43.8715 18.5717 44.1401 18.1892C44.4086 17.8067 44.7972 17.5138 45.3059 17.3103C45.8145 17.1028 46.4126 16.999 47.1003 16.999C47.6496 16.999 48.1237 17.0682 48.5224 17.2065C48.9253 17.3408 49.2589 17.5219 49.5234 17.7498C49.7879 17.9736 49.9812 18.2096 50.1032 18.4578C50.2253 18.706 50.2863 18.9481 50.2863 19.1841C50.2863 19.3997 50.209 19.5951 50.0544 19.77C49.9039 19.9409 49.7147 20.0264 49.4868 20.0264C49.2793 20.0264 49.1206 19.9755 49.0107 19.8738C48.9049 19.768 48.7889 19.5971 48.6628 19.3611C48.5 19.0234 48.3047 18.7609 48.0769 18.5737C47.849 18.3825 47.4828 18.2869 46.9782 18.2869C46.5103 18.2869 46.1319 18.3906 45.843 18.5981C45.5581 18.8016 45.4157 19.0478 45.4157 19.3367C45.4157 19.5157 45.4645 19.6703 45.5622 19.8005C45.6599 19.9307 45.7941 20.0426 45.965 20.1362C46.1359 20.2298 46.3089 20.3031 46.4838 20.356C46.6588 20.4089 46.9477 20.4862 47.3505 20.5879C47.8551 20.7059 48.3108 20.8361 48.7177 20.9785C49.1287 21.1209 49.4766 21.2939 49.7614 21.4973C50.0503 21.7008 50.2741 21.9591 50.4328 22.2725C50.5956 22.5817 50.6769 22.9622 50.6769 23.4138L50.677 23.4138Z" fill="black"/>
<path id="path7512" d="M58.1233 18.5493H54.04V20.7466H57.7998C58.0765 20.7466 58.282 20.8097 58.4162 20.9358C58.5546 21.0579 58.6238 21.2206 58.6238 21.4241C58.6238 21.6275 58.5566 21.7944 58.4224 21.9246C58.2881 22.0507 58.0806 22.1138 57.7998 22.1138H54.0401V24.6589H58.2637C58.5485 24.6589 58.7621 24.7261 58.9046 24.8604C59.051 24.9906 59.1243 25.1655 59.1243 25.3853C59.1243 25.5968 59.051 25.7698 58.9046 25.9041C58.7621 26.0343 58.5485 26.0994 58.2637 26.0994H53.3381C52.9435 26.0994 52.6586 26.0119 52.4837 25.8369C52.3127 25.6619 52.2273 25.3791 52.2273 24.9885V18.2624C52.2273 18.002 52.266 17.7904 52.3433 17.6277C52.4206 17.4609 52.5406 17.3408 52.7034 17.2676C52.8702 17.1903 53.0818 17.1516 53.3381 17.1516H58.1233C58.4122 17.1516 58.6258 17.2167 58.7642 17.3469C58.9066 17.4731 58.9778 17.6399 58.9778 17.8474C58.9778 18.059 58.9066 18.2299 58.7642 18.3601C58.6258 18.4862 58.4122 18.5493 58.1233 18.5493H58.1233Z" fill="black"/>
<path id="path7514" fill-rule="evenodd" clip-rule="evenodd" d="M62.3774 22.2725H63.0122C63.3337 22.2725 63.6002 22.3152 63.8118 22.4006C64.0233 22.4861 64.2309 22.6448 64.4343 22.8767C64.6418 23.1086 64.8758 23.4464 65.1362 23.8899L65.8625 25.0984C66.0334 25.3832 66.1677 25.5989 66.2654 25.7454C66.3671 25.8918 66.4871 26.0119 66.6255 26.1055C66.7638 26.2031 66.9347 26.252 67.1382 26.252C67.3091 26.252 67.4596 26.2174 67.5898 26.1482C67.72 26.0831 67.8218 25.9936 67.895 25.8796C67.9723 25.7616 68.011 25.6436 68.011 25.5256C68.011 25.4117 67.9459 25.2042 67.8157 24.9031C67.6895 24.5979 67.5105 24.2581 67.2786 23.8838C67.0507 23.5054 66.7903 23.1493 66.4973 22.8157C66.2043 22.482 65.8971 22.2297 65.5757 22.0588C66.3407 21.892 66.9103 21.6092 67.2847 21.2105C67.6631 20.8117 67.8523 20.2786 67.8523 19.6113C67.8523 19.2858 67.7953 18.9786 67.6814 18.6897C67.5715 18.3967 67.4088 18.1404 67.1931 17.9207C66.9775 17.7009 66.7292 17.5321 66.4485 17.4141C66.2166 17.3083 65.9561 17.2391 65.6672 17.2065C65.3783 17.1699 65.0304 17.1516 64.6235 17.1516H61.6755C61.2849 17.1516 61.0021 17.2391 60.8272 17.4141C60.6522 17.589 60.5647 17.8718 60.5647 18.2625V25.1472C60.5647 25.5094 60.644 25.784 60.8027 25.9712C60.9614 26.1584 61.1852 26.252 61.4741 26.252C61.7427 26.252 61.9604 26.1624 62.1272 25.9834C62.294 25.8044 62.3774 25.5256 62.3774 25.1472V22.2725ZM62.3774 18.5127H64.0498C64.6724 18.5127 65.0894 18.5575 65.301 18.647C65.5248 18.7406 65.6998 18.883 65.8259 19.0742C65.9521 19.2614 66.0151 19.4791 66.0151 19.7273C66.0151 20.0447 65.9358 20.2949 65.7771 20.478C65.6225 20.6571 65.3966 20.7852 65.0996 20.8626C64.8026 20.9358 64.4363 20.9724 64.001 20.9724H62.3774V18.5127Z" fill="black"/>
</g>
</g>
<g id="layer5">
<g id="text7418">
<path id="path7467" fill-rule="evenodd" clip-rule="evenodd" d="M34.1389 45.8618H34.5198C34.7127 45.8618 34.8726 45.8875 34.9995 45.9387C35.1265 45.99 35.251 46.0852 35.373 46.2244C35.4976 46.3635 35.6379 46.5662 35.7942 46.8323L36.23 47.5573C36.3325 47.7282 36.4131 47.8576 36.4717 47.9455C36.5327 48.0334 36.6047 48.1054 36.6877 48.1616C36.7708 48.2202 36.8733 48.2495 36.9954 48.2495C37.0979 48.2495 37.1882 48.2287 37.2664 48.1872C37.3445 48.1482 37.4055 48.0945 37.4495 48.0261C37.4959 47.9553 37.519 47.8845 37.519 47.8137C37.519 47.7453 37.48 47.6208 37.4019 47.4402C37.3262 47.2571 37.2188 47.0532 37.0796 46.8286C36.9429 46.6015 36.7866 46.3879 36.6108 46.1877C36.4351 45.9875 36.2507 45.8362 36.0579 45.7336C36.5168 45.6335 36.8586 45.4639 37.0833 45.2246C37.3103 44.9853 37.4238 44.6655 37.4238 44.2651C37.4238 44.0698 37.3896 43.8855 37.3213 43.7121C37.2554 43.5364 37.1577 43.3826 37.0283 43.2507C36.8989 43.1189 36.75 43.0176 36.5815 42.9468C36.4424 42.8834 36.2861 42.8419 36.1128 42.8223C35.9395 42.8003 35.7307 42.7893 35.4866 42.7893H33.7178C33.4834 42.7893 33.3137 42.8418 33.2087 42.9468C33.1038 43.0517 33.0513 43.2214 33.0513 43.4558V47.5867C33.0513 47.804 33.0989 47.9688 33.1941 48.0811C33.2893 48.1934 33.4236 48.2495 33.5969 48.2495C33.7581 48.2495 33.8887 48.1958 33.9888 48.0884C34.0889 47.981 34.1389 47.8137 34.1389 47.5867V45.8618ZM34.1389 43.606H35.1423H35.1423C35.5159 43.606 35.7661 43.6328 35.8931 43.6865C36.0274 43.7427 36.1323 43.8281 36.208 43.9429C36.2837 44.0552 36.3215 44.1858 36.3215 44.3347C36.3215 44.5252 36.2739 44.6753 36.1787 44.7852C36.0859 44.8926 35.9504 44.9695 35.7722 45.0159C35.594 45.0598 35.3743 45.0818 35.113 45.0818H34.1389V43.606Z" fill="black"/>
<path id="path7469" fill-rule="evenodd" clip-rule="evenodd" d="M41.6277 46.8762L41.8841 47.55L41.884 47.55C41.9182 47.633 41.9585 47.7294 42.0049 47.8393C42.0537 47.9467 42.0989 48.0273 42.1404 48.081C42.1819 48.1323 42.2332 48.1726 42.2942 48.2019C42.3552 48.2336 42.4285 48.2495 42.5139 48.2495C42.6604 48.2495 42.7849 48.1982 42.8875 48.0957C42.9924 47.9907 43.0449 47.8759 43.0449 47.7514C43.0449 47.6318 42.99 47.4402 42.8801 47.1765L41.4775 43.7121C41.4116 43.5388 41.3567 43.4009 41.3127 43.2983C41.2712 43.1933 41.2188 43.0957 41.1553 43.0053C41.0942 42.915 41.0124 42.8418 40.9099 42.7856C40.8098 42.727 40.6841 42.6978 40.5327 42.6978C40.3838 42.6978 40.2581 42.727 40.1555 42.7856C40.0554 42.8418 39.9736 42.9163 39.9101 43.009C39.8491 43.1018 39.7905 43.219 39.7344 43.3606C39.6807 43.4998 39.6343 43.6194 39.5952 43.7195L38.2219 47.2058C38.1658 47.345 38.1255 47.4536 38.1011 47.5317C38.0767 47.6098 38.0645 47.6855 38.0645 47.7588C38.0645 47.8858 38.1169 47.9993 38.2219 48.0994C38.3269 48.1995 38.4477 48.2495 38.5845 48.2495C38.7456 48.2495 38.8616 48.2031 38.9324 48.1104C39.0032 48.0151 39.0887 47.8332 39.1887 47.5647L39.4451 46.8762H41.6277ZM41.3348 46.0596H39.7308L40.5254 43.844L41.3348 46.0596Z" fill="black"/>
<path id="path7471" d="M46.667 43.6866H45.4805V47.5867C45.4805 47.8113 45.4304 47.9786 45.3303 48.0884C45.2303 48.1958 45.1009 48.2495 44.9422 48.2495C44.781 48.2495 44.6492 48.1946 44.5466 48.0847C44.4465 47.9749 44.3965 47.8089 44.3965 47.5867V43.6865H43.21C43.0244 43.6865 42.8865 43.6463 42.7961 43.5657C42.7058 43.4827 42.6606 43.374 42.6606 43.2398C42.6606 43.1006 42.707 42.9907 42.7998 42.9102C42.895 42.8296 43.0317 42.7893 43.2099 42.7893H46.667C46.855 42.7893 46.9941 42.8308 47.0845 42.9138C47.1772 42.9968 47.2236 43.1055 47.2236 43.2397C47.2236 43.374 47.1772 43.4826 47.0845 43.5656C46.9917 43.6462 46.8525 43.6865 46.667 43.6865L46.667 43.6866Z" fill="black"/>
<path id="path7473" d="M51.4058 43.628H48.9558V44.9463H51.2117C51.3777 44.9463 51.501 44.9842 51.5816 45.0598C51.6646 45.1331 51.7061 45.2307 51.7061 45.3528C51.7061 45.4749 51.6658 45.575 51.5852 45.6531C51.5046 45.7288 51.3801 45.7666 51.2117 45.7666H48.9558V47.2937H51.49C51.6609 47.2937 51.7891 47.334 51.8745 47.4146C51.9624 47.4927 52.0064 47.5977 52.0064 47.7295C52.0064 47.8565 51.9624 47.9602 51.8745 48.0408C51.7891 48.1189 51.6609 48.158 51.49 48.158H48.5347C48.2979 48.158 48.127 48.1055 48.022 48.0005C47.9194 47.8955 47.8682 47.7259 47.8682 47.4915V43.4558C47.8682 43.2996 47.8914 43.1726 47.9378 43.075C47.9841 42.9749 48.0562 42.9029 48.1538 42.8589C48.2539 42.8125 48.3809 42.7893 48.5347 42.7893H51.4058C51.5791 42.7893 51.7073 42.8284 51.7903 42.9065C51.8757 42.9822 51.9185 43.0823 51.9185 43.2068C51.9185 43.3337 51.8757 43.4363 51.7903 43.5144C51.7073 43.5901 51.5791 43.6279 51.4058 43.6279V43.628Z" fill="black"/>
</g>
<g id="text7422">
<path id="path7476" d="M25.4758 103.184H23.3335V104.557H25.1243C25.2903 104.557 25.4136 104.595 25.4941 104.671C25.5771 104.744 25.6187 104.843 25.6187 104.968C25.6187 105.092 25.5771 105.191 25.4941 105.264C25.4111 105.337 25.2878 105.374 25.1243 105.374H23.3335V107.143C23.3335 107.367 23.2822 107.535 23.1797 107.645C23.0796 107.752 22.9502 107.806 22.7915 107.806C22.6304 107.806 22.4985 107.751 22.396 107.641C22.2959 107.531 22.2458 107.365 22.2458 107.143V103.012C22.2458 102.856 22.269 102.729 22.3154 102.631C22.3618 102.531 22.4338 102.459 22.5315 102.415C22.6316 102.369 22.7585 102.345 22.9124 102.345H25.4758C25.6492 102.345 25.7773 102.385 25.8604 102.463C25.9458 102.538 25.9885 102.638 25.9885 102.763C25.9885 102.89 25.9458 102.992 25.8604 103.071C25.7773 103.146 25.6492 103.184 25.4758 103.184L25.4758 103.184Z" fill="black"/>
<path id="path7478" d="M30.3318 103.184H27.8818V104.502H30.1377C30.3037 104.502 30.427 104.54 30.5076 104.616C30.5906 104.689 30.6321 104.787 30.6321 104.909C30.6321 105.031 30.5918 105.131 30.5112 105.209C30.4307 105.285 30.3062 105.323 30.1377 105.323H27.8818V106.85H30.416C30.5869 106.85 30.7151 106.89 30.8005 106.971C30.8884 107.049 30.9324 107.154 30.9324 107.286C30.9324 107.413 30.8884 107.516 30.8005 107.597C30.7151 107.675 30.5869 107.714 30.416 107.714H27.4607C27.2239 107.714 27.053 107.662 26.948 107.557C26.8455 107.452 26.7942 107.282 26.7942 107.048V103.012C26.7942 102.856 26.8174 102.729 26.8638 102.631C26.9102 102.531 26.9822 102.459 27.0798 102.415C27.1799 102.369 27.3069 102.345 27.4607 102.345H30.3318C30.5051 102.345 30.6333 102.385 30.7163 102.463C30.8018 102.538 30.8445 102.638 30.8445 102.763C30.8445 102.89 30.8018 102.992 30.7163 103.071C30.6333 103.146 30.5051 103.184 30.3318 103.184L30.3318 103.184Z" fill="black"/>
<path id="path7480" d="M35.3416 103.184H32.8916V104.502H35.1475C35.3135 104.502 35.4368 104.54 35.5173 104.616C35.6003 104.689 35.6418 104.787 35.6418 104.909C35.6418 105.031 35.6016 105.131 35.521 105.209C35.4404 105.285 35.3159 105.323 35.1475 105.323H32.8916V106.85H35.4258C35.5967 106.85 35.7249 106.89 35.8103 106.971C35.8982 107.049 35.9421 107.154 35.9421 107.286C35.9421 107.413 35.8982 107.516 35.8103 107.597C35.7249 107.675 35.5967 107.714 35.4258 107.714H32.4705C32.2336 107.714 32.0627 107.662 31.9578 107.557C31.8552 107.452 31.804 107.282 31.804 107.048V103.012C31.804 102.856 31.8271 102.729 31.8735 102.631C31.9199 102.531 31.9919 102.459 32.0896 102.415C32.1897 102.369 32.3167 102.345 32.4705 102.345H35.3416C35.5149 102.345 35.6431 102.385 35.7261 102.463C35.8115 102.538 35.8542 102.638 35.8542 102.763C35.8542 102.89 35.8115 102.992 35.7261 103.071C35.6431 103.146 35.5149 103.184 35.3416 103.184L35.3416 103.184Z" fill="black"/>
<path id="path7482" fill-rule="evenodd" clip-rule="evenodd" d="M38.9048 102.345H37.4875L37.4875 102.345C37.2532 102.345 37.0835 102.398 36.9785 102.503C36.8735 102.608 36.821 102.778 36.821 103.012V106.949C36.821 107.122 36.8357 107.264 36.865 107.374C36.8967 107.481 36.9626 107.565 37.0627 107.626C37.1628 107.685 37.3118 107.714 37.5095 107.714H38.9268C39.1733 107.714 39.3943 107.698 39.5896 107.667C39.7873 107.635 39.9717 107.58 40.1426 107.502C40.3135 107.424 40.4709 107.32 40.615 107.19C40.7981 107.022 40.9482 106.832 41.0654 106.619C41.1826 106.404 41.2693 106.164 41.3254 105.898C41.3816 105.632 41.4097 105.337 41.4097 105.015C41.4097 104.039 41.1301 103.311 40.571 102.833C40.3562 102.645 40.1169 102.516 39.8533 102.448C39.5896 102.38 39.2734 102.345 38.9048 102.345ZM37.9087 106.85V103.206L37.9087 103.206H38.6265C38.9585 103.206 39.2417 103.243 39.4761 103.316C39.7104 103.387 39.907 103.554 40.0657 103.818C40.2268 104.081 40.3074 104.478 40.3074 105.008C40.3074 105.76 40.1255 106.29 39.7617 106.597C39.6812 106.668 39.5859 106.723 39.4761 106.762C39.3662 106.801 39.26 106.826 39.1575 106.835C39.0549 106.845 38.9133 106.85 38.7327 106.85H37.9087Z" fill="black"/>
<path id="path7484" fill-rule="evenodd" clip-rule="evenodd" d="M44.658 107.714H43.0174C42.7805 107.714 42.6109 107.662 42.5083 107.557C42.4082 107.449 42.3582 107.28 42.3582 107.048V103.012C42.3582 102.775 42.4094 102.605 42.512 102.503C42.6169 102.398 42.7854 102.345 43.0173 102.345H44.7568C45.0132 102.345 45.2354 102.361 45.4233 102.393C45.6113 102.425 45.7798 102.486 45.9287 102.576C46.0557 102.652 46.168 102.748 46.2656 102.866C46.3633 102.98 46.4377 103.108 46.489 103.25C46.5403 103.389 46.5659 103.537 46.5659 103.693C46.5659 104.23 46.2974 104.623 45.7602 104.872C46.4658 105.097 46.8186 105.534 46.8186 106.183C46.8186 106.484 46.7417 106.755 46.5879 106.996C46.4341 107.236 46.2266 107.413 45.9653 107.527C45.8018 107.596 45.6138 107.645 45.4014 107.674C45.189 107.701 44.9412 107.714 44.658 107.714L44.658 107.714ZM44.5774 105.33H43.4458V106.897H44.614C45.3489 106.897 45.7163 106.633 45.7163 106.103C45.7163 105.832 45.6211 105.635 45.4307 105.513C45.2403 105.391 44.9558 105.33 44.5774 105.33L44.5774 105.33ZM43.4458 104.55V103.162L43.4458 103.162H44.3284C44.7239 103.162 45.0181 103.207 45.211 103.298C45.4038 103.386 45.5003 103.565 45.5003 103.836C45.5003 103.963 45.4697 104.078 45.4087 104.18C45.3306 104.324 45.2171 104.422 45.0681 104.473C44.9216 104.524 44.7129 104.55 44.4419 104.55H43.4458Z" fill="black"/>
<path id="path7486" fill-rule="evenodd" clip-rule="evenodd" d="M50.6565 106.432L50.9129 107.106L50.9128 107.106C50.947 107.189 50.9873 107.286 51.0337 107.395C51.0825 107.503 51.1277 107.583 51.1692 107.637C51.2107 107.688 51.262 107.729 51.323 107.758C51.3841 107.79 51.4573 107.806 51.5427 107.806C51.6892 107.806 51.8137 107.754 51.9163 107.652C52.0212 107.547 52.0737 107.432 52.0737 107.308C52.0737 107.188 52.0188 106.996 51.9089 106.733L50.5064 103.268C50.4404 103.095 50.3855 102.957 50.3416 102.854C50.3 102.75 50.2476 102.652 50.1841 102.562C50.123 102.471 50.0413 102.398 49.9387 102.342C49.8386 102.283 49.7129 102.254 49.5615 102.254C49.4126 102.254 49.2869 102.283 49.1843 102.342C49.0842 102.398 49.0024 102.472 48.9389 102.565C48.8779 102.658 48.8193 102.775 48.7632 102.917C48.7095 103.056 48.6631 103.176 48.624 103.276L47.2507 106.762C47.1946 106.901 47.1543 107.01 47.1299 107.088C47.1055 107.166 47.0933 107.242 47.0933 107.315C47.0933 107.442 47.1457 107.555 47.2507 107.656C47.3557 107.756 47.4765 107.806 47.6133 107.806C47.7744 107.806 47.8904 107.759 47.9612 107.667C48.032 107.571 48.1175 107.389 48.2175 107.121L48.4739 106.432H50.6565ZM50.3636 105.616H48.7596L49.5542 103.4L50.3636 105.616Z" fill="black"/>
<path id="path7488" d="M57.2519 106.019C57.2519 106.189 57.2092 106.375 57.1238 106.575C57.0408 106.773 56.9089 106.968 56.7283 107.161C56.5476 107.352 56.3169 107.507 56.0361 107.626C55.7554 107.746 55.4282 107.806 55.0547 107.806C54.7715 107.806 54.5139 107.779 54.282 107.725C54.05 107.671 53.8389 107.588 53.6484 107.476C53.4605 107.361 53.2871 107.211 53.1284 107.026C52.9868 106.857 52.866 106.669 52.7659 106.462C52.6658 106.252 52.5901 106.028 52.5388 105.791C52.49 105.555 52.4656 105.303 52.4656 105.037C52.4656 104.605 52.5278 104.218 52.6523 103.876C52.7793 103.534 52.96 103.243 53.1943 103.001C53.4287 102.757 53.7034 102.571 54.0183 102.444C54.3333 102.317 54.6689 102.254 55.0254 102.254C55.46 102.254 55.8469 102.341 56.1863 102.514C56.5256 102.687 56.7856 102.902 56.9663 103.158C57.147 103.412 57.2373 103.653 57.2373 103.88C57.2373 104.004 57.1934 104.114 57.1055 104.209C57.0176 104.305 56.9114 104.352 56.7868 104.352C56.6477 104.352 56.5427 104.319 56.4719 104.253C56.4035 104.187 56.3266 104.074 56.2412 103.913C56.0996 103.647 55.9324 103.448 55.7395 103.316C55.5491 103.184 55.3135 103.118 55.0327 103.118C54.5859 103.118 54.2295 103.288 53.9634 103.627C53.6997 103.967 53.5679 104.449 53.5679 105.074C53.5679 105.491 53.6265 105.839 53.7437 106.117C53.8608 106.393 54.0269 106.6 54.2417 106.736C54.4565 106.873 54.708 106.941 54.9961 106.941C55.3086 106.941 55.5723 106.865 55.7871 106.711C56.0044 106.554 56.168 106.326 56.2778 106.026C56.3242 105.884 56.3816 105.77 56.45 105.682C56.5183 105.591 56.6282 105.546 56.7796 105.546C56.909 105.546 57.02 105.591 57.1128 105.682C57.2056 105.772 57.252 105.884 57.252 106.019L57.2519 106.019Z" fill="black"/>
<path id="path7490" d="M59.3247 102.913V104.795L61.4597 102.569C61.5623 102.461 61.649 102.382 61.7198 102.331C61.793 102.28 61.8894 102.254 62.0091 102.254C62.1653 102.254 62.2911 102.3 62.3863 102.393C62.4839 102.483 62.5327 102.594 62.5327 102.726C62.5327 102.885 62.451 103.042 62.2874 103.199L60.9653 104.451L62.4888 106.634C62.5962 106.785 62.6768 106.918 62.7305 107.033C62.7842 107.145 62.811 107.255 62.811 107.363C62.811 107.482 62.7634 107.586 62.6682 107.674C62.5755 107.762 62.4485 107.806 62.2874 107.806C62.136 107.806 62.0127 107.774 61.9175 107.71C61.8223 107.645 61.7417 107.558 61.6758 107.45C61.6099 107.343 61.5513 107.245 61.5 107.157L60.2146 105.18L59.3247 106.033V107.143C59.3247 107.367 59.2734 107.535 59.1709 107.645C59.0684 107.752 58.9365 107.806 58.7754 107.806C58.6826 107.806 58.5935 107.781 58.5081 107.732C58.4226 107.684 58.3567 107.618 58.3103 107.535C58.2761 107.466 58.2554 107.387 58.248 107.297C58.2407 107.206 58.2371 107.076 58.2371 106.905V102.913C58.2371 102.693 58.2847 102.529 58.3799 102.419C58.4775 102.309 58.6094 102.254 58.7754 102.254C58.939 102.254 59.0708 102.309 59.1709 102.419C59.2734 102.526 59.3247 102.691 59.3247 102.913L59.3247 102.913Z" fill="black"/>
</g>
<g id="text7444">
<path id="path7493" fill-rule="evenodd" clip-rule="evenodd" d="M32.2214 162.979H30.8042L30.8042 162.979C30.5698 162.979 30.4001 163.032 30.2952 163.137C30.1902 163.242 30.1377 163.411 30.1377 163.646V167.583C30.1377 167.756 30.1523 167.898 30.1816 168.007C30.2134 168.115 30.2793 168.199 30.3794 168.26C30.4795 168.319 30.6284 168.348 30.8262 168.348H32.2434C32.49 168.348 32.7109 168.332 32.9063 168.3C33.104 168.269 33.2883 168.214 33.4592 168.136C33.6301 168.057 33.7876 167.954 33.9316 167.824C34.1147 167.656 34.2649 167.465 34.3821 167.253C34.4993 167.038 34.5859 166.798 34.6421 166.531C34.6982 166.265 34.7263 165.971 34.7263 165.649C34.7263 164.672 34.4468 163.945 33.8877 163.466C33.6729 163.278 33.4336 163.15 33.1699 163.082C32.9062 163.013 32.5901 162.979 32.2214 162.979ZM31.2253 167.484V163.84H31.9431C32.2751 163.84 32.5583 163.877 32.7927 163.95C33.0271 164.021 33.2236 164.188 33.3823 164.452C33.5435 164.715 33.624 165.112 33.624 165.642C33.624 166.394 33.4421 166.923 33.0784 167.231C32.9978 167.302 32.9026 167.357 32.7927 167.396C32.6829 167.435 32.5767 167.459 32.4741 167.469C32.3716 167.479 32.23 167.484 32.0493 167.484H31.2253ZM31.2253 163.84V163.84L31.2253 163.84H31.2253Z" fill="black"/>
<path id="path7495" d="M39.2197 163.818H36.7698V165.136H39.0257C39.1917 165.136 39.315 165.174 39.3955 165.25C39.4785 165.323 39.52 165.421 39.52 165.543C39.52 165.665 39.4797 165.765 39.3992 165.843C39.3186 165.919 39.1941 165.957 39.0256 165.957H36.7698V167.484H39.304C39.4749 167.484 39.603 167.524 39.6885 167.605C39.7764 167.683 39.8203 167.788 39.8203 167.919C39.8203 168.046 39.7764 168.15 39.6885 168.231C39.603 168.309 39.4749 168.348 39.304 168.348H36.3486C36.1118 168.348 35.9409 168.295 35.8359 168.19C35.7334 168.085 35.6821 167.916 35.6821 167.681V163.646C35.6821 163.49 35.7053 163.363 35.7517 163.265C35.7981 163.165 35.8701 163.093 35.9678 163.049C36.0679 163.002 36.1948 162.979 36.3486 162.979H39.2197C39.3931 162.979 39.5212 163.018 39.6042 163.096C39.6897 163.172 39.7324 163.272 39.7324 163.397C39.7324 163.524 39.6897 163.626 39.6042 163.704C39.5212 163.78 39.3931 163.818 39.2197 163.818L39.2197 163.818Z" fill="black"/>
<path id="path7497" fill-rule="evenodd" clip-rule="evenodd" d="M41.7798 166.257H42.7759L42.7759 166.257C43.4424 166.257 43.9441 166.116 44.281 165.836C44.6179 165.552 44.7864 165.137 44.7864 164.591C44.7864 164.334 44.7449 164.104 44.6619 163.898C44.5789 163.693 44.4568 163.52 44.2957 163.378C44.137 163.237 43.9478 163.135 43.728 163.074C43.5059 163.011 43.1885 162.979 42.7759 162.979H41.3806C41.1414 162.979 40.9668 163.031 40.8569 163.133C40.7471 163.236 40.6921 163.407 40.6921 163.646V167.784C40.6921 167.999 40.7422 168.162 40.8423 168.275C40.9424 168.385 41.0742 168.439 41.2378 168.439C41.394 168.439 41.5234 168.383 41.626 168.271C41.7285 168.159 41.7798 167.994 41.7798 167.777V166.257ZM41.7798 163.796H42.5122L42.5122 163.796C42.998 163.796 43.3191 163.875 43.4753 164.034C43.6145 164.183 43.6841 164.376 43.6841 164.613C43.6841 164.81 43.6389 164.97 43.5486 165.092C43.4583 165.214 43.3264 165.302 43.1531 165.356C42.9822 165.41 42.7686 165.437 42.5122 165.437H41.7798V163.796Z" fill="black"/>
<path id="path7499" d="M49.1882 163.876H48.0017V167.777C48.0017 168.001 47.9516 168.168 47.8515 168.278C47.7514 168.386 47.622 168.439 47.4634 168.439C47.3022 168.439 47.1704 168.385 47.0679 168.275C46.9678 168.165 46.9177 167.999 46.9177 167.777V163.876H45.7312C45.5456 163.876 45.4077 163.836 45.3174 163.756C45.2271 163.673 45.1819 163.564 45.1819 163.43C45.1819 163.291 45.2283 163.181 45.321 163.1C45.4163 163.02 45.553 162.979 45.7312 162.979H49.1882C49.3762 162.979 49.5154 163.021 49.6057 163.104C49.6985 163.187 49.7448 163.295 49.7448 163.43C49.7448 163.564 49.6985 163.673 49.6057 163.756C49.5129 163.836 49.3738 163.876 49.1882 163.876L49.1882 163.876Z" fill="black"/>
<path id="path7501" d="M51.4841 163.547V165.085H53.8315V163.547C53.8315 163.327 53.8804 163.162 53.978 163.052C54.0781 162.943 54.2087 162.888 54.3699 162.888C54.5335 162.888 54.6653 162.943 54.7654 163.052C54.8679 163.16 54.9192 163.325 54.9192 163.547V167.777C54.9192 167.999 54.8679 168.165 54.7654 168.275C54.6628 168.385 54.531 168.439 54.3699 168.439C54.2063 168.439 54.0757 168.385 53.978 168.275C53.8804 168.162 53.8315 167.996 53.8315 167.777V165.971H51.4841V167.777C51.4841 167.999 51.4329 168.165 51.3303 168.275C51.2278 168.385 51.0959 168.439 50.9348 168.439C50.7712 168.439 50.6406 168.385 50.543 168.275C50.4453 168.162 50.3965 167.996 50.3965 167.777V163.547C50.3965 163.327 50.4441 163.162 50.5393 163.052C50.637 162.943 50.7688 162.888 50.9348 162.888C51.0984 162.888 51.2302 162.943 51.3303 163.052C51.4329 163.16 51.4841 163.325 51.4841 163.547H51.4841Z" fill="black"/>
</g>
</g>
</g>
</g>
<defs>
<clipPath id="clip0">
<rect width="75" height="380" fill="white"/>
</clipPath>
</defs>
</svg>
